<svg height="488pt" viewBox="-36 0 488 488" width="488pt" xmlns="http://www.w3.org/2000/svg"><path d="m361.726562 140.167969c-3.359374-11.816407-8.0625-23.167969-14.039062-33.886719l17.839844-24.96875-54.839844-54.839844-24.96875 17.839844c-10.71875-5.976562-22.078125-10.679688-33.886719-14.039062l-5.054687-30.273438h-77.546875l-5.054688 30.273438c-11.816406 3.359374-23.167969 8.0625-33.886719 14.039062l-24.96875-17.839844-54.839843 54.839844 17.839843 24.96875c-5.976562 10.71875-10.679687 22.078125-14.039062 33.886719l-30.28125 5.054687v70.777344h64c0-11.902344 2.9375-23.105469 8.046875-32.992188.539063-61.390624 50.433594-111.007812 111.953125-111.007812s111.414062 49.617188 111.953125 111.007812c5.109375 9.886719 8.046875 21.089844 8.046875 32.992188h64v-70.777344zm0 0" fill="#f0bc5e"/><path d="m240 328h48v32h16v-48h-64zm0 0"/><path d="m416 264c0-35.289062-28.710938-64-64-64-5.902344 0-11.6875.871094-17.238281 2.441406-1.296875-7.546875-3.648438-14.722656-6.914063-21.394531-1.582031-64.800781-54.671875-117.046875-119.847656-117.046875s-118.265625 52.246094-119.847656 117.046875c-3.257813 6.671875-5.617188 13.839844-6.914063 21.394531-5.550781-1.570312-11.335937-2.441406-17.238281-2.441406-35.289062 0-64 28.710938-64 64 0 29.753906 20.441406 54.761719 48 61.894531v66.105469h16v-64h16v96h16v-112h-32c-26.472656 0-48-21.527344-48-48s21.527344-48 48-48c18.441406 0 35.472656 10.769531 43.382812 27.433594l14.457032-6.859375c-5.574219-11.734375-14.59375-21.183594-25.433594-27.574219 3.496094-32.007812 30.671875-57 63.59375-57 15.710938 0 30.863281 5.832031 42.664062 16.398438l5.335938 4.785156 5.335938-4.792969c11.800781-10.558594 26.953124-16.390625 42.664062-16.390625 32.921875 0 60.097656 24.992188 63.601562 56.992188-10.839843 6.390624-19.859374 15.839843-25.433593 27.574218l14.457031 6.859375c7.902344-16.65625 24.933594-27.425781 43.375-27.425781 26.472656 0 48 21.527344 48 48s-21.527344 48-48 48h-32v112h16v-96h16v64h16v-66.105469c27.558594-7.132812 48-32.140625 48-61.894531zm-208-111.902344c-13.832031-10.425781-30.640625-16.097656-48-16.097656-1.976562 0-3.910156.152344-5.855469.296875 13.472657-15.257813 32.839844-24.296875 53.855469-24.296875s40.382812 9.039062 53.855469 24.296875c-1.945313-.144531-3.878907-.296875-5.855469-.296875-17.359375 0-34.167969 5.671875-48 16.097656zm76.871094-10.617187c-15.535156-28.074219-44.613282-45.480469-76.871094-45.480469s-61.335938 17.40625-76.871094 45.480469c-8.449218 3.289062-16.199218 7.925781-22.984375 13.71875 12.527344-43.367188 52.511719-75.199219 99.855469-75.199219s87.328125 31.832031 99.855469 75.199219c-6.785157-5.792969-14.535157-10.4375-22.984375-13.71875zm0 0"/><path d="m112 360h16v-32h40v-16h-56zm0 0"/><path d="m80 440h16v16h-16zm0 0"/><path d="m80 472h16v16h-16zm0 0"/><path d="m112 376h16v16h-16zm0 0"/><path d="m112 408h16v16h-16zm0 0"/><path d="m288 376h16v16h-16zm0 0"/><path d="m288 408h16v16h-16zm0 0"/><path d="m320 440h16v16h-16zm0 0"/><path d="m320 472h16v16h-16zm0 0"/><path d="m200 32h16v16h-16zm0 0"/><path d="m299.925781 82.769531 11.3125-11.316406 11.3125 11.316406-11.3125 11.3125zm0 0"/><path d="m94.863281 82.183594 11.3125-11.3125 11.316407 11.3125-11.316407 11.3125zm0 0"/><path d="m56 176h16v16h-16zm0 0"/><path d="m344 176h16v16h-16zm0 0"/><path d="m352 408h16v16h-16zm0 0"/><path d="m48 408h16v16h-16zm0 0"/><path d="m248 488h-80v-208h-40l80-80 80 80h-40zm0 0" fill="#f0bc5e"/></svg>