<?xml version="1.0" encoding="utf-8"?>
<!-- Generator: Adobe Illustrator 23.0.1, SVG Export Plug-In . SVG Version: 6.00 Build 0)  -->
<svg version="1.1" id="Layer_1" xmlns="http://www.w3.org/2000/svg" xmlns:xlink="http://www.w3.org/1999/xlink" x="0px" y="0px"
	 viewBox="0 0 252.1 144.2" style="enable-background:new 0 0 252.1 144.2;" xml:space="preserve">
<style type="text/css">
	.st0{clip-path:url(#SVGID_2_);fill:url(#SVGID_3_);}
	.st1{clip-path:url(#SVGID_5_);}
</style>
<g>
	<g>
		<g>
			<defs>
				<rect id="SVGID_1_" width="252.4" height="144.2"/>
			</defs>
			<clipPath id="SVGID_2_">
				<use xlink:href="#SVGID_1_"  style="overflow:visible;"/>
			</clipPath>
			
				<linearGradient id="SVGID_3_" gradientUnits="userSpaceOnUse" x1="126.1885" y1="104.2235" x2="126.1885" y2="47.6335" gradientTransform="matrix(1 0 0 -1 0 174.0947)">
				<stop  offset="0" style="stop-color:#1A1A1A"/>
				<stop  offset="1" style="stop-color:#000000"/>
			</linearGradient>
			<rect x="-9" y="-9" class="st0" width="270.4" height="162.2"/>
		</g>
		<g>
			<defs>
				<rect id="SVGID_4_" width="252.4" height="144.2"/>
			</defs>
			<clipPath id="SVGID_5_">
				<use xlink:href="#SVGID_4_"  style="overflow:visible;"/>
			</clipPath>
			<g class="st1">
				<path d="M39.2-56.7c-1.9,2.1-3.8,4.2-5.7,6.4c-0.4,0.4-0.8,0.8-1.2,1.3c-2.3-2.6-4.6-5.2-6.9-7.7c0.5,0,1.1,0,1.6,0
					c1.8,1.6,3.5,3.2,5.3,4.9c1.8-1.7,3.5-3.3,5.3-4.9C38.1-56.7,38.6-56.7,39.2-56.7z"/>
				<path d="M149-56.7c-1.9,2.1-3.8,4.3-5.7,6.4c-0.4,0.4-0.8,0.8-1.3,1.3c-2.3-2.5-4.5-5.1-6.8-7.6c0.5,0,1.1,0,1.6,0
					c1.8,1.6,3.5,3.2,5.3,4.9c1.8-1.7,3.5-3.3,5.3-4.9C148-56.7,148.5-56.7,149-56.7z"/>
				<path d="M258.9-56.7c-1.9,2.1-3.8,4.2-5.7,6.4c-0.4,0.4-0.8,0.8-1.2,1.3c-2.3-2.6-4.6-5.2-6.9-7.7c0.5,0,1.1,0,1.6,0
					c1.8,1.6,3.5,3.2,5.3,4.9c1.8-1.7,3.5-3.3,5.3-4.9C257.9-56.7,258.4-56.7,258.9-56.7z"/>
				<path d="M2.5-56.7c-0.8,0.9-1.5,1.9-2.4,2.8c-1.4,1.6-2.9,3.1-4.4,4.8c-2.5-2.5-4.7-5.1-7-7.6c0.6,0,1.2,0,1.8,0
					c0.1,0.1,0.2,0.3,0.3,0.4c1.5,1.4,3,2.8,4.6,4.2c0.1,0.1,0.2,0.1,0.4,0.2c1.6-1.5,3.2-2.9,4.8-4.3c0.2-0.1,0.3-0.3,0.4-0.5
					C1.5-56.7,2-56.7,2.5-56.7z"/>
				<path d="M112.4-56.7c-0.8,0.9-1.5,1.9-2.4,2.8c-1.4,1.6-2.9,3.1-4.4,4.8c-2.5-2.5-4.7-5.1-7-7.6c0.6,0,1.2,0,1.8,0
					c0.1,0.1,0.2,0.3,0.3,0.4c1.5,1.4,3,2.8,4.6,4.2c0.1,0.1,0.2,0.1,0.4,0.2c1.6-1.5,3.2-2.9,4.8-4.3c0.2-0.1,0.3-0.3,0.4-0.5
					C111.4-56.7,111.9-56.7,112.4-56.7z"/>
				<path d="M222.3-56.7c-0.8,0.9-1.5,1.9-2.4,2.8c-1.4,1.6-2.9,3.1-4.4,4.8c-2.5-2.5-4.7-5.1-7-7.6c0.6,0,1.2,0,1.8,0
					c0.1,0.1,0.2,0.3,0.3,0.4c1.5,1.4,3,2.8,4.6,4.2c0.1,0.1,0.2,0.1,0.4,0.2c1.6-1.5,3.2-2.9,4.8-4.3c0.2-0.1,0.3-0.3,0.4-0.5
					C221.2-56.7,221.8-56.7,222.3-56.7z"/>
				<path d="M-34.5,76.2c0.4,0.4,0.8,0.7,1.1,1.1c1,1.1,1.9,2.2,2.8,3.4c-0.2-0.1-0.4-0.2-0.6-0.4c-0.8-0.7-1.6-1.4-2.4-2
					c-0.3-0.2-0.6-0.4-0.9-0.6C-34.5,77.3-34.5,76.7-34.5,76.2z"/>
				<path d="M-34.5,186.1c0.4,0.4,0.8,0.7,1.1,1.1c1,1.1,1.9,2.2,2.8,3.4c-0.2-0.1-0.4-0.2-0.6-0.4c-0.8-0.7-1.6-1.4-2.4-2
					c-0.3-0.2-0.6-0.4-0.9-0.5C-34.5,187.1-34.5,186.6-34.5,186.1z"/>
				<path d="M-34.5,112.8c0.4,0.4,0.8,0.7,1.1,1.1c1,1.1,1.9,2.2,2.8,3.4c-0.2-0.1-0.4-0.2-0.6-0.4c-0.8-0.7-1.6-1.4-2.4-2
					c-0.3-0.2-0.6-0.4-0.9-0.6C-34.5,113.9-34.5,113.4-34.5,112.8z"/>
				<path d="M-34.5,222.7c0.4,0.4,0.8,0.7,1.1,1.1c1,1.1,1.9,2.2,2.8,3.4c-0.2-0.1-0.4-0.2-0.6-0.4c-0.8-0.7-1.6-1.4-2.4-2
					c-0.3-0.2-0.6-0.4-0.9-0.6C-34.5,223.8-34.5,223.2-34.5,222.7z"/>
				<path d="M-34.5,149.5c0.4,0.4,0.8,0.7,1.1,1.1c1,1.1,1.9,2.2,2.8,3.4c-0.2-0.1-0.4-0.2-0.6-0.4c-0.8-0.7-1.6-1.4-2.4-2
					c-0.3-0.2-0.6-0.4-0.9-0.6C-34.5,150.5-34.5,150-34.5,149.5z"/>
				<path d="M-34.5,39.6c0.4,0.4,0.8,0.7,1.1,1.1c1,1.1,1.9,2.2,2.8,3.4c-0.2-0.1-0.4-0.2-0.6-0.4c-0.8-0.7-1.6-1.4-2.4-2
					c-0.3-0.2-0.6-0.4-0.9-0.5C-34.5,40.6-34.5,40.1-34.5,39.6z"/>
				<path d="M-34.5-33.7c0.4,0.4,0.8,0.7,1.1,1.1c1,1.1,1.9,2.2,2.8,3.4c-0.2-0.1-0.4-0.2-0.6-0.4c-0.8-0.7-1.6-1.4-2.4-2
					c-0.3-0.2-0.6-0.4-0.9-0.5C-34.5-32.6-34.5-33.1-34.5-33.7z"/>
				<path d="M-34.5,3c0.4,0.4,0.8,0.7,1.1,1.1c1,1.1,1.9,2.2,2.8,3.4c-0.2-0.1-0.4-0.2-0.6-0.4c-0.8-0.7-1.6-1.4-2.4-2
					c-0.3-0.2-0.6-0.4-0.9-0.6C-34.5,4-34.5,3.5-34.5,3z"/>
				<path d="M-34.5,198.5c0.3-0.2,0.7-0.3,0.9-0.5c1-0.8,1.9-1.6,2.9-2.4c0.1,0.1,0.1,0.1,0.2,0.2c-1.1,1.3-2.2,2.6-3.4,3.9
					c-0.2,0.2-0.4,0.3-0.6,0.5C-34.5,199.6-34.5,199-34.5,198.5z"/>
				<path d="M-34.5,235.1c0.3-0.2,0.7-0.3,0.9-0.5c1-0.8,1.9-1.6,2.9-2.4c0.1,0.1,0.1,0.1,0.2,0.2c-1.1,1.3-2.2,2.6-3.4,3.9
					c-0.2,0.2-0.4,0.3-0.6,0.5C-34.5,236.2-34.5,235.7-34.5,235.1z"/>
				<path d="M-34.5,88.6c0.3-0.2,0.7-0.3,0.9-0.5c1-0.8,1.9-1.6,2.9-2.4c0.1,0.1,0.1,0.1,0.2,0.2c-1.1,1.3-2.2,2.6-3.4,3.9
					c-0.2,0.2-0.4,0.3-0.6,0.5C-34.5,89.7-34.5,89.2-34.5,88.6z"/>
				<path d="M-34.5,125.3c0.3-0.2,0.7-0.3,0.9-0.5c1-0.8,1.9-1.6,2.9-2.4c0.1,0.1,0.1,0.1,0.2,0.2c-1.1,1.3-2.2,2.6-3.4,3.9
					c-0.2,0.2-0.4,0.3-0.6,0.5C-34.5,126.3-34.5,125.8-34.5,125.3z"/>
				<path d="M-34.5,161.9c0.3-0.2,0.7-0.3,0.9-0.5c1-0.8,1.9-1.6,2.9-2.4c0.1,0.1,0.1,0.1,0.2,0.2c-1.1,1.3-2.2,2.6-3.4,3.9
					c-0.2,0.2-0.4,0.3-0.6,0.5C-34.5,162.9-34.5,162.4-34.5,161.9z"/>
				<path d="M-34.5,15.4c0.3-0.2,0.7-0.3,0.9-0.5c1-0.8,1.9-1.6,2.9-2.4c0.1,0.1,0.1,0.1,0.2,0.2c-1.1,1.3-2.2,2.6-3.4,3.9
					c-0.2,0.2-0.4,0.3-0.6,0.5C-34.5,16.4-34.5,15.9-34.5,15.4z"/>
				<path d="M-34.5-21.2c0.3-0.2,0.7-0.3,0.9-0.5c1-0.8,1.9-1.6,2.9-2.4c0.1,0.1,0.1,0.1,0.2,0.2c-1.1,1.3-2.2,2.6-3.4,3.9
					c-0.2,0.2-0.4,0.3-0.6,0.5C-34.5-20.2-34.5-20.7-34.5-21.2z"/>
				<path d="M-34.5,52c0.3-0.2,0.7-0.3,0.9-0.5c1-0.8,1.9-1.6,2.9-2.4c0.1,0.1,0.1,0.1,0.2,0.2c-1.1,1.3-2.2,2.6-3.4,3.9
					c-0.2,0.2-0.4,0.3-0.6,0.5C-34.5,53.1-34.5,52.5-34.5,52z"/>
				<path d="M185.7-56.7c-0.1,0.1-0.1,0.3-0.2,0.4c-1.4,1.2-2.7,2.4-4.3,3.4c1-1.3,2.1-2.5,3.1-3.8
					C184.8-56.7,185.2-56.7,185.7-56.7z"/>
				<path d="M75.8-56.7c-0.1,0.1-0.1,0.3-0.2,0.4c-1.4,1.2-2.7,2.4-4.3,3.4c1-1.3,2.1-2.5,3.1-3.8C74.9-56.7,75.3-56.7,75.8-56.7z"
					/>
				<path d="M173.4-56.7c0.3,0.4,0.5,0.8,0.8,1.2c0.6,0.8,1.3,1.5,1.8,2.4c-1.5-1.1-2.9-2.2-4.2-3.5
					C172.4-56.7,172.9-56.7,173.4-56.7z"/>
				<path d="M63.6-56.7c0.3,0.4,0.5,0.8,0.8,1.2c0.6,0.8,1.3,1.5,1.8,2.4c-1.5-1.1-2.9-2.2-4.2-3.5C62.5-56.7,63-56.7,63.6-56.7z"/>
				<path d="M90.8-19.6c4.1,3.7,8.2,7.4,12.4,11.2C99.1-4.5,95-0.7,90.6,2.8c3-3.8,6.3-7.4,9.6-11.1c-3.3-3.7-6.5-7.3-9.8-11
					C90.6-19.4,90.7-19.5,90.8-19.6z"/>
				<path d="M-9.6,248.1c-3.3-3.7-6.5-7.3-9.9-11.1c1.3,0.5,11.3,9.4,12.7,11.2c-4,3.8-8.1,7.5-12.5,11
					C-16.3,255.3-12.9,251.7-9.6,248.1z"/>
				<path d="M-19.3-19.4c4.3,3.5,8.4,7.2,12.5,11.1c-4.1,3.9-8.2,7.6-12.5,11.1c3-3.8,6.3-7.4,9.7-11.1
					C-12.9-12-16.2-15.6-19.3-19.4z"/>
				<path d="M200.4,112.5c3.2-3.6,6.5-7.3,9.8-11c-3.3-3.7-6.5-7.3-9.7-11c0.1-0.1,0.1-0.1,0.2-0.2c4.3,3.5,8.3,7.3,12.5,11.2
					c-4.1,3.9-8.2,7.6-12.5,11.2C200.5,112.6,200.4,112.6,200.4,112.5z"/>
				<path d="M-19.1,90.3c4.1,3.7,8.2,7.4,12.5,11.2c-4.1,3.9-8.3,7.7-12.6,11.2c3-3.8,6.3-7.4,9.6-11.1c-3.3-3.7-6.5-7.3-9.8-11
					C-19.3,90.5-19.2,90.4-19.1,90.3z"/>
				<path d="M210.2,64.9c-1.7-1.9-3.4-3.7-5-5.5c-1.6-1.8-3.2-3.7-4.7-5.6c4.4,3.5,8.4,7.2,12.6,11.1c-4.1,3.9-8.2,7.6-12.5,11.1
					C203.5,72.2,206.8,68.6,210.2,64.9z"/>
				<path d="M103.1,65c-4,3.8-8.1,7.5-12.5,11c3-3.8,6.3-7.4,9.6-11.1c-3.3-3.7-6.5-7.3-9.9-11.1C91.6,54.3,101.7,63.2,103.1,65z"/>
				<path d="M-19.4,75.8c3.2-3.6,6.4-7.2,9.8-11c-3.3-3.6-6.6-7.2-9.6-11.1c4.3,3.5,8.4,7.2,12.5,11.1c-4.1,3.9-8.2,7.6-12.5,11.2
					C-19.2,76-19.3,75.9-19.4,75.8z"/>
				<path d="M90.8,236.8c4.1,3.7,8.2,7.4,12.4,11.2c-4.1,3.9-8.3,7.7-12.6,11.2c0.9-1.4,2-2.5,3-3.8c1.1-1.2,2.1-2.4,3.2-3.6
					c1.1-1.2,2.2-2.4,3.3-3.7c-3.3-3.7-6.5-7.4-9.8-11C90.6,237,90.7,236.9,90.8,236.8z"/>
				<path d="M-19.4,185.7c3.2-3.6,6.4-7.3,9.7-11c-3.2-3.6-6.5-7.3-9.7-11c0.1-0.1,0.1-0.1,0.2-0.2c4.3,3.5,8.4,7.3,12.5,11.2
					c-4.1,3.9-8.2,7.6-12.5,11.2C-19.2,185.9-19.3,185.8-19.4,185.7z"/>
				<path d="M90.6,163.7c4.3,3.5,8.4,7.2,12.5,11.1c-4.1,3.9-8.2,7.6-12.5,11.1c3-3.8,6.3-7.4,9.7-11.1
					C97,171.1,93.6,167.6,90.6,163.7z"/>
				<path d="M213.1,174.8c-4.2,3.8-8.4,7.5-12.5,11.2c-0.1-0.1-0.1-0.1-0.2-0.2c3.1-3.8,6.4-7.3,9.7-11c-3.3-3.7-6.5-7.3-9.8-11
					c0.1-0.1,0.1-0.1,0.2-0.2C204.8,167.2,208.9,170.9,213.1,174.8z"/>
				<path d="M213.1,211.5c-4.2,3.8-8.3,7.5-12.5,11.2c-0.1-0.1-0.1-0.1-0.2-0.2c3.1-3.8,6.4-7.3,9.7-11c-3.3-3.7-6.5-7.4-9.8-11
					c0.1-0.1,0.1-0.1,0.2-0.2C204.8,203.8,208.9,207.5,213.1,211.5z"/>
				<path d="M90.6,222.5c3-3.8,6.3-7.4,9.6-11.1c-3.3-3.7-6.5-7.3-9.9-11.1c1.3,0.5,11.3,9.4,12.7,11.2
					C99.1,215.3,95,219,90.6,222.5z"/>
				<path d="M-19.4,39.2c3.2-3.6,6.5-7.2,9.8-11c-3.3-3.6-6.6-7.2-9.6-11.1c4.3,3.5,8.4,7.2,12.6,11.1c-4.1,3.9-8.2,7.6-12.5,11.2
					C-19.2,39.4-19.3,39.3-19.4,39.2z"/>
				<path d="M100.3,101.6c-3.3-3.7-6.5-7.4-9.8-11c0.1-0.1,0.1-0.1,0.2-0.2c4.3,3.5,8.3,7.3,12.5,11.2c-4.1,3.9-8.2,7.6-12.5,11.1
					c0.9-1.4,2-2.5,3-3.8c1.1-1.2,2.2-2.4,3.2-3.6C98,104,99.1,102.8,100.3,101.6z"/>
				<path d="M100.3,28.3c-3.3-3.7-6.5-7.4-9.9-11.1c1.3,0.5,11.4,9.4,12.7,11.2c-4,3.8-8.1,7.5-12.5,11
					C93.6,35.5,96.9,32,100.3,28.3z"/>
				<path d="M-19.2-56.1c4.3,3.5,8.4,7.3,12.5,11.2c-4.1,3.9-8.2,7.6-12.5,11.1c3-3.8,6.3-7.4,9.6-11.1c-3.3-3.7-6.5-7.3-9.8-11
					C-19.3-56-19.2-56.1-19.2-56.1z"/>
				<path d="M210.2,28.3c-1.7-1.9-3.4-3.7-5-5.5c-1.6-1.8-3.2-3.7-4.7-5.6c4.4,3.4,8.4,7.2,12.6,11.1c-4.1,3.9-8.2,7.6-12.5,11.1
					c0.9-1.4,2-2.5,3-3.8c1.1-1.2,2.2-2.4,3.2-3.6C207.9,30.8,209,29.6,210.2,28.3z"/>
				<path d="M103.1-45c-1.4,1.7-11.1,10.3-12.7,11.3c3.2-4,6.6-7.5,9.9-11.2c-3.3-3.7-6.5-7.3-9.9-11.2
					C91.7-55.5,100.3-47.9,103.1-45z"/>
				<path d="M213-8.3c-4,3.8-8.1,7.5-12.5,11c3-3.8,6.3-7.4,9.6-11c-3.3-3.7-6.5-7.3-9.9-11.1C201.5-19,211.6-10,213-8.3z"/>
				<path d="M200.5-56.1c4.3,3.5,8.4,7.2,12.5,11.1c-4.1,3.9-8.2,7.6-12.5,11.1c3-3.8,6.3-7.4,9.7-11.1
					C206.9-48.6,203.5-52.2,200.5-56.1z"/>
				<path d="M-9.6,211.4c-3.3-3.7-6.5-7.3-9.9-11.1c1.3,0.5,11.4,9.4,12.7,11.1c-1.2,1.5-11,10.2-12.4,11
					C-16.3,218.7-12.9,215.1-9.6,211.4z"/>
				<path d="M200.4,259c3.2-3.6,6.4-7.2,9.8-11c-3.3-3.6-6.6-7.2-9.6-11.1c4.3,3.5,8.4,7.2,12.5,11.1c-4.1,3.9-8.2,7.6-12.5,11.2
					C200.5,259.1,200.5,259.1,200.4,259z"/>
				<path d="M200.6,126.9c4.1,3.7,8.2,7.4,12.5,11.2c-4.1,3.9-8.3,7.7-12.6,11.2c3-3.9,6.3-7.4,9.6-11.1c-3.3-3.7-6.5-7.3-9.8-11
					C200.5,127.1,200.6,127,200.6,126.9z"/>
				<path d="M90.5,149.1c3.2-3.6,6.5-7.2,9.8-11c-3.3-3.6-6.6-7.2-9.6-11.1c4.3,3.5,8.4,7.2,12.5,11.1c-4.1,3.9-8.2,7.6-12.5,11.2
					C90.6,149.3,90.6,149.2,90.5,149.1z"/>
				<path d="M-19.3,127.1c4.3,3.5,8.4,7.2,12.6,11.1c-4.1,3.9-8.2,7.6-12.5,11.1c3-3.8,6.3-7.4,9.7-11.1
					C-12.9,134.5-16.2,130.9-19.3,127.1z"/>
				<path d="M266.8,39.4c-4.2-3.5-8.3-7.2-12.3-11.1c4-3.9,8.1-7.5,12.4-11c-2.9,3.8-6.2,7.3-9.5,11c3.2,3.6,6.5,7.3,9.7,10.9
					C267,39.2,266.9,39.3,266.8,39.4z"/>
				<path d="M47,76c-4.2-3.5-8.3-7.2-12.3-11.1c4.1-3.8,8.1-7.6,12.5-11c-3,3.8-6.3,7.4-9.6,11c3.3,3.7,6.5,7.3,9.7,10.9
					C47.2,75.8,47.1,75.9,47,76z"/>
				<path d="M37.6,248c3.3,3.7,6.5,7.3,9.7,10.9c-0.1,0.1-0.1,0.1-0.2,0.2c-4.2-3.5-8.3-7.2-12.4-11.1c4.1-3.9,8.1-7.6,12.4-11
					C44.2,240.9,40.9,244.4,37.6,248z"/>
				<path d="M157,17.3c-3,3.8-6.3,7.4-9.5,11c3.3,3.7,6.5,7.3,9.7,10.9c-0.1,0.1-0.1,0.1-0.2,0.2c-4.2-3.5-8.3-7.2-12.4-11.1
					C148.7,24.4,152.7,20.7,157,17.3z"/>
				<path d="M37.6,28.3c1.7,1.9,3.3,3.6,5,5.5c1.6,1.8,3.1,3.6,4.6,5.5c-4.3-3.4-8.4-7.1-12.5-11c4.1-3.9,8.1-7.6,12.4-11
					C44.2,21.1,40.9,24.6,37.6,28.3z"/>
				<path d="M254.5,138.1c4-3.8,8.1-7.5,12.5-10.9c-0.5,0.6-1,1.2-1.5,1.8c-0.5,0.6-1,1.2-1.6,1.8c-0.5,0.6-1.1,1.2-1.6,1.9
					c-0.6,0.6-1.1,1.2-1.7,1.8c-0.5,0.6-1.1,1.2-1.6,1.8c-0.6,0.6-1.1,1.2-1.7,1.8c3.3,3.7,6.5,7.3,9.7,11
					C266.1,148.9,257.3,141.1,254.5,138.1z"/>
				<path d="M144.6,138.2c4.1-3.9,8.2-7.6,12.4-11.1c0.1,0.1,0.1,0.1,0.2,0.2c-1.6,1.8-3.2,3.7-4.8,5.5c-1.6,1.8-3.2,3.6-4.9,5.4
					c3.3,3.7,6.5,7.3,9.7,10.9c-0.1,0.1-0.1,0.1-0.2,0.2C152.7,145.7,148.7,142,144.6,138.2z"/>
				<path d="M37.6,138.1c3.3,3.7,6.5,7.3,9.7,10.9c-1.2-0.4-11-9.1-12.4-10.8c1-1.3,10.9-10.2,12.3-11
					C44.2,131,40.9,134.5,37.6,138.1z"/>
				<path d="M34.7,174.8c4.1-3.9,8.1-7.6,12.4-11c-3,3.8-6.3,7.4-9.6,11c3.3,3.7,6.5,7.3,9.7,10.9c-0.1,0.1-0.1,0.1-0.2,0.2
					C42.8,182.4,38.8,178.6,34.7,174.8z"/>
				<path d="M156.9,185.9c-4.1-3.7-8.2-7.3-12.3-11.1c4.1-3.9,8.2-7.6,12.5-11.1c-3,3.8-6.3,7.3-9.5,11c3.3,3.7,6.5,7.3,9.7,10.9
					C157.1,185.7,157,185.8,156.9,185.9z"/>
				<path d="M267.1,185.9c-1.5-0.8-10.5-8.8-12.6-11.1c4-3.8,8.1-7.5,12.4-11c-0.6,1.1-1.4,1.9-2.2,2.8c-0.8,0.9-1.6,1.8-2.4,2.7
					c-0.8,0.9-1.7,1.8-2.5,2.8c-0.8,0.9-1.6,1.8-2.5,2.7C260.6,178.4,263.9,182,267.1,185.9z"/>
				<path d="M144.6,64.8c4.1-3.7,8.2-7.4,12.3-11c0.1,0.1,0.2,0.1,0.2,0.2c-3,3.7-6.3,7.3-9.6,10.9c3.2,3.6,6.5,7.3,9.8,11
					C156.1,75.5,147,67.5,144.6,64.8z"/>
				<path d="M47.3,90.7c-3.2,3.6-6.4,7.2-9.7,10.9c3.2,3.6,6.4,7.2,9.8,11c-1.2-0.4-10.4-8.5-12.6-11c4-3.8,8.1-7.5,12.3-11
					C47.2,90.5,47.2,90.6,47.3,90.7z"/>
				<path d="M157,112.6c-4.2-3.5-8.3-7.2-12.4-11.1c4.1-3.9,8.1-7.6,12.4-11c-3,3.8-6.3,7.4-9.5,11c3.3,3.7,6.5,7.3,9.7,10.9
					C157.1,112.5,157,112.5,157,112.6z"/>
				<path d="M257.4,101.5c3.2,3.6,6.4,7.2,9.6,10.8c-0.1,0.1-0.1,0.1-0.2,0.2c-4.2-3.5-8.3-7.2-12.4-11.1c4.1-3.9,8.1-7.6,12.4-11.1
					c0.1,0.1,0.1,0.1,0.2,0.2C263.9,94.3,260.6,97.9,257.4,101.5z"/>
				<path d="M254.4,248c4.2-3.8,8.3-7.4,12.4-11.1c0.1,0.1,0.1,0.1,0.2,0.2c-0.7,1-1.5,1.9-2.3,2.8c-0.8,0.9-1.6,1.8-2.4,2.7
					c-0.8,0.9-1.7,1.8-2.5,2.8c-0.8,0.9-1.6,1.8-2.5,2.7c3.3,3.6,6.6,7.2,9.6,11C262.6,255.6,258.6,251.9,254.4,248z"/>
				<path d="M144.5,248c4.2-3.8,8.3-7.4,12.4-11.1c0.1,0.1,0.1,0.1,0.2,0.2c-1.5,1.9-3.1,3.7-4.7,5.5c-1.6,1.8-3.2,3.6-5,5.5
					c3.2,3.6,6.6,7.1,9.6,11C152.7,255.6,148.7,251.9,144.5,248z"/>
				<path d="M37.6,211.4c3.3,3.6,6.6,7.2,9.6,11c-4.3-3.4-8.3-7.1-12.3-10.8c0.6-1,9.9-9.5,12.4-11.1c-0.5,0.6-1,1.2-1.5,1.8
					c-0.5,0.6-1,1.2-1.6,1.8c-0.5,0.6-1.1,1.2-1.6,1.9c-0.6,0.6-1.1,1.2-1.7,1.8c-0.5,0.6-1.1,1.2-1.6,1.8
					C38.7,210.1,38.2,210.8,37.6,211.4z"/>
				<path d="M37.6-45c3.3,3.7,6.5,7.3,9.7,10.9c-0.1,0.1-0.1,0.1-0.2,0.2c-4.2-3.5-8.3-7.2-12.4-11.1c4.1-3.9,8.1-7.6,12.4-11
					C44.2-52.1,40.9-48.6,37.6-45z"/>
				<path d="M147.5-45c3.3,3.7,6.5,7.3,9.8,11c-1.1-0.3-10.2-8.3-12.6-11c4-3.8,8.1-7.5,12.4-11C154.1-52.1,150.8-48.6,147.5-45z"/>
				<path d="M266.8-33.9c-4.2-3.5-8.3-7.2-12.3-11.1c4.1-3.8,8.1-7.6,12.4-11c-3,3.8-6.3,7.4-9.5,11c3.3,3.7,6.5,7.3,9.7,10.9
					C267-34.1,266.9-34,266.8-33.9z"/>
				<path d="M47.1,2.7c-4.2-3.5-8.2-7.2-12.3-11.1c4-3.9,8.1-7.5,12.4-11c-2.9,3.8-6.2,7.3-9.5,11c3.2,3.6,6.5,7.3,9.7,10.9
					C47.2,2.6,47.1,2.6,47.1,2.7z"/>
				<path d="M144.6-8.3c4.1-3.9,8.2-7.6,12.5-11c-3,3.8-6.3,7.3-9.5,11c3.3,3.7,6.5,7.3,9.7,10.9c-0.1,0.1-0.1,0.1-0.2,0.2
					C152.7-0.8,148.7-4.5,144.6-8.3z"/>
				<path d="M266.8,2.7c-4.2-3.5-8.3-7.2-12.4-11.1c4.1-3.9,8.1-7.6,12.5-11c-3,3.8-6.3,7.4-9.5,11c3.3,3.7,6.5,7.3,9.7,10.9
					C267,2.6,266.9,2.7,266.8,2.7z"/>
				<path d="M156.9,222.5c-4.1-3.7-8.2-7.3-12.3-11.1c4.1-3.9,8.2-7.6,12.5-11.1c-3,3.8-6.3,7.3-9.5,11c3.3,3.7,6.5,7.3,9.7,10.9
					C157.1,222.4,157,222.5,156.9,222.5z"/>
				<path d="M266.8,222.5c-4.2-3.5-8.3-7.2-12.4-11.1c4.1-3.9,8.1-7.6,12.4-11c-3,3.8-6.2,7.3-9.6,10.9c3.3,3.7,6.5,7.3,9.7,10.9
					C267,222.3,266.9,222.4,266.8,222.5z"/>
				<path d="M266.8,76c-4.2-3.5-8.3-7.2-12.3-11.1c4.1-3.8,8.1-7.6,12.4-11c-3,3.8-6.3,7.3-9.5,11c3.3,3.7,6.5,7.3,9.7,10.9
					C267,75.8,266.9,75.9,266.8,76z"/>
				<path d="M-14.7,80.6C-11.3,76.8-7.9,73-4.3,69c3.6,3.8,7.1,7.7,10.3,11.7c-3.6-2.8-6.8-5.8-10.2-8.9c-3.4,3-6.8,6-10.2,9.1
					C-14.5,80.8-14.6,80.7-14.7,80.6z"/>
				<path d="M105.6-1.4c-3.4,3.1-6.8,6.1-10.2,9.1c-0.1-0.1-0.1-0.1-0.2-0.2c3.3-4,6.8-7.8,10.4-11.7c3.6,3.8,7,7.6,10.3,11.6
					c-1.2-0.8-2.3-1.8-3.4-2.7c-1.2-1-2.3-2-3.5-3.1C107.9,0.6,106.8-0.4,105.6-1.4z"/>
				<path d="M105.6,181.7c-3.4,3.1-6.8,6.1-10.2,9.1c-0.1-0.1-0.1-0.1-0.2-0.2c3.3-4,6.8-7.8,10.4-11.7c3.6,3.8,7,7.6,10.3,11.6
					C112.3,187.8,109,184.7,105.6,181.7z"/>
				<path d="M-14.7,7.4c3.3-4,6.8-7.8,10.4-11.7C-0.7-0.4,2.8,3.4,6,7.4C2.4,4.7-0.8,1.6-4.2-1.4c-3.4,3-6.8,6-10.2,9.1
					C-14.5,7.6-14.6,7.5-14.7,7.4z"/>
				<path d="M5.8,44.2c-3.3-3-6.7-5.9-10.1-9c-3.4,3-6.7,6.1-10.3,8.9c3.2-4.1,6.7-7.9,10.2-11.6c1.2,1,9,9.6,10.4,11.5
					C6,44.1,5.9,44.1,5.8,44.2z"/>
				<path d="M225.7-29.2c-3.6-2.8-6.9-5.8-10.2-8.9c-3.4,3-6.8,6.1-10.2,9.1c-0.1-0.1-0.1-0.1-0.2-0.2c3.3-4,6.8-7.8,10.4-11.7
					C219.1-37,222.5-33.2,225.7-29.2z"/>
				<path d="M95.2,227.1c3.4-3.8,6.9-7.7,10.4-11.6c3.6,3.8,7.1,7.7,10.3,11.7c-3.6-2.8-6.8-5.8-10.2-8.9c-3.4,3-6.8,6.1-10.2,9.1
					C95.3,227.3,95.2,227.2,95.2,227.1z"/>
				<path d="M215.5,178.9c3.5,3.9,6.9,7.8,10.3,11.6c-0.1,0.1-0.1,0.1-0.2,0.2c-1.2-0.9-2.3-1.9-3.4-2.8c-1.2-1-2.3-2-3.5-3.1
					c-1.1-1-2.2-2-3.3-3c-3.5,3.1-6.8,6.1-10.2,9.1c-0.1-0.1-0.1-0.1-0.2-0.2C208.4,186.6,211.9,182.8,215.5,178.9z"/>
				<path d="M-14.7,117.3c3.3-4,6.8-7.8,10.4-11.6c3.6,3.8,7,7.6,10.3,11.7c-1.8-1.3-3.5-2.8-5.1-4.3c-1.7-1.5-3.4-3-5.1-4.6
					c-3.4,3-6.8,6-10.2,9.1C-14.5,117.4-14.6,117.4-14.7,117.3z"/>
				<path d="M215.5,35.2c-3.5,3.1-6.9,6.1-10.2,9.1c-0.1-0.1-0.1-0.1-0.2-0.2c3.3-4,6.8-7.8,10.4-11.7c3.6,3.8,7,7.6,10.3,11.6
					C222.2,41.3,218.9,38.3,215.5,35.2z"/>
				<path d="M95.2,44c3.4-3.8,6.9-7.7,10.3-11.5c1.1,0.7,9.4,9.9,10.4,11.6c-3.5-2.8-6.8-5.8-10.2-8.9c-3.4,3-6.8,6.1-10.2,9.1
					C95.3,44.2,95.2,44.1,95.2,44z"/>
				<path d="M225.6,117.4c-1.7-1.5-3.4-2.9-5.1-4.4c-1.7-1.5-3.3-3-5.1-4.6c-3.4,3-6.8,6-10.2,9.1c-0.1-0.1-0.1-0.1-0.2-0.2
					c3.3-4,6.8-7.8,10.4-11.7c3.6,3.8,7,7.6,10.3,11.6C225.8,117.3,225.7,117.4,225.6,117.4z"/>
				<path d="M215.6-4.1c3.5,3.7,7,7.5,10.2,11.6c-1.8-1.3-3.5-2.8-5.1-4.3c-1.7-1.5-3.3-3-5.1-4.6c-3.4,3-6.8,6-10.4,9.2
					C205.6,6.5,214-2.9,215.6-4.1z"/>
				<path d="M225.6,154.1c-3.3-3-6.7-5.9-10.1-8.9c-3.4,3-6.8,6-10.3,9.2c0.5-1.2,8.8-10.7,10.3-11.8c1.2,1,9.1,9.8,10.3,11.5
					C225.7,154,225.6,154,225.6,154.1z"/>
				<path d="M105.6,108.5c-3.5,3.1-6.8,6.1-10.2,9.1c-0.1-0.1-0.1-0.1-0.2-0.2c3.3-4,6.8-7.8,10.4-11.7c3.6,3.8,7,7.6,10.3,11.7
					C112.3,114.6,109,111.5,105.6,108.5z"/>
				<path d="M-4.2,218.3c-3.5,3.1-6.9,6.1-10.2,9.1c-0.1-0.1-0.1-0.1-0.2-0.2c3.3-4,6.8-7.8,10.4-11.7c3.6,3.8,7,7.6,10.3,11.7
					C2.4,224.4-0.9,221.4-4.2,218.3z"/>
				<path d="M115.9-29.2c-3.6-2.8-6.9-5.8-10.2-8.9c-3.4,3-6.8,6.1-10.2,9.1c-0.1-0.1-0.1-0.1-0.2-0.2c3.3-4,6.7-7.8,10.4-11.7
					C109.2-37.1,112.6-33.2,115.9-29.2z"/>
				<path d="M-14.6,190.6c3.2-4,6.7-7.9,10.3-11.7c3.6,3.8,7,7.6,10.3,11.7c-3.6-2.7-6.8-5.8-10.3-8.9
					C-7.7,184.7-11,187.8-14.6,190.6z"/>
				<path d="M-4.2-40.7c3.5,3.7,7,7.5,10.2,11.6C2.4-31.9-0.8-35-4.2-38.1c-3.4,3-6.8,6-10.4,9.2C-14.1-30.1-5.8-39.5-4.2-40.7z"/>
				<path d="M215.5,71.8c-3.5,3.1-6.8,6.1-10.2,9.1c-0.1-0.1-0.1-0.1-0.2-0.2c3.3-4,6.8-7.8,10.3-11.6c1.1,0.8,8.5,9,10.3,11.5
					c-1.2-0.8-2.3-1.8-3.4-2.7c-1.2-1-2.3-2-3.5-3.1C217.8,73.9,216.7,72.9,215.5,71.8z"/>
				<path d="M105.6,142.3c3.6,3.9,7.1,7.6,10.3,11.7c-3.6-2.8-6.9-5.8-10.2-8.9c-3.4,3-6.8,6.1-10.2,9.1c-0.1-0.1-0.1-0.1-0.2-0.2
					C98.5,150,102,146.2,105.6,142.3z"/>
				<path d="M5.8,154.1c-3.3-3-6.7-5.9-10.1-9c-3.4,3-6.8,6-10.2,9c-0.1-0.1-0.1-0.1-0.2-0.2c3.3-4,6.8-7.8,10.4-11.6
					c3.6,3.8,7,7.6,10.3,11.6C6,153.9,5.9,154,5.8,154.1z"/>
				<path d="M95.4,80.9c0.8-1.5,8.8-10.6,10.3-11.8c3.5,3.7,7,7.6,10.2,11.6c-3.6-2.7-6.8-5.8-10.2-8.9
					C102.2,74.9,98.8,77.9,95.4,80.9z"/>
				<path d="M215.6,215.6c3.4,3.8,6.8,7.6,10.2,11.5c-0.1,0.1-0.1,0.1-0.2,0.2c-3.5-2.8-6.8-5.9-10.1-8.9c-3.4,3-6.8,6-10.4,9.2
					C205.7,226.3,214,216.8,215.6,215.6z"/>
				<path d="M22.4,195.8c1.6,1.4,3.3,2.8,4.9,4.3c1.6,1.4,3.2,2.9,4.9,4.5c3.4-3,6.6-6.1,10.2-8.8c-3.2,4-6.6,7.8-10.1,11.5
					C31.2,206.4,23,197.2,22.4,195.8z"/>
				<path d="M32.2,60.8c-3.4-3.8-6.7-7.5-10-11.2c0.1-0.1,0.1-0.2,0.1-0.2c0,0,0.1,0,0.1,0c0.1,0,0.1,0.1,0.2,0.1
					c3.2,2.8,6.5,5.6,9.7,8.5C35.6,55,39,52,42.5,49C42.1,50.1,34.4,58.8,32.2,60.8z"/>
				<path d="M142.1,58c3.4-3,6.7-6,10.2-9.1c-0.5,1.2-8.3,10.1-10.3,11.8c-3.3-3.7-6.7-7.5-10.1-11.2c0.1-0.1,0.1-0.2,0.2-0.2
					c0.9,0.6,1.7,1.4,2.5,2.1c0.8,0.7,1.6,1.4,2.5,2.2c0.8,0.8,1.7,1.5,2.5,2.3C140.5,56.5,141.3,57.2,142.1,58z"/>
				<path d="M252,58c3.4-3,6.7-6,10.1-8.9c0.1,0.1,0.1,0.1,0.2,0.2c-3.2,4-6.7,7.7-10.3,11.6c-3.4-3.8-6.8-7.6-10.1-11.3
					c0.1-0.1,0.2-0.2,0.2-0.2C245.5,52,248.7,55.1,252,58z"/>
				<path d="M252,170.7c-3.5-3.8-6.9-7.5-10-11.4c1.8,1.3,3.4,2.7,5.1,4.2c1.6,1.4,3.2,2.9,4.9,4.4c3.4-3,6.7-6,10.1-8.9
					c0.1,0.1,0.1,0.1,0.2,0.2C259,163.1,255.6,166.9,252,170.7z"/>
				<path d="M142.2,170.7c-3.5-3.7-6.9-7.5-10-11.4c3.5,2.6,6.7,5.7,10,8.6c3.4-3,6.7-6,10.1-8.9c0.1,0.1,0.1,0.1,0.2,0.2
					C149.2,163.1,145.7,166.9,142.2,170.7z"/>
				<path d="M32.2,170.7c-3.4-3.8-6.8-7.6-10.1-11.3c0.1-0.1,0.1-0.1,0.2-0.2c1,0.5,1.7,1.4,2.5,2c0.8,0.7,1.6,1.4,2.5,2.2
					c0.8,0.7,1.7,1.5,2.5,2.3c0.8,0.7,1.6,1.5,2.4,2.2c3.4-3,6.7-6,10.1-8.9c0.1,0.1,0.1,0.1,0.2,0.2
					C39.3,163.1,35.8,166.9,32.2,170.7z"/>
				<path d="M242.2,122.5c3.3,2.9,6.6,5.8,9.9,8.7c3.4-3,6.7-5.9,10.2-9.1c-0.5,1.3-8.4,10.2-10.3,11.9c-3.3-3.7-6.7-7.5-10.1-11.2
					C242,122.7,242.1,122.6,242.2,122.5z"/>
				<path d="M142.1,131.3c3.4-3,6.7-6,10.2-9.1c-0.5,1.2-8.3,10.1-10.3,11.8c-3.4-3.7-6.7-7.5-10.1-11.2c0.1-0.1,0.1-0.1,0.2-0.2
					c0.8,0.3,1.4,1,2,1.6c0.7,0.5,1.3,1.1,2,1.7c0.7,0.6,1.4,1.2,2,1.8c0.6,0.6,1.3,1.2,1.9,1.7C140.8,130,141.4,130.6,142.1,131.3z
					"/>
				<path d="M42.6,122.6c-3.4,3.8-6.8,7.6-10.3,11.5c-3.5-3.9-6.8-7.6-10.2-11.4c0.1-0.1,0.1-0.2,0.2-0.2c1.2,0.8,2.2,1.8,3.3,2.7
					c1.1,1,2.3,2,3.4,3c1.1,1,2.2,2,3.3,3c3.4-3,6.7-6,10.1-8.9C42.4,122.4,42.5,122.5,42.6,122.6z"/>
				<path d="M142,97.4c-3.3-3.7-6.7-7.5-10.1-11.2c0.1-0.1,0.1-0.1,0.2-0.2c0.8,0.4,1.4,1,2,1.6c0.7,0.5,1.3,1.1,2,1.7
					c0.7,0.6,1.4,1.2,2,1.8c0.6,0.6,1.3,1.2,1.9,1.7c0.7,0.6,1.3,1.2,2,1.8c3.4-3,6.7-6,10.2-9.1C151.9,86.8,144,95.7,142,97.4z"/>
				<path d="M252,97.4c-3.5-3.7-6.9-7.5-10-11.4c3.5,2.6,6.7,5.7,10,8.6c3.4-3,6.7-6,10.1-8.9c0.1,0.1,0.1,0.1,0.2,0.2
					C259,89.9,255.6,93.6,252,97.4z"/>
				<path d="M22.4-24c1.6,1.4,3.3,2.8,4.9,4.3c1.6,1.4,3.2,2.9,4.9,4.4c3.4-3,6.7-6,10.1-8.9c0.1,0.1,0.1,0.1,0.2,0.2
					c-3.2,4-6.7,7.7-10.2,11.5c-3.5-3.7-6.9-7.5-10.1-11.3C22.2-23.9,22.3-23.9,22.4-24z"/>
				<path d="M142.1-15.2c3.4-3.1,6.6-6.1,10.2-8.8c-3.2,4-6.6,7.8-10.2,11.6c-3.5-3.7-6.9-7.4-10-11.4
					C135.6-21.2,138.8-18.2,142.1-15.2z"/>
				<path d="M252-12.4c-3.4-3.8-6.8-7.6-10.1-11.3c0.1-0.1,0.1-0.1,0.2-0.2c1,0.5,1.7,1.3,2.5,2c0.8,0.7,1.6,1.4,2.5,2.2
					c0.8,0.7,1.7,1.5,2.5,2.3c0.8,0.7,1.6,1.5,2.4,2.2c3.4-3,6.7-6,10.1-8.9c0.1,0.1,0.1,0.1,0.2,0.2C259-20,255.6-16.3,252-12.4z"
					/>
				<path d="M32.3,94.6c3.4-3,6.7-6,10.1-8.9c0.1,0.1,0.1,0.1,0.2,0.2c-3.2,4-6.7,7.7-10.3,11.6c-3.4-3.8-6.8-7.6-10.1-11.3
					c0.1-0.1,0.2-0.2,0.2-0.2C25.8,88.6,29,91.7,32.3,94.6z"/>
				<path d="M242.2,232.4c3.3,2.9,6.5,5.8,9.9,8.7c3.3-3,6.7-5.9,10-8.9c0.1,0.1,0.1,0.1,0.2,0.2c-3.2,3.9-6.7,7.7-10.2,11.5
					c-3.5-3.7-6.9-7.4-10.1-11.3C242,232.5,242.1,232.4,242.2,232.4z"/>
				<path d="M152.5,232.5c-3.4,3.8-6.8,7.6-10.3,11.5c-3.5-3.9-6.8-7.6-10.2-11.4c0.1-0.1,0.2-0.2,0.2-0.2c3.4,2.7,6.6,5.8,9.9,8.7
					c3.4-3,6.7-6,10.1-8.9C152.3,232.3,152.4,232.4,152.5,232.5z"/>
				<path d="M22.3,232.5c3.5,2.7,6.7,5.6,10,8.6c3.3-3,6.6-6.1,10.2-8.8c-3.2,4-6.6,7.8-10.2,11.6C28.8,240.2,25.4,236.5,22.3,232.5
					z"/>
				<path d="M32.3,24.2c-3.5-3.8-6.9-7.5-10-11.4c3.5,2.6,6.7,5.6,10,8.6c3.4-3,6.7-6,10.1-8.9c0.1,0.1,0.1,0.1,0.2,0.2
					C39.3,16.6,35.8,20.4,32.3,24.2z"/>
				<path d="M132.1,12.7c3.5,2.7,6.7,5.7,10,8.6c3.4-3,6.7-6,10.2-9c-0.4,1.1-8,9.8-10.2,11.8C138.7,20.4,135.3,16.7,132.1,12.7z"/>
				<path d="M252,21.4c3.4-3,6.7-6,10.2-9.1c-0.4,1.2-8.2,10.1-10.3,11.8c-3.4-3.7-6.7-7.5-10.1-11.2c0.1-0.1,0.1-0.1,0.2-0.2
					c0.8,0.3,1.4,1,2,1.6c0.7,0.5,1.3,1.1,2,1.7c0.7,0.6,1.4,1.2,2,1.8c0.6,0.6,1.3,1.2,1.9,1.7C250.6,20.1,251.3,20.7,252,21.4z"/>
				<path d="M252,204.5c3.4-3,6.7-6,10.2-9.1c-0.5,1.2-8.3,10.1-10.3,11.8c-3.3-3.7-6.7-7.5-10.1-11.2c0.1-0.1,0.1-0.2,0.2-0.2
					c0.9,0.6,1.7,1.4,2.5,2.1c0.8,0.7,1.6,1.4,2.5,2.2c0.8,0.8,1.7,1.5,2.5,2.3C250.4,203,251.2,203.8,252,204.5z"/>
				<path d="M132.3,195.8c1.7,1.4,3.3,2.9,5,4.4c1.6,1.4,3.2,2.9,4.9,4.4c3.4-3,6.7-6,10.1-8.9c0.1,0.1,0.1,0.1,0.2,0.2
					c-3.2,4-6.7,7.7-10.3,11.6c-3.4-3.8-6.8-7.6-10.1-11.3C132.1,195.9,132.2,195.8,132.3,195.8z"/>
				<path d="M-4.4,243.8c-3.5-3.7-7-7.6-10.2-11.6c3.6,2.8,6.9,5.9,10.3,8.9c3.4-3,6.8-6,10.2-9C5.4,233.4-2.8,242.7-4.4,243.8z"/>
				<path d="M6.1,122.5c-3.4,3.8-6.8,7.7-10.3,11.6c-3.7-3.9-7.1-7.7-10.4-11.7c0.1-0.1,0.1-0.1,0.2-0.2c1.7,1.5,3.4,2.9,5.1,4.4
					c1.7,1.5,3.3,3,5.1,4.6c3.4-3.1,6.7-6.1,10.2-9C6,122.4,6.1,122.4,6.1,122.5z"/>
				<path d="M205.2-24.2c3.5,2.8,6.9,5.9,10.2,9c3.4-3,6.8-6,10.2-9c-0.5,1.3-7.5,9.2-10,11.6C214.6-13.2,206.3-22.4,205.2-24.2z"/>
				<path d="M105.6-15.3c3.4-3,6.8-6,10.1-9c0.1,0.1,0.1,0.1,0.2,0.2c-3.3,4-6.7,7.7-10.3,11.6c-3.6-3.8-7.1-7.7-10.4-11.6
					c0.1-0.1,0.1-0.1,0.2-0.2C98.8-21.3,102.2-18.3,105.6-15.3z"/>
				<path d="M-4.3,167.9c3.5-3.1,6.8-6,10.2-9C5.9,159,6,159,6,159.1c-3.3,4-6.7,7.7-10.3,11.6c-3.6-3.8-7.1-7.7-10.3-11.7
					C-11,161.7-7.7,164.8-4.3,167.9z"/>
				<path d="M215.5,58c3.4-3.1,6.7-6.1,10.3-8.9c-3.2,4-6.6,7.8-10.2,11.7c-3.6-3.8-7.1-7.7-10.3-11.7c1.3,0.8,2.3,1.8,3.4,2.8
					c1.2,1,2.3,2,3.5,3.1C213.2,55.9,214.3,56.9,215.5,58z"/>
				<path d="M105.6,170.7c-3.5-4-7-7.8-10.4-11.6c0.1-0.1,0.1-0.1,0.2-0.2c1.2,0.8,2.3,1.9,3.4,2.8c1.2,1,2.3,2,3.5,3.1
					c1.1,1,2.2,2,3.4,3.1c3.4-3.1,6.7-6.1,10.3-8.9C112.7,163,109.2,166.8,105.6,170.7z"/>
				<path d="M215.5,241.2c3.4-3.1,6.7-6.1,10.3-8.9c-3.2,4-6.6,7.8-10.2,11.7c-3.6-3.8-7.1-7.7-10.3-11.7c1.2,0.8,2.3,1.8,3.4,2.7
					c1.2,1,2.3,2,3.5,3.1C213.2,239,214.3,240,215.5,241.2z"/>
				<path d="M116,232.4c-3.4,3.8-6.8,7.6-10.3,11.6c-3.7-3.8-7.1-7.7-10.4-11.7c1.3,0.8,2.3,1.8,3.5,2.8c1.1,1,2.3,2,3.4,3
					c1.1,1,2.3,2.1,3.4,3.1c3.4-3,6.8-6,10.2-9C115.8,232.2,115.9,232.3,116,232.4z"/>
				<path d="M-14.5-24.3c3.4,3,6.8,6,10.2,9c3.4-3,6.8-6,10.1-9c0.1,0.1,0.1,0.1,0.2,0.2c-3.3,4-6.7,7.7-10.3,11.6
					c-3.6-3.8-7.1-7.7-10.4-11.6C-14.6-24.2-14.5-24.2-14.5-24.3z"/>
				<path d="M6.1,85.9c-3.4,3.8-6.8,7.6-10.3,11.6c-3.7-3.9-7.1-7.7-10.4-11.7c1.2,0.8,2.3,1.8,3.4,2.7c1.2,1,2.3,2,3.5,3.1
					c1.1,1,2.2,2,3.4,3.1c3.4-3,6.8-6,10.2-9C5.9,85.7,6,85.8,6.1,85.9z"/>
				<path d="M95.4,49c1.7,1.5,3.4,2.9,5.1,4.4c1.7,1.5,3.4,3,5.1,4.6c3.4-3,6.8-6,10.2-9c0.1,0.1,0.1,0.1,0.2,0.2
					c-3.3,4-6.7,7.7-10.3,11.6c-3.6-3.8-7.1-7.7-10.4-11.6C95.3,49.1,95.3,49,95.4,49z"/>
				<path d="M6.1,12.6c-3.4,3.8-6.8,7.7-10.3,11.6c-3.7-3.9-7.1-7.7-10.4-11.8c3.6,2.8,6.9,5.9,10.3,8.9c3.4-3,6.8-6,10.1-9
					C5.9,12.5,6,12.5,6.1,12.6z"/>
				<path d="M6.1,49.2c-3.4,3.8-6.8,7.6-10.2,11.4c-1.1-0.6-9.4-9.8-10.5-11.6c3.5,2.8,6.9,5.9,10.2,9c3.4-3,6.8-6,10.2-9
					C5.9,49.1,6,49.2,6.1,49.2z"/>
				<path d="M105.6,21.4c3.5-3.1,6.8-6,10.1-9c0.1,0.1,0.1,0.1,0.2,0.2c-3.3,3.9-6.7,7.7-10.3,11.6c-3.6-3.8-7.1-7.7-10.3-11.7
					C98.9,15.2,102.2,18.3,105.6,21.4z"/>
				<path d="M215.4,134.1c-3.5-4-7-7.8-10.4-11.6c0.1-0.1,0.1-0.1,0.2-0.2c1.2,0.8,2.2,1.9,3.4,2.8c1.2,1,2.3,2,3.5,3.1
					c1.1,1,2.2,2,3.4,3.1c3.4-3.1,6.7-6.1,10.3-8.9C222.6,126.4,219.1,130.2,215.4,134.1z"/>
				<path d="M215.4,24.2c-3.5-4-7-7.8-10.4-11.6c0.1-0.1,0.1-0.1,0.2-0.2c1.2,0.8,2.3,1.9,3.4,2.8c1.2,1,2.3,2,3.5,3.1
					c1.1,1,2.2,2,3.4,3.1c3.4-3.1,6.7-6.1,10.3-8.9C222.5,16.5,219.1,20.3,215.4,24.2z"/>
				<path d="M205.3,195.4c3.4,3,6.7,6,10.2,9c3.4-3,6.8-6,10.1-9c0.1,0.1,0.1,0.1,0.2,0.2c-3.3,4-6.7,7.7-10.3,11.6
					c-3.6-3.8-7.1-7.7-10.4-11.6C205.2,195.6,205.2,195.5,205.3,195.4z"/>
				<path d="M215.5,167.9c3.4-3.1,6.7-6.1,10.3-8.9c-3.2,4-6.6,7.8-10.2,11.7c-3.6-3.8-7.1-7.7-10.3-11.7c1.2,0.8,2.3,1.8,3.4,2.7
					c1.2,1,2.3,2,3.5,3.1C213.2,165.8,214.3,166.8,215.5,167.9z"/>
				<path d="M215.4,94.6c3.4-3,6.8-6,10.2-9c0.1,0.1,0.1,0.1,0.2,0.2c-3.3,3.9-6.7,7.7-10.3,11.6c-3.6-3.8-7.1-7.7-10.3-11.7
					c1.2,0.8,2.3,1.8,3.4,2.7c1.2,1,2.3,2,3.5,3.1C213.1,92.5,214.3,93.5,215.4,94.6z"/>
				<path d="M105.6,134.1c-3.5-4-7-7.8-10.4-11.6c0.1-0.1,0.1-0.1,0.2-0.2c1.2,0.8,2.3,1.9,3.4,2.8c1.2,1,2.3,2,3.5,3.1
					c1.1,1,2.2,2,3.4,3.1c3.4-3.1,6.7-6.1,10.3-8.9C112.7,126.4,109.2,130.2,105.6,134.1z"/>
				<path d="M105.6,204.5c3.5-3.1,6.8-6,10.2-9c0.1,0.1,0.1,0.1,0.2,0.2c-3.3,4-6.7,7.7-10.3,11.6c-3.6-3.8-7.1-7.7-10.3-11.7
					C98.9,198.4,102.2,201.4,105.6,204.5z"/>
				<path d="M-14.5,195.4c3.4,3,6.7,6,10.2,9c3.4-3,6.8-6,10.1-9c0.1,0.1,0.1,0.1,0.2,0.2c-3.3,4-6.7,7.7-10.3,11.6
					c-3.6-3.8-7.1-7.7-10.4-11.6C-14.6,195.6-14.5,195.5-14.5,195.4z"/>
				<path d="M95.4,85.6c3.4,3,6.8,6,10.2,9.1c3.3-3,6.7-6.1,10.2-8.9c-3.2,4-6.7,7.8-10.2,11.7c-3.6-3.8-7.1-7.7-10.4-11.6
					C95.3,85.7,95.3,85.6,95.4,85.6z"/>
				<path d="M236.3,54.6c3.8,3.4,7.6,6.8,11.5,10.3c-3.8,3.6-7.7,7.1-11.7,10.3c2.7-3.5,5.8-6.8,8.8-10.2c-3-3.4-6-6.8-9-10.1
					C236.1,54.7,236.2,54.6,236.3,54.6z"/>
				<path d="M16.5-55.2C20.4-52,24.2-48.5,28-45c-3.8,3.6-7.6,7-11.6,10.2c0.8-1.2,1.8-2.3,2.7-3.4c1-1.1,2-2.3,3-3.4
					c1-1.1,2-2.2,3.1-3.4c-3-3.4-6-6.8-9-10.1C16.3-55.1,16.4-55.2,16.5-55.2z"/>
				<path d="M25.2,248.1c-3-3.4-6-6.8-9-10.1c0.1-0.1,0.1-0.1,0.2-0.2c3.9,3.3,7.7,6.7,11.5,10.2c-0.9,1.2-9,8.5-11.5,10.3
					c0.8-1.2,1.8-2.3,2.7-3.4c1-1.1,2-2.3,3-3.4C23.1,250.4,24.2,249.3,25.2,248.1z"/>
				<path d="M126.2,1.9c2.8-3.5,5.8-6.8,8.9-10.2c-3-3.4-6-6.7-8.9-10.1c1.2,0.4,10,8.2,11.6,10C136.9-7.3,128,0.7,126.2,1.9z"/>
				<path d="M25.2,138.2c-3-3.4-6-6.8-9-10.1c0.1-0.1,0.1-0.1,0.2-0.2c3.9,3.3,7.7,6.7,11.5,10.2c-0.9,1.2-8.9,8.4-11.5,10.3
					c0.8-1.2,1.8-2.3,2.7-3.4c1-1.1,2-2.3,3-3.4C23.1,140.5,24.2,139.4,25.2,138.2z"/>
				<path d="M245,211.4c-3.1-3.4-6.1-6.7-8.9-10.2c4,3.2,7.8,6.6,11.6,10.2c-3.8,3.6-7.6,7-11.6,10.2
					C238.9,218.1,241.9,214.8,245,211.4z"/>
				<path d="M16.3,184.9c3-3.3,5.9-6.7,8.9-10.1c-3-3.3-6.1-6.6-8.9-10.1c0.1-0.1,0.1-0.1,0.2-0.2c3.8,3.4,7.6,6.8,11.5,10.3
					c-3.8,3.6-7.7,7.1-11.6,10.4C16.4,185,16.3,184.9,16.3,184.9z"/>
				<path d="M137.9,211.5c-3.9,3.4-7.7,6.8-11.5,10.2c-0.1-0.1-0.1-0.1-0.2-0.2c2.8-3.5,5.9-6.8,8.9-10.1c-3-3.4-6-6.8-9.1-10.3
					C127.3,201.7,135.9,209.3,137.9,211.5z"/>
				<path d="M126.1,184.9c3-3.4,5.9-6.7,9-10.1c-3-3.3-6.1-6.6-8.8-10.2c4,3.2,7.8,6.6,11.6,10.2c-3.8,3.6-7.6,7-11.5,10.3
					C126.3,185,126.2,184.9,126.1,184.9z"/>
				<path d="M236.3,164.4c3.8,3.4,7.6,6.8,11.5,10.3c-3.9,3.6-7.7,7.1-11.7,10.3c2.7-3.5,5.8-6.8,8.8-10.2c-3-3.4-6-6.8-9-10.1
					C236.1,164.6,236.2,164.5,236.3,164.4z"/>
				<path d="M16.5,201.1c3.8,3.4,7.6,6.8,11.4,10.1c-0.6,1.1-8.5,8.2-11.5,10.4c2.7-3.5,5.8-6.8,8.8-10.2c-3-3.4-6-6.8-9-10.1
					C16.3,201.2,16.4,201.2,16.5,201.1z"/>
				<path d="M16.4,38.5c2.8-3.5,5.8-6.8,8.8-10.2c-3-3.4-6-6.8-9-10.1c0.1-0.1,0.1-0.1,0.2-0.2c4,3.2,7.7,6.7,11.5,10.3
					C24.2,31.9,20.4,35.3,16.4,38.5z"/>
				<path d="M137.9,28.3c-3.9,3.5-7.7,6.9-11.5,10.3c-0.1-0.1-0.1-0.1-0.2-0.2c2.8-3.5,5.9-6.8,8.9-10.1c-3-3.4-6-6.8-9-10.1
					c0.1-0.1,0.1-0.1,0.2-0.2C130.3,21.2,134,24.7,137.9,28.3z"/>
				<path d="M126.4-55.3c3.8,3.4,7.6,6.8,11.4,10.2c-1,1.3-10.1,9.4-11.6,10.3c2.8-3.5,5.8-6.8,8.9-10.1c-3-3.4-6-6.8-9-10.1
					C126.2-55.1,126.3-55.2,126.4-55.3z"/>
				<path d="M16.3,111.6c3-3.3,5.9-6.7,9-10.1c-3-3.3-6.1-6.6-8.8-10.2c4,3.2,7.8,6.6,11.6,10.2c-3.8,3.6-7.6,7-11.5,10.3
					C16.4,111.8,16.3,111.7,16.3,111.6z"/>
				<path d="M126.1,111.6c3-3.3,5.9-6.7,9-10.1c-3-3.3-6.1-6.6-8.8-10.2c4,3.2,7.8,6.6,11.6,10.2c-3.8,3.6-7.6,7-11.5,10.3
					C126.3,111.8,126.2,111.7,126.1,111.6z"/>
				<path d="M245,101.6c-3-3.4-6-6.8-9-10.1c0.1-0.1,0.1-0.1,0.2-0.2c3.9,3.3,7.7,6.7,11.5,10.3c-3.8,3.6-7.6,7-11.6,10.2
					c0.8-1.2,1.8-2.3,2.7-3.4c1-1.1,2-2.3,3-3.4C242.9,103.9,243.9,102.7,245,101.6z"/>
				<path d="M247.7,28.4c-3.8,3.5-7.5,7-11.5,10.2c-0.1-0.1-0.1-0.1-0.2-0.2c1.5-1.7,2.9-3.4,4.4-5.1c1.5-1.7,3-3.3,4.5-5
					c-3-3.4-6-6.7-8.9-10.1C237.3,18.7,246.3,26.6,247.7,28.4z"/>
				<path d="M135.1,138.2c-3-3.4-6-6.8-9-10.1c1.2,0.4,10.1,8.3,11.6,10c-0.8,1.1-9.7,9.1-11.5,10.2
					C129,144.9,132,141.6,135.1,138.2z"/>
				<path d="M247.8-8.4c-3.8,3.6-7.6,7-11.6,10.2c0.8-1.2,1.8-2.3,2.7-3.4c1-1.1,2-2.3,3-3.4c1-1.1,2-2.2,3.1-3.4
					c-3-3.4-6-6.8-9-10.1c0.1-0.1,0.1-0.1,0.2-0.2C240.2-15.4,243.9-11.9,247.8-8.4z"/>
				<path d="M16.5-18.7c3.8,3.4,7.6,6.8,11.5,10.3c-3.8,3.6-7.7,7.1-11.7,10.3c2.8-3.5,5.8-6.8,8.9-10.2c-3.1-3.4-6.1-6.7-8.9-10.1
					C16.4-18.6,16.4-18.6,16.5-18.7z"/>
				<path d="M126.4,237.7c3.8,3.4,7.6,6.8,11.5,10.3c-3.8,3.6-7.7,7.1-11.7,10.3c2.8-3.5,5.8-6.8,8.8-10.2c-3-3.4-6-6.8-8.9-10.1
					C126.2,237.9,126.3,237.8,126.4,237.7z"/>
				<path d="M245,248c-3.1-3.4-6.1-6.7-8.9-10.1c0.1-0.1,0.1-0.1,0.2-0.2c3.8,3.4,7.6,6.8,11.5,10.3c-3.8,3.6-7.7,7.1-11.7,10.3
					C238.9,254.7,241.9,251.4,245,248z"/>
				<path d="M236,148.3c1.5-1.7,2.9-3.4,4.4-5.1c1.5-1.7,3-3.3,4.5-5c-3-3.4-6-6.8-9-10.1c0.1-0.1,0.1-0.1,0.2-0.2
					c3.9,3.3,7.7,6.7,11.6,10.3c-3.9,3.5-7.7,6.9-11.5,10.3C236.2,148.4,236.1,148.4,236,148.3z"/>
				<path d="M236.1-55.2c4,3.2,7.8,6.6,11.6,10.2c-3.8,3.6-7.6,7-11.6,10.2c2.7-3.5,5.8-6.8,8.9-10.2
					C242-48.3,238.9-51.6,236.1-55.2z"/>
				<path d="M25.2,65c-3-3.4-6-6.8-9-10.1c0.1-0.1,0.1-0.1,0.2-0.2c3.9,3.3,7.7,6.7,11.5,10.2c-0.9,1.2-9,8.5-11.5,10.3
					c0.8-1.2,1.8-2.3,2.7-3.4c1-1.1,2-2.3,3-3.4C23.1,67.2,24.2,66.1,25.2,65z"/>
				<path d="M126.4,54.6c3.8,3.4,7.6,6.8,11.5,10.3c-3.9,3.6-7.7,7.1-11.7,10.3c2.8-3.5,5.8-6.8,8.8-10.2c-3-3.4-6-6.8-9-10.1
					C126.2,54.7,126.3,54.6,126.4,54.6z"/>
				<path d="M32.4,215.6c3.4,3.7,6.8,7.4,9.9,11.3c-3.5-2.7-6.7-5.6-10-8.6c-3.4,3-6.7,6-10.2,9.1C22.6,226.1,30.7,216.9,32.4,215.6
					z"/>
				<path d="M152,227.1c-1.7-1.5-3.3-2.9-5-4.3c-1.6-1.4-3.2-2.9-4.9-4.4c-3.3,3-6.6,6.1-10.2,8.8c3.2-4,6.6-7.8,10.1-11.5
					c1.1,0.8,9.1,9.6,10.1,11.3C152.1,227,152.1,227,152,227.1z"/>
				<path d="M252.1,35.2c-3.4,3-6.7,6-10.2,9.1c0.5-1.3,8.6-10.4,10.2-11.7c1.4,1.2,9.3,10.1,10,11.3c-1.8-1.3-3.4-2.8-5-4.2
					C255.3,38.2,253.7,36.7,252.1,35.2z"/>
				<path d="M252,181.7c-3.3,3.1-6.6,6.1-10.1,8.8c3.2-4,6.6-7.8,10.1-11.6c3.5,3.7,6.9,7.4,10,11.4c-1.8-1.2-3.4-2.7-5-4.1
					C255.3,184.7,253.7,183.2,252,181.7z"/>
				<path d="M22,190.4c3.3-3.9,6.7-7.7,10.2-11.4c1.4,1.1,9.3,10.1,10,11.4c-3.5-2.7-6.6-5.7-9.9-8.6c-3.4,3-6.7,5.9-10,8.9
					C22.2,190.5,22.1,190.5,22,190.4z"/>
				<path d="M32.3-4.2c3.5,3.8,6.9,7.5,10.1,11.3c-0.1,0.1-0.1,0.1-0.2,0.2c-1.7-1.4-3.3-2.9-5-4.3c-1.6-1.4-3.2-2.9-4.9-4.4
					c-3.4,3-6.7,6-10.1,8.9c-0.1-0.1-0.1-0.1-0.2-0.2C25.3,3.3,28.7-0.4,32.3-4.2z"/>
				<path d="M142.2-40.8c3.5,3.8,6.9,7.5,10,11.4c-3.5-2.7-6.7-5.7-10-8.6c-3.4,3-6.7,6-10.1,8.9c-0.1-0.1-0.1-0.1-0.2-0.2
					C135.1-33.3,138.6-37,142.2-40.8z"/>
				<path d="M142.2,178.9c3.5,3.8,6.9,7.5,10,11.4c-3.5-2.7-6.7-5.7-10-8.6c-3.4,3-6.7,6-10.1,8.9c-0.1-0.1-0.1-0.1-0.2-0.2
					C135.1,186.5,138.6,182.7,142.2,178.9z"/>
				<path d="M32.3,32.4c3.4,3.8,6.8,7.6,10.1,11.3c-0.1,0.1-0.2,0.2-0.2,0.2c-1.7-1.3-3.3-2.8-5-4.2c-1.7-1.5-3.3-3-5-4.5
					c-3.3,3-6.6,6.1-10.2,8.8C25.3,40,28.7,36.2,32.3,32.4z"/>
				<path d="M142.2-1.4c-3.4,3-6.7,6-10.2,9.1c0.5-1.2,8.5-10.4,10.3-11.8c3.4,3.7,6.8,7.4,9.9,11.3c-1.8-1.2-3.4-2.7-5.1-4.2
					C145.5,1.6,143.9,0.1,142.2-1.4z"/>
				<path d="M32.3-40.8c3.5,3.7,6.9,7.4,10,11.4c-3.5-2.6-6.7-5.6-10-8.6c-3.3,3-6.6,6.1-10.2,8.8C25.3-33.3,28.7-37,32.3-40.8z"/>
				<path d="M42.3,80.4c-3.5-2.7-6.7-5.7-10-8.6c-3.4,3-6.7,6-10.1,8.9c-0.1-0.1-0.1-0.1-0.2-0.2c3.2-3.9,6.7-7.7,10.2-11.5
					C35.8,72.8,39.1,76.5,42.3,80.4z"/>
				<path d="M142.1,32.4c3.5,3.7,6.9,7.4,10,11.4c-3.5-2.6-6.7-5.7-10-8.6c-3.3,3-6.6,6.1-10.1,8.8C135.2,40,138.6,36.2,142.1,32.4z
					"/>
				<path d="M252,215.6c1.3,1.1,9.3,10,10,11.4c-1.8-1.3-3.4-2.8-5-4.2c-1.6-1.4-3.2-2.9-5-4.5c-3.3,3-6.6,6.1-10.2,8.8
					C245,223.1,248.5,219.3,252,215.6z"/>
				<path d="M262,7.2c-3.5-2.7-6.7-5.7-10-8.6c-3.4,3-6.7,6-10.1,8.9c-0.1-0.1-0.1-0.1-0.2-0.2c3.2-3.9,6.7-7.7,10.2-11.5
					C255.5-0.5,258.9,3.2,262,7.2z"/>
				<path d="M262,153.7c-3.5-2.7-6.7-5.6-10-8.6c-3.4,3-6.7,5.9-10.1,8.9c0.4-1.1,7.3-9.1,10.1-11.7
					C255.5,146,258.9,149.7,262,153.7z"/>
				<path d="M252.1,105.7c3.4,3.7,6.8,7.4,9.9,11.3c-3.5-2.6-6.7-5.6-10-8.6c-3.4,3-6.7,5.9-10.2,9
					C242.3,116.3,250.2,107.3,252.1,105.7z"/>
				<path d="M262-29.4c-3.5-2.7-6.7-5.6-10-8.6c-3.4,3-6.7,6-10.1,8.9c-0.1-0.1-0.1-0.1-0.2-0.2c3.2-3.9,6.7-7.7,10.2-11.5
					C255.5-37.1,258.9-33.4,262-29.4z"/>
				<path d="M152,117.2c-3.3-2.9-6.5-5.8-9.8-8.7c-3.3,3-6.7,5.9-10.2,9.1c0.5-1.3,8.6-10.5,10.3-11.8c3.4,3.7,6.8,7.4,10,11.2
					C152.2,117.1,152.1,117.1,152,117.2z"/>
				<path d="M42.1,117.2c-3.3-2.9-6.5-5.8-9.8-8.7c-3.3,3-6.7,5.9-10.2,9c0.5-1.2,8.5-10.4,10.3-11.8c3.4,3.7,6.8,7.4,10,11.2
					C42.3,117.1,42.2,117.1,42.1,117.2z"/>
				<path d="M252,71.8c-3.3,3-6.6,6.1-10.2,8.8c3.2-4,6.6-7.8,10.2-11.6c3.5,3.7,6.9,7.4,10,11.4c-0.9-0.3-1.4-1-2.1-1.5
					c-0.7-0.5-1.3-1.1-2-1.7c-0.7-0.6-1.4-1.2-2-1.8c-0.6-0.6-1.3-1.2-1.9-1.7C253.4,73,252.7,72.4,252,71.8z"/>
				<path d="M142.2,142.2c3.4,3.8,6.8,7.6,10.1,11.3c-0.1,0.1-0.2,0.2-0.2,0.2c-1.7-1.3-3.3-2.8-5-4.2c-1.7-1.5-3.3-3-5-4.5
					c-3.3,3-6.6,6.1-10.1,8.8C135.2,149.8,138.6,146.1,142.2,142.2z"/>
				<path d="M152,80.6c-3.3-2.9-6.6-5.8-9.9-8.8c-3.3,3-6.6,6-10.1,8.8c3.2-4,6.6-7.8,10.2-11.6c3.5,3.7,6.9,7.4,10.1,11.3
					C152.2,80.4,152.1,80.5,152,80.6z"/>
				<path d="M32.3,145.1c-3.4,3-6.7,6-10.2,9c0.4-1.2,8.5-10.3,10.2-11.8c3.4,3.7,6.8,7.4,9.9,11.3C38.8,151.1,35.6,148,32.3,145.1z
					"/>
				<path d="M231,257.9c-3.9-3.1-7.6-6.4-11.3-9.9c3.7-3.5,7.5-6.9,11.4-10.2c0.1,0.1,0.1,0.1,0.2,0.2c-1.4,1.7-2.9,3.3-4.3,5
					c-1.5,1.7-3,3.3-4.5,5C225.5,251.3,228.4,254.5,231,257.9z"/>
				<path d="M11.5,164.7c-2.7,3.5-5.7,6.7-8.7,10c3,3.3,5.9,6.4,8.5,9.9c-3.9-3.1-7.6-6.4-11.3-9.9C3.8,171.3,7.5,167.9,11.5,164.7z
					"/>
				<path d="M222.5,211.4c1.5,1.7,3,3.3,4.4,4.9c1.4,1.6,2.9,3.2,4.1,5c-3.9-3.1-7.6-6.4-11.3-9.9c3.8-3.5,7.5-6.9,11.5-10.1
					C228.5,204.9,225.5,208.1,222.5,211.4z"/>
				<path d="M112.6,211.4c3,3.3,5.9,6.4,8.5,9.9c-3.9-3.1-7.6-6.4-11.3-9.9c3.7-3.5,7.5-6.9,11.4-10.1c0.1,0.1,0.1,0.1,0.2,0.2
					c-1.4,1.7-2.9,3.3-4.3,5C115.7,208.1,114.2,209.7,112.6,211.4z"/>
				<path d="M231.2-55c-2.7,3.5-5.7,6.7-8.7,10c2.9,3.3,5.9,6.4,8.5,9.9c-3.9-3.1-7.6-6.4-11.3-9.9C223.5-48.5,227.3-51.9,231.2-55z
					"/>
				<path d="M121.5-54.9c-2.9,3.3-5.8,6.6-8.8,9.9c2.9,3.2,5.7,6.5,8.8,9.9c-1.1-0.3-8.7-6.9-11.5-9.9c3.7-3.5,7.4-6.9,11.3-10.1
					C121.3-55,121.4-55,121.5-54.9z"/>
				<path d="M11.5-55c-2.7,3.5-5.7,6.7-8.7,10c2.9,3.3,5.9,6.4,8.5,9.9C7.4-38.1,3.8-41.5,0-45C3.7-48.5,7.5-51.9,11.5-55z"/>
				<path d="M11.6,201.5c-2.9,3.3-5.8,6.6-8.8,9.9c2.9,3.2,5.9,6.4,8.5,9.9c-3.9-3.1-7.6-6.4-11.3-9.9c3.8-3.5,7.5-6.9,11.4-10.2
					C11.4,201.4,11.5,201.4,11.6,201.5z"/>
				<path d="M11.6,18.3c-1.4,1.7-2.9,3.3-4.3,5c-1.4,1.6-2.9,3.2-4.5,4.9c2.9,3.3,5.8,6.5,8.8,9.9c-1-0.2-8.3-6.5-11.4-9.8
					c0.6-1,9.1-8.7,11.2-10.2C11.5,18.2,11.5,18.3,11.6,18.3z"/>
				<path d="M112.7,28.3c2.9,3.3,5.8,6.5,8.7,9.8c-1.1-0.3-9.2-7.3-11.4-9.8c3.7-3.5,7.4-6.9,11.4-10
					C118.7,21.7,115.7,24.9,112.7,28.3z"/>
				<path d="M231.4,18.4c-2.9,3.3-5.8,6.6-8.8,9.9c2.9,3.2,5.8,6.5,8.6,9.7c-1.1-0.3-9.4-7.5-11.4-9.8c3.7-3.5,7.4-6.9,11.3-10.1
					C231.2,18.2,231.3,18.3,231.4,18.4z"/>
				<path d="M231.3-18.3c-1.4,1.7-2.9,3.3-4.3,5c-1.4,1.6-2.9,3.2-4.4,4.9c2.9,3.3,5.8,6.5,8.8,9.9c-1.1-0.3-8.4-6.7-11.5-9.9
					c3.7-3.5,7.4-6.9,11.3-10.1C231.2-18.4,231.3-18.4,231.3-18.3z"/>
				<path d="M112.7-8.4c2.9,3.3,5.8,6.5,8.7,9.8c-1.1-0.3-9.3-7.5-11.4-9.8c3.7-3.5,7.4-6.9,11.4-10
					C118.7-14.9,115.7-11.7,112.7-8.4z"/>
				<path d="M2.8-8.3c2.9,3.3,5.9,6.4,8.5,9.9C7.4-1.5,3.8-4.9,0-8.3c3.7-3.5,7.5-6.9,11.5-10.1C8.8-14.9,5.8-11.6,2.8-8.3z"/>
				<path d="M11.2,74.9c-3.8-3.1-7.5-6.5-11.2-10c3.7-3.5,7.5-6.9,11.4-10.1c-0.7,1.2-1.7,2.3-2.6,3.3c-1,1.1-2,2.3-3,3.4
					c-1,1.1-2,2.2-3,3.3c2.9,3.3,5.8,6.5,8.7,9.8C11.4,74.7,11.3,74.8,11.2,74.9z"/>
				<path d="M121.1,74.9c-3.8-3.2-7.5-6.5-11.2-10c3.7-3.5,7.5-6.9,11.4-10.1c-2.7,3.5-5.7,6.7-8.7,10c2.9,3.3,5.8,6.5,8.7,9.8
					C121.2,74.7,121.2,74.8,121.1,74.9z"/>
				<path d="M231.4,55c-2.9,3.3-5.8,6.6-8.8,9.9c2.9,3.2,5.7,6.5,8.7,9.9c-1.1-0.3-8.3-6.6-11.5-9.9c3.7-3.5,7.4-6.9,11.3-10.1
					C231.2,54.8,231.3,54.9,231.4,55z"/>
				<path d="M112.6,101.5c2.9,3.3,5.9,6.4,8.5,9.9c-3.9-3.1-7.6-6.4-11.3-9.9c3.8-3.5,7.5-6.9,11.5-10.1
					C118.6,95,115.6,98.2,112.6,101.5z"/>
				<path d="M222.5,101.5c2.9,3.3,5.8,6.5,8.7,9.8c-1.1-0.3-9.3-7.5-11.4-9.8c3.7-3.5,7.4-6.9,11.4-10
					C228.5,95,225.5,98.2,222.5,101.5z"/>
				<path d="M11.5,91.5c-2.7,3.5-5.7,6.7-8.7,10.1c2.9,3.3,5.9,6.4,8.5,9.9c-3.9-3.1-7.6-6.4-11.3-9.9C3.8,98,7.5,94.6,11.5,91.5z"
					/>
				<path d="M11.1,148.2c-3.7-3.3-7.4-6.6-11.2-10c3.8-3.6,7.5-7,11.5-10.1c-2.7,3.5-5.7,6.7-8.7,10.1c1.5,1.6,2.9,3.2,4.4,4.9
					c1.4,1.6,2.9,3.3,4.3,4.9C11.3,148,11.2,148.1,11.1,148.2z"/>
				<path d="M112.6,138.2c2.9,3.3,5.9,6.4,8.5,9.9c-3.9-3.1-7.6-6.4-11.3-9.9c3.8-3.5,7.5-6.9,11.5-10.1
					C118.6,131.6,115.6,134.9,112.6,138.2z"/>
				<path d="M231,148.1c-3.8-3.1-7.5-6.5-11.2-10c3.7-3.5,7.5-6.9,11.4-10.1c-2.7,3.5-5.7,6.7-8.7,10c2.9,3.3,5.8,6.5,8.7,9.8
					C231.1,148,231,148.1,231,148.1z"/>
				<path d="M230.9,184.8c-3.7-3.3-7.4-6.6-11.2-10c3.8-3.6,7.5-7,11.5-10.1c-1.3,1.8-2.7,3.4-4.2,5.1c-1.5,1.7-3,3.3-4.5,5
					c2.9,3.3,5.8,6.5,8.7,9.8C231.1,184.6,231,184.7,230.9,184.8z"/>
				<path d="M121,184.8c-3.7-3.3-7.4-6.6-11.2-10c3.8-3.6,7.5-7,11.5-10.1c-1.3,1.8-2.7,3.4-4.2,5.1c-1.5,1.7-3,3.3-4.5,5
					c2.9,3.2,5.9,6.4,8.6,9.8C121.2,184.7,121.1,184.7,121,184.8z"/>
				<path d="M0,247.9c3.8-3.4,7.6-6.8,11.3-10.1c0.1,0.1,0.2,0.2,0.2,0.2c-2.8,3.4-5.8,6.6-8.8,9.9c2.9,3.3,5.8,6.5,8.7,9.8
					C10.3,257.5,2.1,250.3,0,247.9z"/>
				<path d="M112.7,248c2.9,3.3,5.8,6.5,8.7,9.8c-1.1-0.2-9-7.2-11.3-9.7c0.7-1.1,9.6-9,11.3-10.1
					C118.7,241.5,115.7,244.7,112.7,248z"/>
				<path d="M105.6,252.1c2.3,2.6,4.5,5,6.9,7.5c-0.9,0.3-1.5,0.2-2-0.4c-1.3-1.3-2.7-2.5-4.1-3.7c-0.2-0.2-0.4-0.4-0.7-0.6
					c-0.2,0.2-0.5,0.4-0.7,0.5c-1.3,1.2-2.7,2.4-4,3.6c-0.8,0.7-0.8,0.7-2.2,0.6C101,257.1,103.2,254.7,105.6,252.1z"/>
				<path d="M2.6,259.7c-0.9,0.3-1.5,0.1-2.1-0.4c-1.5-1.4-3.1-2.8-4.7-4.3c-0.2,0.2-0.5,0.3-0.7,0.5c-1.3,1.2-2.7,2.4-4,3.6
					c-0.8,0.7-0.8,0.7-2.2,0.6c2.2-2.6,4.5-5,6.8-7.6C-1.9,254.6,0.3,257.1,2.6,259.7z"/>
				<path d="M215.5,252.1c2.3,2.6,4.5,5,6.9,7.6c-0.9,0.2-1.5,0.2-2.1-0.4c-1.6-1.5-3.2-2.9-4.8-4.4c-0.3,0.2-0.5,0.4-0.7,0.6
					c-1.4,1.2-2.7,2.5-4.1,3.7c-0.6,0.5-1.2,0.7-2.1,0.5C210.8,257.1,213.1,254.7,215.5,252.1z"/>
				<path d="M32.3,254.9c-1.6,1.5-3.2,2.8-4.7,4.3c-0.6,0.6-1.2,0.9-2.2,0.5c2.2-2.6,4.5-5,6.9-7.5c2.3,2.5,4.5,5,6.8,7.5
					c-1.1,0.4-1.2,0.4-2-0.3C35.5,257.9,33.9,256.4,32.3,254.9z"/>
				<path d="M142.1,254.9c-1.6,1.5-3.2,2.9-4.8,4.3c-0.6,0.5-1.2,0.7-2.1,0.4c2.3-2.5,4.5-5,6.9-7.6c2.3,2.5,4.6,5,6.9,7.6
					c-0.9,0.2-1.5,0.2-2.1-0.4c-1.3-1.2-2.7-2.4-4-3.7C142.7,255.4,142.5,255.2,142.1,254.9z"/>
				<path d="M252.1,252.2c2.2,2.5,4.5,4.9,6.8,7.5c-0.9,0.3-1.5,0.1-2.1-0.4c-1.3-1.2-2.6-2.4-3.9-3.6c-0.3-0.3-0.6-0.5-0.9-0.8
					c-1.6,1.4-3.1,2.8-4.6,4.2c-0.6,0.6-1.2,0.9-2,0.6C245.7,259,250.8,253.3,252.1,252.2z"/>
				<path d="M44.5-8.3c2.1-1.8,4-3.5,6-5.3c2,1.5,3.8,3.2,5.3,5.3c-1.5,2-3.2,3.7-5.3,5.3C48.5-4.8,46.6-6.5,44.5-8.3z M50.5-4
					c1.5-1.5,2.9-2.9,4.3-4.4c-1.4-1.5-2.9-2.9-4.4-4.4c-1.3,1.5-2.6,2.9-3.8,4.4C48-6.8,49.2-5.4,50.5-4z"/>
				<path d="M154.4,101.5c2.1-1.8,4-3.6,6-5.3c2,1.5,3.8,3.2,5.3,5.3c-1.4,2.1-3.2,3.7-5.3,5.3C158.4,105.1,156.4,103.4,154.4,101.5
					z M160.4,105.9c1.5-1.5,2.9-2.9,4.3-4.4c-1.4-1.5-2.9-2.9-4.4-4.4c-1.3,1.5-2.6,2.9-3.8,4.4
					C157.9,103.1,159.1,104.5,160.4,105.9z"/>
				<path d="M264.2,174.8c2.1-1.8,4-3.5,6-5.3c2,1.5,3.8,3.2,5.3,5.3c-1.5,2-3.2,3.7-5.3,5.3C268.3,178.4,266.3,176.6,264.2,174.8z
					 M270.2,179.2c1.5-1.5,2.9-2.9,4.3-4.4c-1.4-1.4-2.9-2.9-4.4-4.4c-1.3,1.5-2.6,2.9-3.8,4.4C267.7,176.3,269,177.8,270.2,179.2z"
					/>
				<path d="M160.3,169.5c2.1,1.6,4.1,3.5,5.3,5.3c-1.4,2-3.2,3.7-5.3,5.3c-2-1.7-3.9-3.5-6-5.3C156.4,173,158.4,171.2,160.3,169.5z
					 M160.3,170.4c-1.2,1.4-2.5,2.9-3.8,4.4c1.3,1.5,2.6,3,3.9,4.4c1.5-1.5,2.9-3,4.3-4.4C163.2,173.3,161.8,171.9,160.3,170.4z"/>
				<path d="M50.5,180.1c-2-1.7-3.9-3.4-6-5.3c2-1.8,3.9-3.5,6-5.3c2,1.5,3.8,3.2,5.3,5.2C54.3,176.8,52.5,178.5,50.5,180.1z
					 M54.8,174.8c-1.4-1.4-2.9-2.9-4.3-4.4c-1.3,1.5-2.5,2.9-3.8,4.4c1.3,1.5,2.6,3,3.9,4.4C52,177.6,53.4,176.2,54.8,174.8z"/>
				<path d="M160.4-13.6c2,1.6,3.8,3.2,5.3,5.3c-1.4,2-3.2,3.7-5.3,5.3c-2-1.7-3.9-3.5-6-5.3C156.4-10.2,158.4-11.9,160.4-13.6z
					 M160.4-4c1.5-1.5,2.9-3,4.3-4.4c-1.5-1.5-2.9-2.9-4.4-4.4c-1.3,1.5-2.6,2.9-3.8,4.4C157.9-6.8,159.1-5.4,160.4-4z"/>
				<path d="M44.5,101.5c2.1-1.8,4-3.5,6-5.3c2,1.5,3.8,3.2,5.3,5.3c-1.4,2.1-3.2,3.7-5.3,5.3C48.5,105.1,46.6,103.4,44.5,101.5z
					 M46.6,101.5c1.3,1.5,2.6,3,3.9,4.4c1.5-1.5,2.9-3,4.3-4.4c-1.4-1.5-2.9-2.9-4.3-4.4C49.2,98.6,47.9,100,46.6,101.5z"/>
				<path d="M264.3-8.4c2.1-1.8,4-3.5,6-5.3c2,1.5,3.8,3.2,5.3,5.3c-1.4,2-3.2,3.7-5.2,5.3C268.2-4.8,266.3-6.5,264.3-8.4z
					 M274.6-8.3c-1.5-1.5-2.9-2.9-4.4-4.4c-1.2,1.4-2.5,2.9-3.8,4.4c1.3,1.5,2.6,3,3.9,4.4C271.7-5.5,273.1-6.9,274.6-8.3z"/>
				<path d="M270.2,242.8c2,1.6,3.8,3.2,5.3,5.3c-1.4,2-3.2,3.7-5.3,5.3c-2-1.7-3.9-3.4-6-5.3C266.3,246.2,268.2,244.5,270.2,242.8z
					 M274.6,248c-1.5-1.5-2.9-2.9-4.4-4.4c-1.3,1.5-2.5,2.9-3.8,4.4c1.3,1.5,2.6,3,3.8,4.4C271.7,250.9,273.1,249.5,274.6,248z"/>
				<path d="M165.6-45c-1.5,2.1-3.3,3.7-5.3,5.3c-2-1.7-3.9-3.4-6-5.3c2-1.8,3.9-3.5,6-5.3C162.4-48.7,164.2-47,165.6-45z M164.7-45
					c-1.4-1.5-2.9-2.9-4.4-4.4c-1.3,1.5-2.6,2.9-3.8,4.4c1.3,1.5,2.6,3,3.8,4.4C161.8-42.1,163.2-43.5,164.7-45z"/>
				<path d="M44.5,64.9c2.1-1.8,4-3.6,6-5.3c2.1,1.5,4,3.5,5.3,5.3c-1.4,2-3.2,3.7-5.3,5.3C48.5,68.5,46.6,66.7,44.5,64.9z
					 M54.8,64.9c-1.4-1.4-2.9-2.9-4.3-4.4c-1.3,1.4-2.5,2.9-3.8,4.4c1.3,1.5,2.6,3,3.9,4.4C52,67.8,53.4,66.3,54.8,64.9z"/>
				<path d="M44.5,211.4c2.1-1.8,4-3.6,6-5.3c2,1.5,3.8,3.2,5.3,5.3c-1.4,2.1-3.2,3.7-5.3,5.3C48.5,215,46.6,213.2,44.5,211.4z
					 M54.8,211.4c-1.5-1.5-2.9-2.9-4.4-4.4c-1.3,1.5-2.6,2.9-3.8,4.4c1.4,1.5,2.6,3,3.8,4.4C51.9,214.3,53.4,212.9,54.8,211.4z"/>
				<path d="M160.4,70.2c-2-1.7-3.9-3.4-6-5.2c2-1.9,4-3.6,6-5.3c2,1.5,3.8,3.2,5.2,5.3C164.2,66.9,162.4,68.6,160.4,70.2z
					 M160.3,69.3c1.5-1.5,2.9-3,4.3-4.4c-1.4-1.4-2.9-2.9-4.3-4.4c-1.3,1.5-2.6,2.9-3.8,4.4C157.8,66.4,159.1,67.9,160.3,69.3z"/>
				<path d="M160.4,216.7c-2-1.7-3.9-3.5-6-5.3c2-1.8,4-3.5,6-5.3c2,1.5,3.8,3.2,5.3,5.2C164.7,212.9,162.7,214.9,160.4,216.7z
					 M164.7,211.4c-1.4-1.5-2.9-2.9-4.4-4.4c-1.3,1.5-2.6,2.9-3.8,4.4c1.3,1.5,2.6,3,3.8,4.4C161.8,214.3,163.2,212.9,164.7,211.4z"
					/>
				<path d="M275.5,64.9c-1.5,2.1-3.2,3.7-5.3,5.3c-2-1.7-3.9-3.4-6-5.3c2-1.8,4-3.5,6-5.3C272.2,61.2,274,62.8,275.5,64.9z
					 M270.2,60.5c-1.3,1.4-2.5,2.9-3.8,4.4c1.3,1.5,2.6,3,3.9,4.4c0.7-0.8,1.4-1.6,2.1-2.4c0.7-0.7,1.5-1.4,2.3-2
					C273.1,63.4,271.7,62,270.2,60.5z"/>
				<path d="M270.2,216.7c-2-1.8-3.9-3.5-6-5.3c2-1.8,4-3.5,6-5.3c2,1.5,3.8,3.2,5.3,5.3C274.1,213.4,272.3,215.1,270.2,216.7z
					 M270.2,207c-1.3,1.5-2.6,2.9-3.8,4.4c1.4,1.5,2.6,3,3.9,4.4c1.5-1.5,2.9-3,4.3-4.4C273.2,210,271.7,208.6,270.2,207z"/>
				<path d="M270.2-50.2C272-49,274-47,275.5-45c-1.4,2-3.2,3.7-5.3,5.3c-2-1.7-3.9-3.5-6-5.3C266.3-46.8,268.3-48.5,270.2-50.2z
					 M266.4-45c1.4,1.5,2.6,3,3.9,4.4c1.5-1.5,2.9-2.9,4.3-4.4c-1.4-1.4-2.9-2.9-4.3-4.4C269-47.9,267.7-46.5,266.4-45z"/>
				<path d="M154.4,248c2.1-1.8,4-3.5,6-5.3c2,1.5,3.8,3.2,5.3,5.3c-1.4,2.1-3.2,3.7-5.3,5.3C158.4,251.6,156.4,249.9,154.4,248z
					 M160.3,243.7c-1.3,1.5-2.6,2.9-3.8,4.4c1.3,1.5,2.6,3,3.8,4.4c1.5-1.5,2.9-2.9,4.3-4.4C163.3,246.6,161.9,245.2,160.3,243.7z"
					/>
				<path d="M55.8,248c-1.5,2.1-3.3,3.7-5.3,5.3c-2-1.7-3.9-3.4-5.9-5.2c2-1.9,4-3.6,6-5.3C52.5,244.3,54.3,246,55.8,248z M46.6,248
					c1.3,1.5,2.6,3,3.9,4.4c1.5-1.5,2.9-2.9,4.3-4.4c-1.4-1.4-2.9-2.9-4.3-4.4C49.2,245.1,48,246.5,46.6,248z"/>
				<path d="M55.8,138.2c-1.5,2.1-3.3,3.7-5.3,5.3c-2-1.7-3.9-3.5-6-5.3c2.1-1.8,4-3.5,6-5.3C52.5,134.4,54.2,136.1,55.8,138.2z
					 M46.6,138.2c1.3,1.5,2.6,3,3.9,4.4c1.5-1.5,2.9-2.9,4.3-4.4c-1.4-1.4-2.9-2.9-4.3-4.4C49.2,135.2,47.9,136.7,46.6,138.2z"/>
				<path d="M270.2,33.6c-2-1.7-3.9-3.5-6-5.3c2.1-1.8,4-3.6,6-5.3c2,1.5,3.8,3.2,5.3,5.3C274.1,30.3,272.3,32,270.2,33.6z
					 M270.2,23.9c-1.3,1.4-2.5,2.9-3.8,4.4c1.3,1.5,2.6,3,3.9,4.4c1.5-1.5,2.9-2.9,4.3-4.4C273.2,26.9,271.7,25.4,270.2,23.9z"/>
				<path d="M160.4,23c2,1.5,3.8,3.2,5.3,5.3c-1.4,2.1-3.2,3.7-5.3,5.3c-2-1.7-3.9-3.5-6-5.3C156.4,26.5,158.4,24.7,160.4,23z
					 M160.4,32.7c1.5-1.5,2.9-3,4.3-4.4c-1.4-1.5-2.9-2.9-4.3-4.4c-1.2,1.4-2.5,2.9-3.8,4.4C157.8,29.8,159.1,31.3,160.4,32.7z"/>
				<path d="M165.6,138.2c-1.5,2.1-3.3,3.7-5.3,5.3c-2-1.7-3.9-3.5-6-5.3c2.1-1.8,4-3.5,6-5.3C162.4,134.4,164.1,136.1,165.6,138.2z
					 M164.7,138.2c-1.5-1.5-2.9-2.9-4.3-4.4c-1.3,1.4-2.5,2.9-3.8,4.4c1.3,1.5,2.6,3,3.9,4.4C161.8,141,163.3,139.6,164.7,138.2z"/>
				<path d="M50.5,33.6c-2-1.8-3.9-3.5-6-5.3c2-1.8,4-3.5,6-5.3c2,1.5,3.8,3.2,5.3,5.3C54.4,30.3,52.5,32,50.5,33.6z M46.6,28.3
					c1.3,1.5,2.6,3,3.9,4.4c1.5-1.5,2.9-3,4.3-4.4c-1.4-1.5-2.9-2.9-4.3-4.4C49.2,25.3,47.9,26.8,46.6,28.3z"/>
				<path d="M275.5,138.2c-1.5,2-3.2,3.7-5.3,5.3c-2-1.7-3.9-3.5-6-5.3c2.1-1.8,4-3.6,6-5.3C272.3,134.4,274.3,136.4,275.5,138.2z
					 M270.2,133.8c-1.3,1.5-2.5,2.9-3.8,4.4c1.3,1.5,2.6,3,3.9,4.4c1.5-1.5,2.9-3,4.3-4.4C273.2,136.7,271.7,135.3,270.2,133.8z"/>
				<path d="M275.5,101.5c-1.1,1.7-3,3.6-5.3,5.3c-1.9-1.7-3.9-3.4-6-5.3c2-1.8,4-3.5,6-5.3C272.3,97.8,274,99.5,275.5,101.5z
					 M274.6,101.5c-1.5-1.5-2.9-2.9-4.4-4.4c-1.2,1.4-2.5,2.9-3.8,4.4c1.3,1.5,2.6,3,3.8,4.4C271.7,104.4,273.1,103,274.6,101.5z"/>
				<path d="M44.5-45c2.1-1.8,4-3.5,6-5.3c2,1.5,3.8,3.2,5.3,5.3c-1.5,2-3.2,3.7-5.3,5.3C48.5-41.4,46.6-43.1,44.5-45z M46.6-45
					c1.3,1.5,2.6,3,3.9,4.4c1.5-1.5,2.9-3,4.3-4.4c-1.4-1.5-2.9-2.9-4.3-4.4C49.2-47.9,47.9-46.5,46.6-45z"/>
				<path d="M197.3,206.1c2,1.7,3.9,3.4,6,5.2c-2,1.9-3.9,3.6-6,5.3c-2-1.5-3.8-3.2-5.3-5.2C193.5,209.4,195.3,207.7,197.3,206.1z
					 M192.9,211.5c0.8,0.7,1.6,1.3,2.3,2c0.7,0.7,1.4,1.5,2.1,2.3c1.3-1.5,2.6-3,3.9-4.4c-1.3-1.5-2.6-2.9-3.8-4.4
					C195.8,208.5,194.4,210,192.9,211.5z"/>
				<path d="M-22.5,253.3c-2.1-1.6-3.8-3.3-5.3-5.3c1.4-2,3.2-3.7,5.3-5.3c2,1.7,3.9,3.5,6,5.3C-18.5,249.8-20.5,251.6-22.5,253.3z
					 M-26.9,248.1c0.8,0.7,1.5,1.3,2.2,2c0.7,0.7,1.4,1.5,2.1,2.4c1.3-1.5,2.6-3,3.9-4.5c-1.3-1.5-2.6-2.9-3.9-4.4
					C-24,245.2-25.4,246.6-26.9,248.1z"/>
				<path d="M93.4,248c-2,1.8-4,3.5-5.9,5.3c-2.1-1.5-3.8-3.2-5.3-5.2c1.4-2,3.2-3.7,5.3-5.3C89.4,244.5,91.3,246.2,93.4,248z
					 M91.3,248c-1.3-1.5-2.6-3-3.9-4.4c-0.7,0.8-1.4,1.6-2.1,2.3c-0.7,0.7-1.5,1.4-2.3,2c1.5,1.5,2.9,2.9,4.4,4.4
					C88.7,251,89.9,249.5,91.3,248z"/>
				<path d="M192,248c1.5-2,3.2-3.7,5.3-5.3c2,1.7,3.9,3.4,6,5.3c-2.1,1.8-4,3.5-6,5.3C195.2,251.8,193.5,250.1,192,248z M201.1,248
					c-1.3-1.5-2.6-2.9-3.9-4.4c-1.5,1.5-2.9,3-4.4,4.4c0.8,0.7,1.6,1.3,2.3,2c0.7,0.7,1.4,1.5,2.1,2.3
					C198.6,251,199.8,249.5,201.1,248z"/>
				<path d="M-22.5-3.1c-2-1.5-3.7-3.2-5.2-5.2c1.5-2,3.2-3.7,5.3-5.3c1.9,1.7,3.9,3.4,5.8,5.1C-17.1-7.7-20.2-4.8-22.5-3.1z
					 M-26.9-8.3c0.8,0.7,1.5,1.3,2.3,2c0.7,0.7,1.4,1.5,2.1,2.4c1.3-1.5,2.6-3,3.9-4.4c-1.3-1.5-2.6-3-3.9-4.4
					C-24-11.2-25.4-9.8-26.9-8.3z"/>
				<path d="M87.4-13.6c2,1.8,3.9,3.5,6,5.3c-2,1.8-4,3.5-6,5.3c-2-1.5-3.8-3.2-5.3-5.3C83.6-10.4,85.4-12.1,87.4-13.6z M87.4-12.7
					c-1.5,1.5-3,3-4.4,4.4c1.5,1.5,2.9,2.9,4.4,4.4c1.3-1.5,2.5-2.9,3.8-4.4C89.9-9.8,88.7-11.3,87.4-12.7z"/>
				<path d="M197.3-3.1c-2.1-1.6-3.8-3.3-5.3-5.3c1.5-2,3.2-3.7,5.3-5.3c2,1.7,3.9,3.5,6,5.3C201.2-6.5,199.3-4.8,197.3-3.1z
					 M192.9-8.3c0.8,0.7,1.6,1.3,2.3,2c0.7,0.7,1.4,1.5,2.1,2.3c1.3-1.5,2.6-3,3.9-4.4c-1.3-1.5-2.6-2.9-3.8-4.4
					C195.8-11.2,194.4-9.8,192.9-8.3z"/>
				<path d="M-16.5,28.3c-2.1,1.8-4,3.5-6,5.3c-2.1-1.5-3.8-3.2-5.3-5.3c1.5-2,3.2-3.7,5.3-5.3C-20.5,24.7-18.6,26.4-16.5,28.3z
					 M-22.5,23.9c-1.5,1.5-2.9,3-4.4,4.4c0.8,0.7,1.6,1.3,2.3,2c0.7,0.7,1.4,1.5,2.1,2.3c1.4-1.5,2.6-3,3.9-4.4
					C-19.9,26.8-21.2,25.3-22.5,23.9z"/>
				<path d="M93.4,28.3c-2.1,1.8-4,3.6-6,5.3c-2.1-1.5-3.8-3.2-5.3-5.3c1.4-2,3.2-3.7,5.3-5.3C89.4,24.7,91.3,26.4,93.4,28.3z
					 M87.4,32.7c1.3-1.5,2.5-2.9,3.8-4.4c-1.3-1.5-2.6-2.9-3.9-4.4c-1.5,1.5-2.9,2.9-4.3,4.4C84.5,29.7,85.9,31.1,87.4,32.7z"/>
				<path d="M203.3,28.3c-2.1,1.8-4,3.6-6,5.3c-2-1.5-3.8-3.2-5.3-5.2c1.4-2,3.2-3.7,5.3-5.3C199.2,24.7,201.2,26.4,203.3,28.3z
					 M192.9,28.4c0.8,0.7,1.5,1.3,2.2,2c0.7,0.7,1.4,1.5,2.1,2.4c1.3-1.5,2.6-3,3.9-4.4c-1.3-1.5-2.6-2.9-3.9-4.4
					C195.8,25.4,194.4,26.8,192.9,28.4z"/>
				<path d="M-16.5,64.9c-2.1,1.8-4,3.5-6,5.3c-2.1-1.5-3.8-3.2-5.3-5.3c1.5-2,3.2-3.7,5.3-5.3C-20.5,61.4-18.6,63.1-16.5,64.9z
					 M-22.5,69.3c1.3-1.5,2.5-2.9,3.8-4.4c-1.3-1.5-2.6-2.9-3.9-4.4c-1.5,1.5-2.9,3-4.4,4.4C-25.4,66.3-24,67.8-22.5,69.3z"/>
				<path d="M82.1,64.9c1.5-2,3.3-3.7,5.3-5.3c2,1.7,3.9,3.4,5.9,5.3c-2,1.9-3.9,3.6-6,5.3C85.4,68.7,83.6,66.9,82.1,64.9z
					 M87.4,60.5c-1.5,1.5-2.9,3-4.4,4.4c1.4,1.4,2.9,2.9,4.4,4.4c1.3-1.5,2.5-2.9,3.8-4.4C89.9,63.4,88.7,62,87.4,60.5z"/>
				<path d="M197.3,59.6c2,1.7,3.9,3.4,5.9,5.2c-2,1.9-3.9,3.6-6,5.3c-2-1.5-3.8-3.2-5.3-5.2C193.5,62.9,195.2,61.2,197.3,59.6z
					 M192.9,65c0.8,0.7,1.5,1.3,2.3,2c0.7,0.7,1.4,1.5,2.1,2.4c1.3-1.5,2.6-3,3.9-4.4c-1.3-1.5-2.6-3-3.9-4.4
					C195.8,62.1,194.4,63.5,192.9,65z"/>
				<path d="M-16.5,101.5c-2.1,1.8-4,3.5-6,5.3c-2.1-1.5-3.8-3.2-5.3-5.3c1.5-2,3.3-3.7,5.3-5.3C-20.5,98-18.6,99.7-16.5,101.5z
					 M-26.9,101.6c0.8,0.7,1.5,1.3,2.3,2c0.7,0.7,1.4,1.5,2.1,2.3c1.3-1.5,2.6-3,3.9-4.4c-1.3-1.5-2.6-2.9-3.8-4.4
					C-23.9,98.6-25.4,100.1-26.9,101.6z"/>
				<path d="M82.1,101.5c1.5-2,3.3-3.7,5.3-5.3c2,1.7,3.9,3.4,5.9,5.2c-1.9,1.9-3.9,3.6-6,5.3C85.3,105.3,83.6,103.5,82.1,101.5z
					 M87.4,105.9c1.3-1.5,2.6-2.9,3.8-4.4c-1.4-1.5-2.6-2.9-3.9-4.4c-0.8,0.9-1.4,1.6-2.1,2.4c-0.7,0.7-1.5,1.4-2.2,2
					C84.5,103,85.9,104.4,87.4,105.9z"/>
				<path d="M203.3,101.5c-2.1,1.9-4,3.6-6,5.3c-2.1-1.5-3.8-3.2-5.3-5.3c1.4-2,3.2-3.7,5.3-5.3C199.2,98,201.2,99.7,203.3,101.5z
					 M192.9,101.5c1.5,1.5,2.9,2.9,4.4,4.4c1.3-1.5,2.6-2.9,3.8-4.4c-1.4-1.5-2.6-3-3.9-4.4C195.8,98.7,194.4,100.1,192.9,101.5z"/>
				<path d="M-16.5-45c-2.1,1.8-4,3.5-6,5.3c-2.1-1.5-3.8-3.2-5.3-5.3c1.5-2,3.2-3.7,5.3-5.3C-20.5-48.5-18.6-46.8-16.5-45z
					 M-26.9-44.9c0.8,0.7,1.5,1.3,2.3,2c0.7,0.7,1.4,1.5,2.1,2.3c1.3-1.5,2.6-3,3.9-4.5c-1.3-1.5-2.6-3-3.9-4.4
					C-24-47.8-25.4-46.4-26.9-44.9z"/>
				<path d="M93.4-45c-2.1,1.8-4,3.5-6,5.3c-2.1-1.5-3.8-3.2-5.3-5.3c1.5-2,3.2-3.7,5.3-5.3C89.4-48.5,91.3-46.8,93.4-45z
					 M87.4-49.3c-1.5,1.5-2.9,3-4.4,4.4c0.8,0.7,1.6,1.3,2.3,2c0.7,0.7,1.4,1.5,2.1,2.3c1.4-1.5,2.6-3,3.9-4.4
					C89.9-46.5,88.7-47.9,87.4-49.3z"/>
				<path d="M203.3-45c-2.1,1.8-4,3.5-6,5.3c-2.1-1.5-3.8-3.2-5.3-5.3c1.5-2,3.3-3.7,5.3-5.3C199.2-48.5,201.2-46.8,203.3-45z
					 M197.3-40.6c1.3-1.5,2.6-2.9,3.8-4.4c-1.3-1.5-2.6-2.9-3.8-4.4c-1.5,1.5-2.9,3-4.4,4.4C194.4-43.5,195.8-42.1,197.3-40.6z"/>
				<path d="M-16.5,138.2c-2.1,1.8-4,3.5-6,5.3c-2.1-1.5-3.8-3.2-5.3-5.3c1.5-2,3.3-3.7,5.3-5.3C-20.5,134.6-18.6,136.3-16.5,138.2z
					 M-22.5,133.7c-0.8,0.9-1.4,1.6-2.1,2.4c-0.7,0.7-1.5,1.4-2.2,2c1.5,1.5,2.9,3,4.4,4.4c1.3-1.5,2.6-2.9,3.8-4.4
					C-20,136.6-21.2,135.2-22.5,133.7z"/>
				<path d="M82.1,138.2c1.5-2,3.3-3.7,5.3-5.3c2,1.7,3.9,3.5,6,5.3c-2,1.8-4,3.5-6,5.3C85.4,142,83.7,140.2,82.1,138.2z
					 M87.4,142.5c1.3-1.5,2.5-2.9,3.8-4.4c-1.3-1.5-2.6-3-3.9-4.4c-1.5,1.5-2.9,3-4.3,4.4C84.5,139.6,85.9,141,87.4,142.5z"/>
				<path d="M197.3,143.4c-2.1-1.6-3.8-3.3-5.3-5.3c1.5-2,3.2-3.7,5.3-5.3c2,1.7,3.9,3.5,6,5.3C201.2,140,199.3,141.7,197.3,143.4z
					 M197.3,142.5c1.3-1.5,2.5-2.9,3.8-4.4c-1.3-1.5-2.6-2.9-3.8-4.4c-1.5,1.5-2.9,3-4.4,4.4C194.4,139.6,195.8,141.1,197.3,142.5z"
					/>
				<path d="M-22.5,169.5c2,1.8,3.9,3.5,6,5.3c-2,1.8-4,3.5-5.9,5.3c-2.1-1.5-3.8-3.2-5.3-5.2C-26.3,172.8-24.5,171.1-22.5,169.5z
					 M-22.5,179.2c1.3-1.5,2.5-2.9,3.8-4.4c-1.3-1.5-2.6-2.9-3.9-4.4c-1.5,1.5-2.9,2.9-4.3,4.4C-25.4,176.2-24,177.6-22.5,179.2z"/>
				<path d="M87.4,169.5c2,1.7,3.9,3.4,5.9,5.2c-2,1.9-3.9,3.6-6,5.3c-2-1.5-3.8-3.2-5.3-5.3C83.6,172.8,85.4,171.1,87.4,169.5z
					 M91.3,174.8c-1.3-1.5-2.6-2.9-3.9-4.4c-1.5,1.5-2.9,3-4.4,4.4c0.8,0.7,1.6,1.3,2.3,2c0.7,0.7,1.4,1.5,2.1,2.3
					C88.7,177.7,89.9,176.3,91.3,174.8z"/>
				<path d="M197.3,169.5c2,1.7,3.9,3.4,5.9,5.3c-2,1.9-3.9,3.6-6,5.3c-2-1.5-3.8-3.2-5.3-5.2C193.5,172.8,195.2,171.1,197.3,169.5z
					 M192.9,174.8c1.5,1.5,2.9,2.9,4.4,4.4c1.3-1.5,2.6-2.9,3.8-4.4c-1.3-1.5-2.6-2.9-3.8-4.4C195.8,171.9,194.4,173.3,192.9,174.8z
					"/>
				<path d="M-22.4,216.7c-1.9-1.3-3.8-3.2-5.3-5.3c1.4-2,3.2-3.7,5.3-5.3c2,1.7,3.9,3.5,6,5.3C-18.5,213.2-20.5,214.9-22.4,216.7z
					 M-22.5,207c-1.5,1.5-2.9,2.9-4.4,4.4c1.4,1.4,2.9,2.9,4.4,4.4c1.3-1.5,2.5-2.9,3.8-4.4C-19.9,209.9-21.2,208.5-22.5,207z"/>
				<path d="M87.4,206.1c2,1.7,3.9,3.4,5.9,5.2c-1.9,1.9-3.9,3.6-5.9,5.3c-2.1-1.5-3.8-3.2-5.3-5.3
					C83.6,209.4,85.4,207.7,87.4,206.1z M91.3,211.4c-1.4-1.5-2.6-3-3.9-4.4c-0.7,0.8-1.4,1.6-2.1,2.3c-0.7,0.7-1.5,1.4-2.3,2
					c1.5,1.5,2.9,2.9,4.4,4.4C88.7,214.4,89.9,212.9,91.3,211.4z"/>
				<path d="M28.5,193.1c1.3-1.5,2.5-2.9,3.8-4.3c1.3,1.5,2.5,2.8,3.8,4.3c-1.2,1.4-2.5,2.8-3.8,4.4C31,196,29.8,194.6,28.5,193.1z
					 M32.3,195.5c1-0.8,1.8-1.6,2.7-2.4c-1-0.9-1.9-1.6-2.7-2.4c-0.9,0.8-1.8,1.6-2.7,2.4C30.5,193.9,31.4,194.7,32.3,195.5z"/>
				<path d="M252,50.9c-1.3-1.5-2.5-2.8-3.8-4.3c1.3-1.4,2.5-2.8,3.8-4.3c1.3,1.4,2.5,2.8,3.8,4.3C254.6,48.1,253.4,49.5,252,50.9z
					 M252.1,49c0.9-0.8,1.8-1.6,2.7-2.4c-1-0.9-1.8-1.6-2.7-2.4c-0.9,0.8-1.8,1.6-2.7,2.4C250.3,47.4,251.1,48.2,252.1,49z"/>
				<path d="M142.2,188.8c1.3,1.5,2.5,2.9,3.8,4.3c-1.3,1.5-2.5,2.9-3.8,4.3c-1.3-1.5-2.5-2.8-3.8-4.3
					C139.6,191.7,140.9,190.3,142.2,188.8z M144.9,193.1c-1-0.9-1.8-1.6-2.7-2.4c-0.9,0.8-1.8,1.6-2.7,2.4c0.9,0.8,1.8,1.6,2.7,2.4
					C143.1,194.7,143.9,194,144.9,193.1z"/>
				<path d="M28.5,83.2c1.3-1.4,2.5-2.8,3.8-4.3c1.3,1.4,2.5,2.8,3.8,4.3c-1.3,1.4-2.5,2.8-3.8,4.3C31,86.1,29.8,84.7,28.5,83.2z
					 M35,83.2c-1-0.9-1.8-1.6-2.7-2.4c-0.9,0.8-1.8,1.6-2.7,2.4c1,0.8,1.8,1.6,2.7,2.4C33.2,84.8,34.1,84.1,35,83.2z"/>
				<path d="M138.4,229.7c1.3-1.5,2.5-2.8,3.8-4.3c1.3,1.5,2.5,2.8,3.8,4.3c-1.3,1.5-2.5,2.9-3.8,4.3
					C140.9,232.6,139.7,231.2,138.4,229.7z M144.9,229.7c-1-0.9-1.9-1.6-2.8-2.4c-0.9,0.9-1.8,1.6-2.7,2.4c1,0.8,1.8,1.6,2.7,2.4
					C143.1,231.3,143.9,230.6,144.9,229.7z"/>
				<path d="M32.3-22.3c-1.3-1.5-2.5-2.8-3.8-4.3c1.3-1.4,2.5-2.8,3.8-4.3c1.3,1.5,2.5,2.9,3.8,4.3C34.8-25.2,33.6-23.8,32.3-22.3z
					 M29.6-26.6c1,0.9,1.8,1.6,2.7,2.4c0.9-0.8,1.8-1.5,2.7-2.4c-1-0.8-1.8-1.6-2.7-2.4C31.4-28.2,30.5-27.5,29.6-26.6z"/>
				<path d="M32.3,42.3c1.3,1.5,2.5,2.9,3.8,4.3c-1.3,1.5-2.5,2.9-3.8,4.3c-1.3-1.5-2.5-2.8-3.8-4.3C29.7,45.2,31,43.8,32.3,42.3z
					 M32.3,49c0.9-0.8,1.8-1.6,2.7-2.4c-1-0.8-1.8-1.6-2.7-2.4c-0.9,0.8-1.8,1.6-2.7,2.4C30.5,47.4,31.4,48.2,32.3,49z"/>
				<path d="M252.1,160.8c-1.3-1.5-2.5-2.9-3.8-4.3c1.3-1.4,2.5-2.8,3.8-4.3c1.3,1.4,2.5,2.8,3.8,4.3
					C254.6,157.9,253.4,159.3,252.1,160.8z M252.1,158.9c0.9-0.8,1.8-1.6,2.7-2.4c-1-0.8-1.8-1.6-2.7-2.4c-0.9,0.8-1.8,1.6-2.7,2.4
					C250.3,157.3,251.2,158.1,252.1,158.9z"/>
				<path d="M252.1,197.4c-1.3-1.5-2.5-2.9-3.8-4.3c1.3-1.4,2.5-2.8,3.8-4.3c1.3,1.4,2.5,2.8,3.8,4.3
					C254.6,194.5,253.4,195.9,252.1,197.4z M252.1,190.7c-0.9,0.8-1.8,1.6-2.7,2.4c1,0.8,1.8,1.6,2.7,2.4c0.9-0.8,1.8-1.6,2.7-2.4
					C253.8,192.3,253,191.5,252.1,190.7z"/>
				<path d="M142.2-31c1.3,1.5,2.5,2.9,3.8,4.3c-1.3,1.5-2.5,2.9-3.8,4.3c-1.3-1.5-2.5-2.8-3.8-4.3C139.6-28.1,140.9-29.5,142.2-31z
					 M139.5-26.6c1,0.8,1.8,1.6,2.7,2.4c0.9-0.8,1.8-1.6,2.7-2.4c-1-0.9-1.8-1.6-2.7-2.4C141.3-28.2,140.4-27.5,139.5-26.6z"/>
				<path d="M248.2,229.7c1.3-1.5,2.5-2.9,3.8-4.3c1.3,1.5,2.5,2.9,3.8,4.3c-1.3,1.5-2.5,2.9-3.8,4.3
					C250.8,232.6,249.5,231.2,248.2,229.7z M252.1,227.3c-0.9,0.8-1.8,1.6-2.7,2.4c1,0.8,1.8,1.6,2.7,2.4c0.9-0.8,1.8-1.6,2.7-2.4
					C253.8,228.9,253,228.2,252.1,227.3z"/>
				<path d="M252.1-31c1.3,1.5,2.5,2.9,3.8,4.3c-1.3,1.5-2.5,2.9-3.8,4.3c-1.3-1.5-2.5-2.8-3.8-4.3C249.5-28.1,250.7-29.5,252.1-31z
					 M252.1-24.3c0.9-0.8,1.8-1.6,2.7-2.4c-1-0.9-1.8-1.6-2.7-2.4c-0.9,0.8-1.8,1.6-2.7,2.4C250.3-25.8,251.1-25.1,252.1-24.3z"/>
				<path d="M142.2,50.9c-1.3-1.5-2.5-2.8-3.8-4.3c1.2-1.4,2.5-2.8,3.8-4.3c1.3,1.5,2.5,2.8,3.8,4.3C144.7,48,143.5,49.4,142.2,50.9
					z M142.2,49c0.9-0.8,1.8-1.6,2.7-2.4c-1-0.9-1.8-1.6-2.7-2.4c-0.9,0.8-1.8,1.6-2.7,2.4C140.4,47.4,141.3,48.2,142.2,49z"/>
				<path d="M32.3,234.1c-1.3-1.5-2.5-2.9-3.8-4.3c1.3-1.4,2.5-2.8,3.8-4.3c1.3,1.5,2.5,2.8,3.8,4.3
					C34.9,231.1,33.6,232.5,32.3,234.1z M29.6,229.7c1,0.8,1.8,1.6,2.7,2.4c0.9-0.8,1.8-1.6,2.7-2.4c-1-0.9-1.9-1.6-2.7-2.4
					C31.4,228.2,30.5,228.9,29.6,229.7z"/>
				<path d="M142.2,152.1c1.3,1.5,2.5,2.9,3.8,4.3c-1.3,1.5-2.5,2.9-3.8,4.3c-1.3-1.5-2.5-2.8-3.8-4.3
					C139.6,155.1,140.8,153.7,142.2,152.1z M144.9,156.5c-1-0.9-1.8-1.6-2.7-2.4c-0.9,0.8-1.8,1.6-2.7,2.4c1,0.9,1.8,1.6,2.7,2.4
					C143.1,158.1,143.9,157.3,144.9,156.5z"/>
				<path d="M255.9,83.2c-1.3,1.5-2.5,2.8-3.8,4.3c-1.3-1.5-2.5-2.9-3.8-4.3c1.3-1.4,2.5-2.8,3.8-4.3
					C253.3,80.4,254.6,81.7,255.9,83.2z M252.1,80.8c-0.9,0.8-1.8,1.6-2.7,2.4c1,0.8,1.8,1.6,2.7,2.4c0.9-0.8,1.8-1.6,2.7-2.4
					C253.8,82.4,253,81.7,252.1,80.8z"/>
				<path d="M28.5,10c1.3-1.5,2.5-2.8,3.8-4.3c1.3,1.5,2.5,2.8,3.8,4.3c-1.3,1.5-2.5,2.9-3.8,4.3C31,12.8,29.8,11.5,28.5,10z M35,10
					c-1-0.9-1.9-1.6-2.7-2.4c-0.9,0.8-1.8,1.6-2.7,2.4c1,0.8,1.8,1.6,2.7,2.4C33.2,11.5,34.1,10.8,35,10z"/>
				<path d="M142.2,78.9c1.3,1.5,2.5,2.9,3.8,4.3c-1.3,1.5-2.5,2.9-3.8,4.3c-1.3-1.5-2.5-2.8-3.8-4.3
					C139.6,81.8,140.9,80.4,142.2,78.9z M142.2,85.6c0.9-0.8,1.8-1.6,2.7-2.4c-0.9-0.8-1.8-1.6-2.7-2.4c-0.9,0.8-1.8,1.6-2.7,2.4
					C140.4,84,141.3,84.8,142.2,85.6z"/>
				<path d="M142.2,14.3c-1.3-1.5-2.5-2.8-3.8-4.3c1.2-1.4,2.5-2.8,3.8-4.3c1.3,1.5,2.5,2.8,3.8,4.3
					C144.7,11.4,143.5,12.8,142.2,14.3z M142.2,12.4c0.9-0.8,1.8-1.6,2.7-2.4c-1-0.9-1.8-1.6-2.7-2.4c-0.9,0.8-1.8,1.6-2.7,2.4
					C140.4,10.8,141.3,11.5,142.2,12.4z"/>
				<path d="M32.3,115.5c1.3,1.5,2.5,2.9,3.8,4.3c-1.3,1.4-2.5,2.8-3.8,4.3c-1.3-1.5-2.5-2.9-3.8-4.3C29.8,118.4,31,117,32.3,115.5z
					 M29.6,119.8c1,0.8,1.8,1.6,2.7,2.4c0.9-0.8,1.8-1.6,2.7-2.4c-1-0.9-1.8-1.6-2.7-2.4C31.4,118.3,30.6,119,29.6,119.8z"/>
				<path d="M252.1,14.3c-1.3-1.5-2.5-2.9-3.8-4.3c1.3-1.4,2.5-2.8,3.8-4.3c1.3,1.5,2.5,2.8,3.8,4.3
					C254.6,11.4,253.4,12.8,252.1,14.3z M254.8,10c-0.9-0.8-1.8-1.6-2.7-2.4c-0.9,0.8-1.8,1.6-2.7,2.4c0.9,0.8,1.8,1.6,2.7,2.4
					C253,11.6,253.8,10.8,254.8,10z"/>
				<path d="M32.3,160.8c-1.3-1.5-2.5-2.9-3.8-4.3c1.3-1.4,2.5-2.8,3.8-4.3c1.3,1.5,2.5,2.8,3.8,4.3
					C34.9,157.9,33.6,159.3,32.3,160.8z M29.6,156.5c0.9,0.8,1.8,1.6,2.7,2.4c0.9-0.8,1.8-1.6,2.7-2.4c-1-0.9-1.8-1.6-2.7-2.4
					C31.4,154.9,30.6,155.6,29.6,156.5z"/>
				<path d="M138.4,119.9c1.3-1.5,2.5-2.9,3.8-4.3c1.3,1.4,2.5,2.8,3.8,4.3c-1.2,1.4-2.5,2.8-3.8,4.3
					C140.9,122.7,139.7,121.3,138.4,119.9z M142.2,122.2c0.9-0.8,1.8-1.6,2.7-2.4c-1-0.8-1.8-1.6-2.7-2.4c-0.9,0.8-1.8,1.6-2.7,2.4
					C140.4,120.7,141.3,121.4,142.2,122.2z"/>
				<path d="M252.1,124.2c-1.3-1.5-2.5-2.9-3.8-4.3c1.3-1.4,2.5-2.8,3.8-4.3c1.3,1.4,2.5,2.8,3.8,4.3
					C254.6,121.3,253.4,122.7,252.1,124.2z M252.1,122.3c0.9-0.8,1.8-1.6,2.7-2.4c-1-0.9-1.8-1.6-2.7-2.4c-0.9,0.8-1.8,1.6-2.7,2.4
					C250.3,120.7,251.1,121.4,252.1,122.3z"/>
				<path d="M-4.3,197.4c-1.3-1.5-2.5-2.8-3.8-4.3c1.3-1.4,2.5-2.8,3.8-4.3c1.3,1.5,2.5,2.9,3.8,4.3C-1.8,194.6-3,196-4.3,197.4z
					 M-1.6,193.1c-1-0.9-1.8-1.6-2.7-2.4c-0.9,0.8-1.8,1.6-2.7,2.4c0.9,0.8,1.8,1.6,2.7,2.4C-3.4,194.7-2.6,194-1.6,193.1z"/>
				<path d="M-4.3,78.9c1.3,1.5,2.5,2.9,3.8,4.3c-1.3,1.4-2.5,2.8-3.8,4.3c-1.3-1.5-2.5-2.9-3.8-4.3C-6.8,81.8-5.6,80.4-4.3,78.9z
					 M-1.6,83.2c-1-0.9-1.8-1.6-2.7-2.4c-0.9,0.8-1.8,1.6-2.7,2.4c1,0.8,1.8,1.6,2.7,2.4C-3.4,84.8-2.5,84.1-1.6,83.2z"/>
				<path d="M211.6,83.2c1.3-1.5,2.5-2.9,3.8-4.3c1.3,1.4,2.5,2.8,3.8,4.3c-1.2,1.5-2.5,2.9-3.8,4.3
					C214.1,86.1,212.9,84.7,211.6,83.2z M215.5,80.8c-0.9,0.8-1.8,1.6-2.7,2.4c0.9,0.8,1.8,1.6,2.7,2.4c0.9-0.8,1.8-1.6,2.7-2.4
					C217.2,82.4,216.4,81.6,215.5,80.8z"/>
				<path d="M101.8,229.7c1.3-1.4,2.5-2.8,3.8-4.3c1.3,1.4,2.5,2.8,3.8,4.3c-1.3,1.4-2.5,2.8-3.8,4.3
					C104.3,232.6,103.1,231.2,101.8,229.7z M102.8,229.7c1,0.8,1.8,1.6,2.7,2.4c0.9-0.8,1.8-1.6,2.7-2.4c-1-0.9-1.8-1.6-2.7-2.4
					C104.7,228.1,103.8,228.9,102.8,229.7z"/>
				<path d="M215.5,188.8c1.3,1.5,2.5,2.8,3.8,4.3c-1.3,1.4-2.5,2.8-3.8,4.3c-1.3-1.5-2.5-2.9-3.8-4.3
					C212.9,191.7,214.1,190.3,215.5,188.8z M215.5,195.5c0.9-0.8,1.8-1.6,2.7-2.4c-0.9-0.8-1.8-1.6-2.7-2.4
					c-0.9,0.8-1.8,1.6-2.7,2.4C213.7,193.9,214.5,194.7,215.5,195.5z"/>
				<path d="M-4.3,42.3c1.3,1.5,2.5,2.9,3.8,4.3C-1.8,48-3,49.4-4.3,50.9c-1.3-1.5-2.5-2.8-3.8-4.3C-6.9,45.2-5.6,43.8-4.3,42.3z
					 M-7,46.6c1,0.9,1.9,1.6,2.7,2.4c0.9-0.9,1.9-1.5,2.7-2.4c-1-0.8-1.8-1.6-2.7-2.3C-5.3,45-6.1,45.8-7,46.6z"/>
				<path d="M-8.1,229.7c1.3-1.5,2.5-2.8,3.8-4.3c1.3,1.5,2.5,2.9,3.8,4.3c-1.3,1.5-2.5,2.9-3.8,4.3C-5.6,232.6-6.8,231.2-8.1,229.7
					z M-4.3,227.3c-0.9,0.8-1.8,1.6-2.7,2.4c1,0.9,1.9,1.6,2.8,2.4c0.9-0.9,1.9-1.5,2.7-2.4C-2.6,228.9-3.4,228.1-4.3,227.3z"/>
				<path d="M-4.3,14.3c-1.3-1.5-2.5-2.9-3.8-4.3c1.3-1.4,2.5-2.8,3.8-4.3C-3,7.1-1.8,8.5-0.5,10C-1.8,11.4-3,12.8-4.3,14.3z
					 M-4.3,12.4c0.9-0.8,1.8-1.6,2.7-2.4c-1-0.8-1.8-1.6-2.7-2.4C-5.2,8.4-6.1,9.1-7,10C-6.1,10.8-5.2,11.6-4.3,12.4z"/>
				<path d="M215.4,42.3c1.3,1.5,2.5,2.9,3.8,4.3c-1.3,1.5-2.5,2.8-3.8,4.3c-1.3-1.5-2.5-2.8-3.8-4.3
					C212.9,45.2,214.1,43.8,215.4,42.3z M218.2,46.6c-0.9-0.8-1.8-1.6-2.7-2.4c-0.9,0.8-1.8,1.6-2.7,2.4c0.9,0.8,1.8,1.6,2.7,2.4
					C216.4,48.2,217.2,47.4,218.2,46.6z"/>
				<path d="M105.6,50.9c-1.3-1.5-2.5-2.8-3.8-4.3c1.3-1.4,2.5-2.8,3.8-4.3c1.3,1.5,2.5,2.8,3.8,4.3
					C108.1,48.1,106.9,49.4,105.6,50.9z M102.9,46.6c1,0.9,1.8,1.7,2.7,2.4c0.9-0.8,1.8-1.6,2.7-2.4c-1-0.8-1.8-1.6-2.7-2.4
					C104.7,45,103.8,45.7,102.9,46.6z"/>
				<path d="M219.3,229.7c-1.3,1.5-2.5,2.9-3.8,4.3c-1.3-1.5-2.5-2.8-3.8-4.3c1.3-1.4,2.5-2.8,3.8-4.3
					C216.7,226.9,218,228.3,219.3,229.7z M215.5,227.3c-0.9,0.8-1.8,1.6-2.7,2.4c0.9,0.8,1.8,1.6,2.7,2.4c0.9-0.8,1.8-1.6,2.7-2.4
					C217.2,228.9,216.4,228.1,215.5,227.3z"/>
				<path d="M211.6,156.5c1.3-1.5,2.5-2.8,3.8-4.3c1.3,1.4,2.5,2.8,3.8,4.3c-1.3,1.5-2.5,2.8-3.8,4.3
					C214.2,159.3,213,158,211.6,156.5z M218.2,156.5c-0.9-0.8-1.8-1.6-2.7-2.4c-0.9,0.8-1.8,1.6-2.7,2.4c0.9,0.8,1.8,1.6,2.7,2.4
					C216.4,158.1,217.2,157.3,218.2,156.5z"/>
				<path d="M109.4,156.5c-1.3,1.5-2.5,2.8-3.8,4.3c-1.3-1.5-2.5-2.9-3.8-4.3c1.3-1.4,2.5-2.8,3.7-4.2c0.8,0.5,1.3,1.3,2,2
					C108.1,154.9,108.7,155.7,109.4,156.5z M105.6,158.9c0.9-0.8,1.8-1.6,2.7-2.4c-1-0.9-1.9-1.6-2.7-2.4c-1,0.9-1.8,1.6-2.7,2.4
					C103.8,157.3,104.6,158.1,105.6,158.9z"/>
				<path d="M105.6,5.6c1.3,1.5,2.5,2.9,3.8,4.3c-1.3,1.5-2.5,2.8-3.8,4.3c-1.3-1.5-2.5-2.8-3.8-4.3C103,8.6,104.2,7.2,105.6,5.6z
					 M108.3,10c-1-0.8-1.8-1.6-2.7-2.4c-0.9,0.8-1.8,1.6-2.7,2.4c0.9,0.8,1.8,1.6,2.7,2.4C106.5,11.6,107.3,10.8,108.3,10z"/>
				<path d="M215.4,5.6c1.3,1.5,2.5,2.9,3.8,4.3c-1.3,1.5-2.5,2.8-3.8,4.3c-1.3-1.5-2.5-2.8-3.8-4.3C212.9,8.6,214.1,7.2,215.4,5.6z
					 M218.2,10c-1-0.8-1.8-1.6-2.7-2.4c-0.9,0.8-1.8,1.6-2.7,2.4c0.9,0.8,1.8,1.6,2.7,2.4C216.4,11.6,217.2,10.8,218.2,10z"/>
				<path d="M-8.1,156.5c1.3-1.4,2.5-2.8,3.8-4.3c1.3,1.4,2.5,2.8,3.8,4.3c-1.3,1.4-2.5,2.8-3.8,4.3C-5.6,159.3-6.8,157.9-8.1,156.5
					z M-4.3,158.9c0.9-0.8,1.8-1.6,2.7-2.4c-1-0.9-1.8-1.6-2.7-2.4c-0.9,0.8-1.8,1.6-2.7,2.4C-6.1,157.3-5.2,158.1-4.3,158.9z"/>
				<path d="M215.5,124.2c-1.3-1.5-2.5-2.9-3.8-4.3c1.2-1.4,2.5-2.8,3.8-4.3c1.3,1.5,2.5,2.8,3.8,4.3
					C218,121.3,216.8,122.7,215.5,124.2z M215.4,117.4c-1,0.9-1.8,1.6-2.7,2.4c1,0.8,1.8,1.6,2.7,2.4c0.9-0.8,1.8-1.6,2.7-2.4
					C217.2,119,216.4,118.3,215.4,117.4z"/>
				<path d="M101.8,193.1c1.3-1.5,2.5-2.8,3.8-4.3c1.3,1.5,2.5,2.8,3.8,4.3c-1.3,1.5-2.5,2.9-3.8,4.3
					C104.3,196,103.1,194.6,101.8,193.1z M105.6,190.7c-0.9,0.8-1.8,1.6-2.7,2.4c1,0.8,1.8,1.6,2.7,2.4c0.9-0.8,1.8-1.5,2.7-2.4
					C107.3,192.2,106.5,191.5,105.6,190.7z"/>
				<path d="M-4.3-22.3c-1.3-1.5-2.5-2.9-3.8-4.3c1.3-1.4,2.5-2.8,3.8-4.3c1.3,1.5,2.5,2.8,3.8,4.3C-1.7-25.2-3-23.8-4.3-22.3z
					 M-1.6-26.6c-1-0.9-1.8-1.6-2.7-2.4c-0.9,0.8-1.8,1.6-2.7,2.4c0.9,0.8,1.8,1.6,2.7,2.4C-3.4-25.1-2.6-25.8-1.6-26.6z"/>
				<path d="M219.3-26.7c-1.3,1.5-2.5,2.9-3.8,4.3c-1.3-1.5-2.5-2.9-3.8-4.3c1.3-1.4,2.5-2.8,3.8-4.3
					C216.7-29.5,218-28.1,219.3-26.7z M218.2-26.7c-1-0.9-1.9-1.6-2.8-2.4c-0.9,0.9-1.8,1.6-2.7,2.4c1,0.8,1.8,1.6,2.7,2.4
					C216.4-25.1,217.2-25.8,218.2-26.7z"/>
				<path d="M105.6,115.5c1.3,1.5,2.5,2.9,3.8,4.3c-1.3,1.5-2.5,2.9-3.8,4.3c-1.3-1.5-2.5-2.8-3.8-4.3
					C103,118.4,104.2,117,105.6,115.5z M105.6,122.2c0.9-0.8,1.8-1.6,2.7-2.4c-1-0.8-1.8-1.6-2.7-2.4c-0.9,0.8-1.8,1.6-2.7,2.4
					C103.8,120.7,104.6,121.4,105.6,122.2z"/>
				<path d="M-4.3,115.5c1.3,1.5,2.5,2.9,3.8,4.3c-1.3,1.5-2.5,2.9-3.8,4.3c-1.3-1.5-2.5-2.8-3.8-4.3C-6.9,118.4-5.6,117-4.3,115.5z
					 M-4.3,117.5c-0.9,0.8-1.8,1.6-2.7,2.4c0.9,0.8,1.8,1.6,2.7,2.4c0.9-0.8,1.8-1.6,2.7-2.4C-2.5,119-3.4,118.3-4.3,117.5z"/>
				<path d="M109.4,83.2c-1.3,1.5-2.5,2.8-3.8,4.3c-1.3-1.5-2.5-2.9-3.8-4.3c1.3-1.4,2.5-2.8,3.8-4.3
					C106.9,80.4,108.1,81.7,109.4,83.2z M108.3,83.2c-1-0.9-1.8-1.6-2.7-2.4c-0.9,0.8-1.8,1.6-2.7,2.4c1,0.8,1.8,1.6,2.7,2.4
					C106.5,84.8,107.3,84.1,108.3,83.2z"/>
				<path d="M105.6-22.3c-1.3-1.5-2.5-2.8-3.8-4.3c1.2-1.4,2.5-2.8,3.8-4.3c1.3,1.5,2.5,2.8,3.8,4.3
					C108.1-25.2,106.9-23.8,105.6-22.3z M105.6-24.3c0.9-0.8,1.8-1.6,2.7-2.4c-1-0.9-1.9-1.6-2.7-2.4c-1,0.9-1.8,1.6-2.7,2.4
					C103.8-25.8,104.6-25.1,105.6-24.3z"/>
				<path d="M233.8,105.2c-1.4-1.2-2.7-2.4-4.1-3.6c1.4-1.2,2.7-2.4,4.1-3.6c1.4,1.2,2.7,2.4,4.1,3.6
					C236.5,102.8,235.1,103.9,233.8,105.2z M233.8,104c0.8-0.9,1.5-1.7,2.2-2.5c-0.8-0.9-1.4-1.6-2.2-2.5c-0.8,0.9-1.4,1.7-2.2,2.5
					C232.3,102.4,233,103.2,233.8,104z"/>
				<path d="M123.9,97.9c1.4,1.2,2.7,2.4,4.1,3.6c-1.4,1.2-2.7,2.4-4.1,3.6c-1.4-1.2-2.7-2.4-4.1-3.6
					C121.2,100.3,122.5,99.1,123.9,97.9z M123.9,104c0.8-0.9,1.5-1.7,2.2-2.5c-0.8-0.9-1.5-1.6-2.2-2.5c-0.8,0.9-1.5,1.7-2.2,2.5
					C122.4,102.4,123.1,103.2,123.9,104z"/>
				<path d="M18.1,174.8c-1.5,1.3-2.7,2.4-4.1,3.6c-1.4-1.2-2.7-2.4-4.1-3.6c1.4-1.2,2.7-2.4,4.1-3.6
					C15.4,172.4,16.7,173.5,18.1,174.8z M11.8,174.8c0.7,0.8,1.4,1.6,2.2,2.5c0.8-0.9,1.5-1.7,2.2-2.5c-0.8-0.9-1.5-1.7-2.2-2.5
					C13.2,173.2,12.6,173.9,11.8,174.8z"/>
				<path d="M18.1,101.5c-1.4,1.3-2.7,2.4-4.1,3.6c-1.4-1.2-2.7-2.4-4.1-3.6c1.4-1.2,2.7-2.4,4.1-3.6
					C15.4,99.1,16.7,100.3,18.1,101.5z M11.8,101.5c0.8,0.9,1.5,1.6,2.2,2.5c0.8-0.9,1.4-1.7,2.2-2.5c-0.8-0.8-1.4-1.7-2.3-2.4
					C13.2,99.9,12.6,100.7,11.8,101.5z"/>
				<path d="M119.8-45c1.4-1.2,2.7-2.4,4.1-3.6c1.3,1.2,2.7,2.3,4.1,3.6c-1.3,1.3-2.7,2.4-4.1,3.6C122.5-42.5,121.2-43.7,119.8-45z
					 M123.9-47.5c-0.8,0.9-1.5,1.7-2.2,2.5c0.8,0.9,1.4,1.6,2.2,2.5c0.8-0.9,1.4-1.6,2.2-2.5C125.3-45.8,124.6-46.6,123.9-47.5z"/>
				<path d="M229.7-45c1.4-1.2,2.7-2.4,4.1-3.6c1.3,1.2,2.7,2.3,4.1,3.6c-1.3,1.3-2.7,2.4-4.1,3.6C232.4-42.5,231.1-43.7,229.7-45z
					 M233.8-47.5c-0.8,0.9-1.5,1.7-2.2,2.5c0.7,0.8,1.4,1.6,2.2,2.5c0.8-0.9,1.5-1.7,2.2-2.5C235.2-45.8,234.5-46.6,233.8-47.5z"/>
				<path d="M14,68.5c-1.4-1.2-2.7-2.4-4.1-3.6c1.4-1.2,2.7-2.4,4.1-3.6c1.4,1.2,2.7,2.4,4.1,3.6C16.7,66.2,15.4,67.3,14,68.5z
					 M14,67.4c0.8-0.9,1.5-1.7,2.2-2.5c-0.7-0.9-1.4-1.7-2.2-2.5c-0.8,0.9-1.4,1.7-2.1,2.5C12.6,65.8,13.2,66.5,14,67.4z"/>
				<path d="M123.9,61.3c1.4,1.2,2.7,2.4,4.1,3.6c-1.4,1.2-2.7,2.4-4.1,3.6c-1.4-1.2-2.7-2.4-4.1-3.6
					C121.2,63.7,122.5,62.5,123.9,61.3z M123.9,67.4c0.8-0.9,1.5-1.7,2.2-2.5c-0.8-0.9-1.5-1.7-2.2-2.5c-0.8,0.9-1.5,1.7-2.2,2.5
					C122.4,65.8,123.1,66.5,123.9,67.4z"/>
				<path d="M229.7,28.3c1.4-1.2,2.7-2.4,4.1-3.6c1.4,1.2,2.7,2.4,4.1,3.6c-1.4,1.3-2.7,2.4-4.1,3.6
					C232.4,30.7,231.1,29.5,229.7,28.3z M235.9,28.3c-0.8-0.9-1.4-1.6-2.2-2.5c-0.8,0.9-1.5,1.7-2.2,2.5c0.8,0.9,1.5,1.6,2.2,2.5
					C234.5,29.9,235.2,29.2,235.9,28.3z"/>
				<path d="M18.1-45c-1.4,1.3-2.7,2.4-4.1,3.6c-1.4-1.2-2.7-2.4-4.1-3.6c1.4-1.2,2.7-2.4,4.1-3.6C15.3-47.4,16.7-46.2,18.1-45z
					 M16.2-45c-0.8-0.9-1.4-1.6-2.2-2.5c-0.8,0.9-1.5,1.7-2.2,2.5c0.8,0.9,1.5,1.6,2.2,2.5C14.8-43.3,15.4-44.1,16.2-45z"/>
				<path d="M123.9,31.9c-1.4-1.2-2.7-2.4-4.1-3.6c1.4-1.2,2.7-2.4,4.1-3.6c1.4,1.2,2.7,2.3,4.1,3.6
					C126.6,29.5,125.3,30.7,123.9,31.9z M126.1,28.3c-0.7-0.8-1.4-1.6-2.2-2.5c-0.8,0.9-1.5,1.7-2.2,2.5c0.8,0.9,1.4,1.6,2.2,2.5
					C124.6,30,125.3,29.2,126.1,28.3z"/>
				<path d="M14,24.7c1.4,1.2,2.7,2.4,4.1,3.6c-1.4,1.3-2.7,2.4-4.1,3.6c-1.4-1.2-2.7-2.4-4.1-3.6C11.3,27,12.6,25.9,14,24.7z
					 M11.8,28.3c0.8,0.9,1.4,1.6,2.2,2.5c0.8-0.9,1.5-1.7,2.2-2.5c-0.8-0.9-1.5-1.7-2.2-2.5C13.2,26.7,12.6,27.4,11.8,28.3z"/>
				<path d="M233.8,68.5c-1.4-1.2-2.7-2.4-4.1-3.6c1.4-1.2,2.7-2.4,4.1-3.6c1.4,1.2,2.7,2.4,4.1,3.6
					C236.4,66.2,235.1,67.3,233.8,68.5z M231.6,64.9c0.8,0.9,1.4,1.6,2.2,2.5c0.7-0.8,1.4-1.6,2.2-2.5c-0.8-0.9-1.4-1.6-2.2-2.5
					C233,63.3,232.3,64.1,231.6,64.9z"/>
				<path d="M233.8,134.5c1.4,1.2,2.7,2.4,4.1,3.6c-1.4,1.3-2.7,2.4-4.1,3.6c-1.4-1.2-2.7-2.4-4.1-3.6
					C231.1,136.9,232.4,135.8,233.8,134.5z M231.6,138.2c0.8,0.9,1.4,1.6,2.2,2.5c0.8-0.9,1.5-1.7,2.2-2.5c-0.8-0.9-1.5-1.7-2.2-2.5
					C233,136.5,232.3,137.3,231.6,138.2z"/>
				<path d="M128,138.2c-1.4,1.3-2.7,2.4-4.1,3.6c-1.4-1.2-2.7-2.3-4.1-3.6c1.4-1.2,2.7-2.4,4.1-3.6
					C125.2,135.7,126.5,136.9,128,138.2z M123.9,135.7c-0.8,0.9-1.5,1.7-2.2,2.5c0.7,0.8,1.4,1.6,2.2,2.5c0.8-0.9,1.5-1.7,2.2-2.5
					C125.3,137.3,124.7,136.6,123.9,135.7z"/>
				<path d="M14,141.8c-1.4-1.2-2.7-2.4-4.1-3.6c1.4-1.2,2.7-2.4,4.1-3.6c1.4,1.2,2.7,2.4,4.1,3.6C16.7,139.4,15.4,140.6,14,141.8z
					 M16.2,138.2c-0.7-0.9-1.4-1.7-2.2-2.5c-0.8,0.9-1.4,1.7-2.1,2.5c0.8,0.9,1.4,1.6,2.2,2.5C14.8,139.8,15.5,139,16.2,138.2z"/>
				<path d="M237.9,248c-1.4,1.3-2.7,2.4-4.1,3.6c-1.4-1.2-2.7-2.3-3.9-3.5c0.4-0.7,2.8-2.9,4-3.7
					C235.1,245.6,236.4,246.8,237.9,248z M233.8,245.5c-0.8,0.9-1.5,1.7-2.2,2.5c0.7,0.8,1.4,1.6,2.2,2.5c0.8-0.9,1.5-1.7,2.2-2.5
					C235.2,247.2,234.5,246.4,233.8,245.5z"/>
				<path d="M9.9,211.4c1.4-1.3,2.7-2.4,4.1-3.6c1.4,1.2,2.7,2.4,4.1,3.6c-1.4,1.2-2.7,2.4-4.1,3.6C12.6,213.8,11.3,212.7,9.9,211.4
					z M13.9,209c-0.7,0.8-1.4,1.6-2.1,2.4c0.7,0.8,1.4,1.6,2.2,2.5c0.8-0.9,1.5-1.7,2.2-2.5c-0.7-0.8-1.3-1.4-1.9-2.1
					C14.2,209.2,14.1,209.1,13.9,209z"/>
				<path d="M123.9,207.8c1.4,1.2,2.7,2.4,4.1,3.6c-1.4,1.3-2.7,2.5-4.1,3.6c-1.4-1.2-2.7-2.3-4.1-3.6
					C121.1,210.2,122.5,209.1,123.9,207.8z M126.1,211.4c-0.7-0.8-1.4-1.6-2.2-2.5c-0.8,0.9-1.5,1.7-2.2,2.5
					c0.8,0.9,1.4,1.6,2.2,2.5C124.6,213.1,125.3,212.3,126.1,211.4z"/>
				<path d="M237.9,211.4c-1.4,1.2-2.7,2.4-4.1,3.6c-1.4-1.2-2.7-2.4-4.1-3.6c1.4-1.2,2.7-2.4,4.1-3.6
					C235.1,209,236.4,210.2,237.9,211.4z M233.8,208.9c-0.8,0.9-1.5,1.7-2.2,2.5c0.7,0.8,1.4,1.6,2.2,2.5c0.8-0.9,1.5-1.7,2.2-2.5
					C235.2,210.6,234.5,209.8,233.8,208.9z"/>
				<path d="M237.9,174.8c-1.5,1.3-2.7,2.4-4.1,3.6c-1.4-1.2-2.7-2.4-4.1-3.6c1.4-1.2,2.7-2.4,4.1-3.6
					C235.1,172.4,236.4,173.5,237.9,174.8z M236,174.8c-0.8-0.9-1.5-1.6-2.2-2.5c-0.8,0.9-1.5,1.7-2.2,2.5c0.8,0.9,1.4,1.6,2.2,2.5
					C234.5,176.5,235.2,175.7,236,174.8z"/>
				<path d="M119.8,174.8c1.4-1.3,2.7-2.4,4.1-3.6c1.4,1.2,2.7,2.4,4.1,3.6c-1.4,1.2-2.7,2.4-4.1,3.6
					C122.5,177.2,121.2,176,119.8,174.8z M123.9,172.3c-0.8,0.9-1.5,1.7-2.2,2.5c0.8,0.9,1.4,1.6,2.2,2.5c0.8-0.9,1.4-1.6,2.2-2.5
					C125.3,173.9,124.6,173.2,123.9,172.3z"/>
				<path d="M237.9-8.3c-1.4,1.3-2.8,2.4-4.1,3.6c-1.4-1.2-2.7-2.4-4.1-3.6c1.4-1.2,2.7-2.4,4.1-3.6C235.1-10.8,236.4-9.6,237.9-8.3
					z M235.9-8.3c-0.8-0.9-1.5-1.7-2.2-2.5c-0.8,0.9-1.5,1.7-2.2,2.5c0.7,0.8,1.4,1.6,2.2,2.5C234.5-6.7,235.2-7.5,235.9-8.3z"/>
				<path d="M119.8-8.4c1.4-1.3,2.7-2.4,4.1-3.6c1.4,1.2,2.7,2.4,4.1,3.6c-1.4,1.2-2.7,2.4-4.1,3.6C122.5-5.9,121.2-7.1,119.8-8.4z
					 M123.9-5.8c0.8-0.9,1.5-1.7,2.2-2.5c-0.8-0.9-1.5-1.7-2.2-2.5c-0.8,0.9-1.5,1.7-2.2,2.5C122.4-7.5,123.1-6.7,123.9-5.8z"/>
				<path d="M13.9-4.8c-1.3-1.1-2.6-2.3-4-3.5c1.4-1.2,2.7-2.4,4.1-3.6c1.4,1.2,2.7,2.3,3.9,3.5C17.5-7.7,15.1-5.6,13.9-4.8z
					 M14-10.8c-0.8,0.9-1.5,1.7-2.2,2.5c0.8,0.9,1.4,1.6,2.2,2.5c0.7-0.8,1.4-1.7,2.2-2.5C15.4-9.2,14.7-10,14-10.8z"/>
				<path d="M18.1,248c-1.4,1.3-2.7,2.4-4.1,3.6c-1.4-1.2-2.7-2.4-4.1-3.6c1.4-1.2,2.7-2.4,4.1-3.6C15.4,245.6,16.7,246.8,18.1,248z
					 M14,250.5c0.8-0.9,1.5-1.7,2.2-2.5c-0.8-0.9-1.5-1.7-2.2-2.5c-0.8,0.9-1.5,1.7-2.2,2.5C12.6,248.9,13.2,249.6,14,250.5z"/>
				<path d="M123.9,251.6c-1.4-1.2-2.7-2.4-4.1-3.6c1.4-1.2,2.7-2.4,4.1-3.6c1.4,1.2,2.7,2.3,4.1,3.6
					C126.6,249.3,125.3,250.5,123.9,251.6z M123.9,250.5c0.8-0.9,1.5-1.7,2.2-2.5c-0.8-0.9-1.5-1.7-2.2-2.5
					c-0.8,0.9-1.5,1.7-2.2,2.5C122.4,248.9,123.1,249.6,123.9,250.5z"/>
				<path d="M68.9,87c-1.5-1.1-2.7-2.3-3.8-3.7c1.1-1.5,2.3-2.7,3.7-3.8c1.5,1.1,2.7,2.3,3.8,3.8C71.6,84.7,70.4,85.9,68.9,87z
					 M68.9,85.6c0.8-0.7,1.6-1.6,2.4-2.3c-0.8-0.8-1.6-1.7-2.3-2.4c-0.8,0.8-1.7,1.6-2.5,2.3C67.3,84,68.2,84.8,68.9,85.6z"/>
				<path d="M178.8,79.5c1.5,1.1,2.7,2.3,3.7,3.8c-1.1,1.5-2.3,2.7-3.8,3.7c-1.5-1.1-2.7-2.3-3.8-3.7
					C176.1,81.8,177.4,80.5,178.8,79.5z M178.8,85.6c0.7-0.7,1.6-1.6,2.4-2.4c-0.8-0.7-1.7-1.6-2.5-2.3c-0.7,0.7-1.6,1.6-2.4,2.4
					C177.2,84,178,84.9,178.8,85.6z"/>
				<path d="M178.9,189.3c1.3,1.3,2.5,2.5,3.7,3.7c-1.1,1.6-2.3,2.8-3.8,3.9c-1.5-1-2.7-2.3-3.8-3.7
					C176.1,191.7,177.4,190.5,178.9,189.3z M181.2,193.1c-0.8-0.8-1.7-1.6-2.4-2.3c-0.7,0.7-1.6,1.6-2.4,2.4
					c0.8,0.8,1.7,1.6,2.5,2.4C179.6,194.8,180.4,193.9,181.2,193.1z"/>
				<path d="M68.9,189.3c1.5,1.1,2.7,2.3,3.8,3.7c-1,1.5-2.3,2.7-3.7,3.8c-1.5-1.1-2.7-2.3-3.8-3.8
					C66.2,191.6,67.5,190.4,68.9,189.3z M68.9,195.5c0.8-0.7,1.7-1.5,2.5-2.2c-0.8-0.9-1.7-1.7-2.4-2.5c-0.8,0.7-1.7,1.6-2.4,2.3
					C67.3,193.8,68.2,194.7,68.9,195.5z"/>
				<path d="M175-26.7c1.3-1.3,2.5-2.5,3.7-3.7c1.6,1.1,2.8,2.3,3.9,3.8c-1,1.5-2.3,2.7-3.7,3.8C177.4-23.9,176.2-25.2,175-26.7z
					 M178.7-24.4c0.8-0.7,1.7-1.6,2.4-2.2c-0.7-0.8-1.5-1.7-2.1-2.3c-0.9,0.8-1.8,1.7-2.5,2.4C177.2-25.9,178.1-25,178.7-24.4z"/>
				<path d="M72.7,229.7c-1.1,1.5-2.3,2.7-3.8,3.8c-0.6-0.5-1.2-1-1.8-1.6c-0.7-0.7-1.3-1.4-1.9-2.1c1-1.5,2.3-2.7,3.7-3.8
					C70.4,227,71.5,228.3,72.7,229.7z M71.3,229.8c-0.8-0.8-1.6-1.7-2.2-2.4c-0.8,0.7-1.7,1.6-2.5,2.2c0.8,0.9,1.6,1.8,2.4,2.6
					C69.7,231.4,70.5,230.5,71.3,229.8z"/>
				<path d="M182.6,229.7c-1.1,1.5-2.3,2.7-3.8,3.7c-1.5-1.1-2.7-2.3-3.8-3.7c1.1-1.5,2.3-2.7,3.7-3.8
					C180.3,227,181.5,228.3,182.6,229.7z M178.7,232c0.8-0.7,1.7-1.6,2.4-2.3c-0.8-0.8-1.6-1.7-2.2-2.3c-0.8,0.8-1.7,1.6-2.4,2.2
					C177.2,230.5,178.1,231.3,178.7,232z"/>
				<path d="M178.8,116.1c1.5,1,2.7,2.3,3.8,3.7c-1.1,1.5-2.3,2.7-3.8,3.8c-1.5-1-2.7-2.3-3.8-3.7
					C176.1,118.4,177.4,117.2,178.8,116.1z M178.9,117.5c-0.8,0.8-1.7,1.7-2.3,2.3c0.7,0.8,1.5,1.7,2.1,2.4c0.8-0.8,1.7-1.6,2.5-2.3
					C180.4,119.1,179.6,118.2,178.9,117.5z"/>
				<path d="M174.9,46.6c1.4-1.4,2.6-2.6,3.8-3.8c1.6,1.1,2.8,2.3,3.9,3.8c-1,1.5-2.3,2.7-3.9,3.9C177.5,49.2,176.2,48,174.9,46.6z
					 M181.1,46.7c-0.8-0.8-1.6-1.7-2.2-2.3c-0.8,0.7-1.7,1.6-2.4,2.2c0.7,0.7,1.6,1.6,2.3,2.3C179.6,48.3,180.4,47.4,181.1,46.7z"/>
				<path d="M72.8-26.6c-1.3,1.3-2.5,2.5-3.7,3.7c-1.6-1.1-2.8-2.4-3.9-3.8c1.1-1.5,2.3-2.7,3.7-3.8C70.4-29.4,71.6-28.1,72.8-26.6z
					 M68.8-24.3c0.8-0.8,1.7-1.6,2.5-2.3c-0.8-0.8-1.6-1.6-2.4-2.6c-0.4,0.4-0.8,0.9-1.2,1.3c-0.4,0.4-0.9,0.8-1.1,1.1
					C67.4-25.9,68.2-25,68.8-24.3z"/>
				<path d="M65.1,10c0.6-0.7,1.1-1.3,1.6-1.9c0.7-0.7,1.4-1.3,2.1-1.9c1.5,1,2.7,2.3,3.8,3.7c-1,1.5-2.3,2.7-3.8,3.8
					c-0.7-0.6-1.3-1.1-1.9-1.7C66.4,11.5,65.8,10.8,65.1,10z M69.1,7.6c-0.9,0.8-1.7,1.7-2.3,2.3c0.7,0.8,1.5,1.7,2,2.3
					c0.8-0.8,1.7-1.6,2.5-2.3C70.5,9.2,69.7,8.3,69.1,7.6z"/>
				<path d="M182.6,156.5c-1.1,1.5-2.3,2.7-3.9,3.8c-1.2-1.2-2.4-2.4-3.7-3.7c1.1-1.6,2.3-2.8,3.8-3.9
					C180.3,153.7,181.4,155,182.6,156.5z M178.7,158.7c0.8-0.7,1.7-1.6,2.3-2.2c-0.7-0.8-1.6-1.6-2.1-2.2c-0.8,0.7-1.7,1.6-2.4,2.2
					C177.2,157.2,178.1,158.1,178.7,158.7z"/>
				<path d="M65.2,156.5c1.1-1.5,2.3-2.7,3.8-3.8c1.5,1.1,2.7,2.3,3.7,3.8c-1.1,1.5-2.3,2.7-3.7,3.8
					C67.5,159.2,66.3,157.9,65.2,156.5z M66.6,156.5c0.7,0.8,1.6,1.6,2.2,2.3c0.8-0.7,1.8-1.6,2.5-2.2c-0.8-0.9-1.7-1.8-2.4-2.5
					C68.2,154.9,67.4,155.7,66.6,156.5z"/>
				<path d="M69,123.6c-1.4-1-2.9-2.4-3.7-3.7c0.9-1.4,2.4-2.8,3.7-3.7c1.4,1,2.6,2.3,3.7,3.7C71.6,121.3,70.4,122.5,69,123.6z
					 M66.6,119.8c0.7,0.8,1.6,1.7,2.2,2.4c0.9-0.8,1.7-1.6,2.4-2.3c-0.8-0.8-1.6-1.7-2.3-2.4C68.2,118.2,67.3,119.1,66.6,119.8z"/>
				<path d="M175,9.9c1.3-1.3,2.5-2.5,3.7-3.7c1.6,1.1,2.8,2.4,3.9,3.8c-1,1.5-2.3,2.6-3.7,3.8C177.4,12.7,176.2,11.4,175,9.9z
					 M181.1,10.1c-0.8-0.8-1.6-1.7-2.2-2.3c-0.8,0.7-1.6,1.6-2.3,2.3c0.7,0.7,1.5,1.6,2.3,2.3C179.6,11.6,180.4,10.8,181.1,10.1z"/>
				<path d="M72.7,46.6c-1,1.5-2.6,3-3.9,3.8c-1.2-1.2-2.4-2.4-3.6-3.6c1.1-1.6,2.3-2.7,3.8-3.9C70.4,43.8,71.6,45.1,72.7,46.6z
					 M71.2,46.7c-0.8-0.8-1.6-1.7-2.3-2.4c-0.8,0.7-1.7,1.5-2.5,2.3c0.8,0.8,1.7,1.6,2.5,2.4C69.7,48.2,70.5,47.4,71.2,46.7z"/>
				<path d="M84,127c-2.2,3.1-4.8,5.7-7.9,8C76.8,133.5,80.9,129.4,84,127z"/>
				<path d="M186,135c2.2-3.1,4.8-5.7,7.9-8C191.7,130.1,189.1,132.8,186,135z"/>
				<path d="M71.4,166.8c2.2-3,4.8-5.7,7.9-7.9C78.3,160.8,74.2,164.9,71.4,166.8z"/>
				<path d="M193.9,53.8c-2.2,3.1-4.9,5.7-7.9,8C188.2,58.7,190.9,56,193.9,53.8z"/>
				<path d="M181.3,166.8c2.3-3.1,5.7-6.5,7.8-7.8C187.9,161,183.9,165.1,181.3,166.8z"/>
				<path d="M76.1,61.7c2.5-3.3,5.4-6.2,7.9-7.9C83,55.7,78.6,60.1,76.1,61.7z"/>
				<path d="M-25.8,53.8c-2.2,3.1-4.9,5.7-7.9,7.9C-31.5,58.7-28.9,56-25.8,53.8z"/>
				<path d="M-33.8,171.6c2.2-3.1,4.9-5.7,7.9-7.9C-28,166.8-30.7,169.4-33.8,171.6z"/>
				<path d="M76.1,171.6c2.2-3.1,4.9-5.7,7.9-8C83.3,165.2,79,169.6,76.1,171.6z"/>
				<path d="M189.1,49.1c-2.2,3-4.8,5.6-7.8,7.9C182.2,55.3,186.4,51,189.1,49.1z"/>
				<path d="M193.9,163.7c-2.2,3.1-4.9,5.7-7.9,8C187,169.8,191,165.7,193.9,163.7z"/>
				<path d="M71.2,57.2c1.9-2.8,6.2-7.1,8.1-8C77.1,52.2,74.4,54.8,71.2,57.2z"/>
				<path d="M84.1,236.9c-2.2,3.1-4.9,5.7-7.9,8C78.3,241.8,81,239.1,84.1,236.9z"/>
				<path d="M193.9,90.4c-2.2,3.1-4.9,5.7-7.9,7.9C188.2,95.3,190.9,92.6,193.9,90.4z"/>
				<path d="M84.1,90.4c-2.2,3.1-4.9,5.7-7.9,8C77.1,96.6,81.1,92.5,84.1,90.4z"/>
				<path d="M-25.8,90.4c-2.2,3.1-4.9,5.7-7.9,8C-31.6,95.3-28.9,92.6-25.8,90.4z"/>
				<path d="M71.4,203.5c2.2-3.1,5.7-6.5,8-8C77.1,198.7,74.4,201.3,71.4,203.5z"/>
				<path d="M181.3,203.5c2.2-3,4.8-5.7,7.9-7.9C186.9,198.7,184.3,201.3,181.3,203.5z"/>
				<path d="M-25.8,200.3c-2.2,3.1-4.9,5.7-7.9,8C-32.9,206.6-28.9,202.5-25.8,200.3z"/>
				<path d="M76.1,208.2c2.2-3.1,4.8-5.7,7.9-8C81.9,203.4,79.2,206,76.1,208.2z"/>
				<path d="M193.9,200.3c-2.2,3.1-4.9,5.7-7.9,7.9C188.2,205.2,190.9,202.5,193.9,200.3z"/>
				<path d="M193.9,17.2c-2.2,3.1-4.9,5.7-7.9,7.9C188.2,22,190.9,19.4,193.9,17.2z"/>
				<path d="M84.1,17.2c-2.2,3.1-4.9,5.7-7.9,8C78.3,22,81,19.4,84.1,17.2z"/>
				<path d="M-33.8,25.1c2.2-3.1,4.8-5.7,7.9-7.9C-26.5,18.6-30.7,23-33.8,25.1z"/>
				<path d="M181.3,20.3c1.9-2.8,5-5.9,7.8-7.9C188.4,14,184.3,18.2,181.3,20.3z"/>
				<path d="M71.4,20.4c2.2-3,4.8-5.7,7.9-7.9C77.1,15.6,74.4,18.2,71.4,20.4z"/>
				<path d="M79.4,232.1c-2.5,3.3-5.6,6.4-8,8C72.6,238.1,76.9,233.7,79.4,232.1z"/>
				<path d="M189.1,232.3c-2.2,3.1-4.8,5.7-7.9,7.9C183.5,237.1,186.1,234.4,189.1,232.3z"/>
				<path d="M-33.8,244.9c2.2-3.1,4.9-5.7,7.9-7.9C-28,240-30.7,242.6-33.8,244.9z"/>
				<path d="M193.9,236.9c-2.2,3.1-4.9,5.7-7.9,8C188.2,241.8,190.9,239.1,193.9,236.9z"/>
				<path d="M-33.8-48.1c2.2-3.1,4.9-5.7,7.9-7.9C-28-53-30.7-50.4-33.8-48.1z"/>
				<path d="M76.1-48.2c2.2-3.1,4.9-5.7,7.9-7.9C81.9-53,79.2-50.4,76.1-48.2z"/>
				<path d="M186-48.2c1.6-2.5,5.6-6.4,7.9-7.9C192.6-53.9,188.2-49.5,186-48.2z"/>
				<path d="M71.4-16.3c1.4-2.3,5.8-6.7,7.9-7.9C77.8-21.8,73.7-17.8,71.4-16.3z"/>
				<path d="M189.1,85.8c-2.2,3-4.8,5.6-7.8,7.9C182,92.1,186.2,87.8,189.1,85.8z"/>
				<path d="M79.2,85.8c-2,2.9-4.9,5.7-7.8,7.9C72.3,91.9,76.5,87.6,79.2,85.8z"/>
				<path d="M79.2,122.4c-2.2,3.1-4.8,5.7-7.9,7.9C73.6,127.2,76.2,124.5,79.2,122.4z"/>
				<path d="M189.1,122.4c-2.2,3.1-4.8,5.7-7.9,7.9C183.5,127.2,186,124.5,189.1,122.4z"/>
				<path d="M-33.8,135c2.2-3.1,4.9-5.7,7.9-8C-26.7,128.7-31,133.1-33.8,135z"/>
				<path d="M186-11.5c2.2-3.1,4.9-5.7,7.9-8C191.7-16.4,189.1-13.7,186-11.5z"/>
				<path d="M84-19.5c-2.2,3.1-4.8,5.7-7.9,8C76.8-13,80.9-17.1,84-19.5z"/>
				<path d="M-33.8-11.5c2.2-3.1,4.8-5.7,7.9-7.9C-26.5-18-30.7-13.7-33.8-11.5z"/>
				<path d="M189.1-24.1c-2.2,3.1-4.8,5.7-7.9,7.9C183.5-19.3,186-22,189.1-24.1z"/>
				<path d="M-33.8,141.3c3,2.2,5.7,4.8,7.9,7.9C-29,147-31.6,144.4-33.8,141.3z"/>
				<path d="M76.1,214.6c3,2.2,5.7,4.8,7.9,7.8C82.5,221.8,78.5,217.8,76.1,214.6z"/>
				<path d="M-25.9,112.6c-2.1-1.2-6.3-5.4-7.9-7.9C-31.5,106.1-27.2,110.4-25.9,112.6z"/>
				<path d="M193.8,222.4c-3.1-2.2-5.6-4.8-7.9-7.8C187.5,215.4,191.8,219.6,193.8,222.4z"/>
				<path d="M-33.8,68.1c3.1,2.2,5.7,4.8,7.9,7.8C-29,73.8-31.5,71.1-33.8,68.1z"/>
				<path d="M76.1,68.1c3,2.2,5.7,4.8,7.9,7.8C80.9,73.8,78.3,71.1,76.1,68.1z"/>
				<path d="M76.1,251.2c3,2.2,5.7,4.8,7.9,7.8C80.9,256.9,78.3,254.3,76.1,251.2z"/>
				<path d="M185.8,31.3c3.1,2.3,6.5,5.7,8,8C192.1,38.4,187.9,34.2,185.8,31.3z"/>
				<path d="M76.1,104.7c3,2.1,6.4,5.5,8,8C80.9,110.4,78.3,107.7,76.1,104.7z"/>
				<path d="M84-33.9c-3.1-2.2-5.7-4.8-7.9-7.8C79.2-39.6,81.8-37,84-33.9z"/>
				<path d="M186,68.1c3,2.2,5.7,4.8,7.9,7.8C192.4,75.3,188.4,71.3,186,68.1z"/>
				<path d="M84,39.3c-3.1-2.2-5.6-4.8-7.9-7.8C77.7,32.3,82,36.4,84,39.3z"/>
				<path d="M186-41.8c3.1,2.2,5.7,4.8,7.9,7.9C190.8-36.1,188.2-38.8,186-41.8z"/>
				<path d="M193.9,149.2c-3.1-2.2-5.7-4.8-7.9-7.9C189,143.5,191.7,146.1,193.9,149.2z"/>
				<path d="M84,149.2c-3.1-2.2-5.7-4.8-7.9-7.9C78.1,142.4,82.4,146.7,84,149.2z"/>
				<path d="M-33.8,31.5c3.1,2.2,5.7,4.8,7.9,7.8C-29,37.2-31.6,34.5-33.8,31.5z"/>
				<path d="M186,104.7c3,2.2,5.7,4.8,7.8,7.9C190.8,110.4,188.2,107.8,186,104.7z"/>
				<path d="M-25.7,186c-2.4-1.5-5.7-4.8-8.1-7.9C-32.3,178.7-28,182.9-25.7,186z"/>
				<path d="M-25.9-33.9c-3.1-2.2-5.7-4.8-7.8-7.8C-30.7-39.6-28.1-37-25.9-33.9z"/>
				<path d="M-33.8,214.6c3.1,2.2,5.7,4.8,7.9,7.9C-29,220.3-31.6,217.6-33.8,214.6z"/>
				<path d="M193.8,2.7c-3.1-2.2-5.6-4.8-7.9-7.8C187.6-4.3,191.9-0.2,193.8,2.7z"/>
				<path d="M76.1-5.2c3,2.2,5.7,4.8,7.9,7.8C80.9,0.5,78.3-2.1,76.1-5.2z"/>
				<path d="M-25.9,2.7c-3.1-2.1-5.6-4.8-7.9-7.8C-32.3-4.5-28-0.3-25.9,2.7z"/>
				<path d="M84,185.8c-3.1-2.2-5.7-4.8-7.9-7.9C79.2,180.2,81.8,182.8,84,185.8z"/>
				<path d="M186,178c3,2.2,5.7,4.8,7.9,7.8C190.8,183.7,188.2,181,186,178z"/>
				<path d="M-33.8,251.2c3,2.2,5.7,4.8,7.9,7.9C-29,256.9-31.6,254.3-33.8,251.2z"/>
				<path d="M193.8,259.1c-3.1-2.2-5.7-4.8-7.9-7.8C189,253.4,191.7,256,193.8,259.1z"/>
				<path d="M61.4,214.9c-2,2.9-4.6,5.4-7.4,7.5C56.1,219.5,58.5,217,61.4,214.9z"/>
				<path d="M54,75.8c2.1-2.9,4.5-5.4,7.4-7.4C59.4,71.3,56.9,73.8,54,75.8z"/>
				<path d="M171.3,68.4c-2,2.9-4.5,5.4-7.4,7.4C165.9,72.9,168.4,70.4,171.3,68.4z"/>
				<path d="M61.5-4.8c-2,2.9-4.6,5.4-7.4,7.5C54.8,1,59-3.3,61.5-4.8z"/>
				<path d="M54-34c2.1-2.9,4.5-5.4,7.4-7.5C59.4-38.5,56.9-36.1,54-34z"/>
				<path d="M163.9,2.6c1.7-2.6,5.3-6.1,7.4-7.5C170.7-3.4,166.3,1.1,163.9,2.6z"/>
				<path d="M61.4,178.3c-0.9,1.8-5.4,6.3-7.4,7.4C55.1,183.7,59.5,179.3,61.4,178.3z"/>
				<path d="M273.8,112.5c1.4-2.3,5-5.8,7.4-7.5C280.7,106.3,276.5,110.7,273.8,112.5z"/>
				<path d="M273.8,75.8c2.1-2.9,4.5-5.4,7.4-7.5C279.2,71.3,276.7,73.8,273.8,75.8z"/>
				<path d="M163.9,222.4c2.1-2.9,4.5-5.4,7.4-7.5C169.3,217.8,166.8,220.3,163.9,222.4z"/>
				<path d="M273.8-34c2.1-2.9,4.5-5.4,7.4-7.4C279.2-38.5,276.7-36.1,273.8-34z"/>
				<path d="M171.3-41.5c-2,2.9-4.5,5.4-7.4,7.4C165.9-36.9,168.4-39.4,171.3-41.5z"/>
				<path d="M281.2,141.7c-2,2.9-4.5,5.4-7.4,7.4C275.8,146.2,278.3,143.7,281.2,141.7z"/>
				<path d="M171.3,141.7c-2,2.9-4.5,5.4-7.4,7.4C165.9,146.2,168.4,143.7,171.3,141.7z"/>
				<path d="M54,149.1c2.1-2.9,4.5-5.4,7.4-7.5C61,142.9,56.8,147.2,54,149.1z"/>
				<path d="M273.6,222.5c2-2.8,5.7-6.4,7.6-7.6C280.4,216.5,276,221.1,273.6,222.5z"/>
				<path d="M281.2-4.8c-2.1,2.9-4.6,5.4-7.4,7.5C274.6,1,278.8-3.3,281.2-4.8z"/>
				<path d="M163.9,185.7c2-2.9,4.5-5.4,7.4-7.5C170.9,179.5,166.7,183.8,163.9,185.7z"/>
				<path d="M281.2,178.3c-2,2.9-4.5,5.4-7.4,7.5C274.4,184.4,278.5,180.1,281.2,178.3z"/>
				<path d="M61.5,31.8c-1.6,2.4-5.4,6.1-7.5,7.4C55,37.3,60.1,32.3,61.5,31.8z"/>
				<path d="M61.4,105c-2,2.9-4.5,5.4-7.4,7.4C56.1,109.6,58.5,107.1,61.4,105z"/>
				<path d="M171.3,105c-2,2.9-4.6,5.4-7.4,7.5C164.5,111.1,168.7,106.8,171.3,105z"/>
				<path d="M61.5,251.5c-2,2.9-4.5,5.4-7.4,7.5C54.6,257.6,58.8,253.3,61.5,251.5z"/>
				<path d="M163.9,259c2-2.9,4.5-5.4,7.4-7.5C170.9,252.7,166.7,257.1,163.9,259z"/>
				<path d="M281.2,251.5c-0.8,1.7-5.4,6.3-7.4,7.5C274.8,257.1,279.2,252.7,281.2,251.5z"/>
				<path d="M281.2,31.8c-2.1,2.9-4.6,5.4-7.5,7.5C274.6,37.6,278.9,33.2,281.2,31.8z"/>
				<path d="M163.9,39.2c2.1-2.9,4.5-5.4,7.4-7.5C169.3,34.7,166.8,37.1,163.9,39.2z"/>
				<path d="M61.4,171.3c-2.8-2-5.3-4.4-7.3-7.3C57,166,59.4,168.4,61.4,171.3z"/>
				<path d="M273.9,90.8c2.9,2,5.3,4.4,7.3,7.3C278.4,96,275.9,93.6,273.9,90.8z"/>
				<path d="M66.2,56.7c-2.9-2-5.3-4.4-7.3-7.3C61.8,51.3,64.2,53.8,66.2,56.7z"/>
				<path d="M79.2,80.7c-3-2.1-5.6-4.7-7.7-7.7C74.5,75.1,77.1,77.7,79.2,80.7z"/>
				<path d="M171.3,98c-2.8-2-5.3-4.4-7.3-7.3C166.9,92.7,169.3,95.2,171.3,98z"/>
				<path d="M281.2,24.8c-2.9-2-5.3-4.4-7.3-7.3C276.8,19.5,279.2,21.9,281.2,24.8z"/>
				<path d="M171.3,24.8c-2.9-2-5.3-4.4-7.4-7.2C165.2,17.9,169.6,22.2,171.3,24.8z"/>
				<path d="M54.2,200.6c2.9,2,5.3,4.4,7.3,7.3C58.6,205.9,56.2,203.5,54.2,200.6z"/>
				<path d="M171.3,207.9c-2.8-2-5.3-4.4-7.3-7.2C165.2,201,169.9,205.6,171.3,207.9z"/>
				<path d="M273.9,200.6c2.9,2,5.3,4.4,7.4,7.2C280,207.5,275.6,203.2,273.9,200.6z"/>
				<path d="M54.2,17.5c2.9,2,5.3,4.4,7.3,7.3C58.6,22.8,56.2,20.4,54.2,17.5z"/>
				<path d="M168.7,159.1c3,2.2,5.4,4.6,7.5,7.5C174.6,166,169.8,161.3,168.7,159.1z"/>
				<path d="M66.2,166.5c-2.9-2-5.3-4.4-7.3-7.3C61.8,161.2,64.2,163.7,66.2,166.5z"/>
				<path d="M168.6,12.5c3,2.2,5.4,4.7,7.5,7.5C174.7,19.5,169.9,14.8,168.6,12.5z"/>
				<path d="M66.2,20c-2.9-2-5.3-4.4-7.3-7.3C61.8,14.7,64.2,17.2,66.2,20z"/>
				<path d="M176.3,93.5c-2.6-1.7-6.6-5.8-7.5-7.5C170.6,87,174.8,91.1,176.3,93.5z"/>
				<path d="M66.2,93.3c-2.8-2-5.3-4.4-7.3-7.3C60.1,86.4,64.9,91.1,66.2,93.3z"/>
				<path d="M168.8,49.4c2.3,1.4,6.4,5.5,7.4,7.4C173.2,54.7,170.8,52.2,168.8,49.4z"/>
				<path d="M189.1,80.7c-3-2.2-5.6-4.7-7.7-7.7C184.4,75.1,187,77.7,189.1,80.7z"/>
				<path d="M66.2,73.1c-2.1,2.9-4.5,5.4-7.5,7.4C60.8,77.7,63.3,75.2,66.2,73.1z"/>
				<path d="M176.1,73.1c-2,2.9-4.6,5.4-7.4,7.5C170.7,77.7,173.2,75.2,176.1,73.1z"/>
				<path d="M273.9,127.4c2.9,2,5.3,4.4,7.3,7.3C278.3,132.7,275.9,130.2,273.9,127.4z"/>
				<path d="M171.3,134.7c-2.9-2-5.3-4.4-7.3-7.3C166.9,129.4,169.3,131.8,171.3,134.7z"/>
				<path d="M54.2,127.4c2.9,2,5.3,4.4,7.3,7.3C58.6,132.7,56.1,130.3,54.2,127.4z"/>
				<path d="M168.8,122.6c2.8,2,5.3,4.5,7.4,7.3C174.8,129.5,170,124.8,168.8,122.6z"/>
				<path d="M58.9,122.6c1.7,0.8,5.8,4.9,7.3,7.2C64.8,129.3,60,124.6,58.9,122.6z"/>
				<path d="M168.6,117.2c2.1-2.9,4.5-5.4,7.5-7.5C174,112.7,171.5,115.2,168.6,117.2z"/>
				<path d="M66.2,109.8c-2,2.9-4.6,5.4-7.5,7.5C60.8,114.3,63.3,111.8,66.2,109.8z"/>
				<path d="M79.3,227.4c-3.1-2.3-5.7-4.9-7.9-7.9C73.3,220.4,77.8,224.8,79.3,227.4z"/>
				<path d="M189.1,227.2c-3-2.1-5.6-4.7-7.7-7.7C184.4,221.6,186.9,224.2,189.1,227.2z"/>
				<path d="M58.8,227.1c2.1-2.9,4.5-5.4,7.4-7.5C64.2,222.6,61.6,225,58.8,227.1z"/>
				<path d="M168.6,227.1c2.1-2.9,4.5-5.4,7.4-7.5C174.1,222.6,171.5,225,168.6,227.1z"/>
				<path d="M181.2,109.4c3.1,2.3,5.7,4.9,7.9,7.8C187.7,116.7,182.8,111.9,181.2,109.4z"/>
				<path d="M71.5,109.6c3,2.1,5.6,4.7,7.7,7.7C76.2,115.2,73.7,112.6,71.5,109.6z"/>
				<path d="M176.3-36.9c-1.8,2.6-4.9,5.7-7.6,7.7C169.2-30.6,173.8-35.4,176.3-36.9z"/>
				<path d="M58.7-29.3c2.1-2.9,4.5-5.4,7.5-7.5C64.2-33.8,61.7-31.3,58.7-29.3z"/>
				<path d="M181.4-36.9c3,2.1,5.6,4.7,7.7,7.7C186.1-31.3,183.5-33.9,181.4-36.9z"/>
				<path d="M71.5-36.9c3,2.1,5.6,4.7,7.7,7.7C76.2-31.3,73.6-33.9,71.5-36.9z"/>
				<path d="M54.2,54.1c2.9,2,5.3,4.4,7.3,7.3C58.6,59.4,56.2,57,54.2,54.1z"/>
				<path d="M281.2-48.5c-2.8-2-5.3-4.4-7.3-7.3C276.8-53.8,279.2-51.3,281.2-48.5z"/>
				<path d="M58.9,232.5c2.9,2,5.3,4.4,7.3,7.3C63.3,237.8,60.9,235.4,58.9,232.5z"/>
				<path d="M168.7,232.3c3,2.2,5.4,4.6,7.5,7.4C174.6,239.2,169.8,234.5,168.7,232.3z"/>
				<path d="M176.1-0.1c-2,2.9-4.6,5.4-7.4,7.5C170.7,4.4,173.2,2,176.1-0.1z"/>
				<path d="M66.2-0.1c-2,2.9-4.6,5.4-7.5,7.5C60.8,4.4,63.3,1.9,66.2-0.1z"/>
				<path d="M189.3,7.6c-3.2-2.3-5.7-4.9-7.9-7.9C183,0.5,187.5,5,189.3,7.6z"/>
				<path d="M79.2,7.4c-3-2.1-5.6-4.7-7.7-7.7C74.5,1.8,77.1,4.4,79.2,7.4z"/>
				<path d="M54.2,237.3c2.9,2,5.3,4.4,7.3,7.3C58.6,242.6,56.2,240.1,54.2,237.3z"/>
				<path d="M273.9,237.3c2.9,2,5.3,4.4,7.3,7.3C278.4,242.5,275.9,240.1,273.9,237.3z"/>
				<path d="M181.4,182.8c3,2.1,5.6,4.7,7.7,7.7C186.1,188.4,183.5,185.9,181.4,182.8z"/>
				<path d="M58.8,190.5c2.1-2.9,4.5-5.4,7.5-7.5C64.2,186,61.6,188.4,58.8,190.5z"/>
				<path d="M168.6,190.5c2.1-2.9,4.5-5.4,7.4-7.5C174.1,186,171.5,188.4,168.6,190.5z"/>
				<path d="M171.5-48.3c-2.3-1.4-6-5.1-7.5-7.4C165.3-55.3,169.7-51,171.5-48.3z"/>
				<path d="M54.2-55.7c2.3,1.4,6.1,5.2,7.3,7.3C58.6-50.4,56.2-52.9,54.2-55.7z"/>
				<path d="M168.4,154c2.3-3.1,4.7-5.6,7.6-7.7C175.6,147.7,170.9,152.5,168.4,154z"/>
				<path d="M273.9-19.1c2.9,2,5.3,4.4,7.3,7.3C278.3-13.8,275.9-16.3,273.9-19.1z"/>
				<path d="M171.3-11.8c-2.9-2-5.3-4.4-7.3-7.3C166.9-17.1,169.3-14.7,171.3-11.8z"/>
				<path d="M61.4-11.8c-2.9-2-5.3-4.4-7.4-7.2C55.4-18.7,59.7-14.5,61.4-11.8z"/>
				<path d="M66.4,146.3c-2.2,3-4.7,5.5-7.6,7.6C59.6,152.1,64.2,147.4,66.4,146.3z"/>
				<path d="M171.5,244.7c-2.1-1.3-5.8-4.9-7.5-7.4C165.2,237.7,169.6,241.9,171.5,244.7z"/>
				<path d="M71.4,146.1c3.1,2.3,5.7,4.9,7.9,7.8C77.7,153.3,72.8,148.4,71.4,146.1z"/>
				<path d="M281.2,61.4c-2.8-2-5.3-4.4-7.3-7.3C276.8,56.1,279.2,58.6,281.2,61.4z"/>
				<path d="M168.6,44c2.1-2.9,4.5-5.4,7.4-7.5C174.1,39.5,171.5,41.9,168.6,44z"/>
				<path d="M58.8,44c2.1-2.9,4.5-5.4,7.5-7.5C64.2,39.5,61.6,41.9,58.8,44z"/>
				<path d="M163.8,54c2.1,1.3,6,5.1,7.5,7.4C170.1,60.9,165.7,56.7,163.8,54z"/>
				<path d="M181.2,146c3.2,2.3,5.7,4.9,7.9,7.8C187.7,153.3,182.8,148.6,181.2,146z"/>
				<path d="M79.2,190.6c-3-2.1-5.6-4.7-7.7-7.7C74.5,185,77.1,187.6,79.2,190.6z"/>
				<path d="M164,164c2.9,2,5.3,4.4,7.3,7.3C168.5,169.3,166.1,166.9,164,164z"/>
				<path d="M281.1,171.3c-2.4-1.7-5.6-4.8-7.3-7.3C275.4,164.5,280.7,169.8,281.1,171.3z"/>
				<path d="M54.2,90.8c2.9,2,5.3,4.4,7.3,7.3C58.6,96.1,56.2,93.6,54.2,90.8z"/>
				<path d="M181.4,36.3c3,2.1,5.6,4.7,7.7,7.7C186.1,41.9,183.5,39.4,181.4,36.3z"/>
				<path d="M71.4,36.1c3.2,2.3,5.7,4.9,7.9,7.9C77.8,43.5,73,38.7,71.4,36.1z"/>
				<path d="M58.8,195.7c2.9,2.1,5.4,4.6,7.5,7.5C64.6,202.4,59.8,197.7,58.8,195.7z"/>
				<path d="M168.8-23.9c2.3,1.4,6.4,5.5,7.4,7.4C173.2-18.6,170.8-21,168.8-23.9z"/>
				<path d="M58.8-24.1c3,2.2,5.4,4.6,7.5,7.5C64.8-17.2,60-21.9,58.8-24.1z"/>
				<path d="M176.1,203.2c-2.9-2-5.3-4.4-7.3-7.3C171.7,197.9,174.1,200.3,176.1,203.2z"/>
				<path d="M176.2,256.4c-0.9,1-1.8,2.1-2.7,3.1c-0.4,0.5-0.9,0.3-1.7,0.2c1.5-1.3,2.8-2.4,4.1-3.6
					C176,256.2,176.1,256.3,176.2,256.4z"/>
				<path d="M71.6,256c1.4,1.2,2.8,2.4,4.2,3.6c-1.1,0.4-1.1,0.4-1.7-0.3c-0.9-1-1.8-2.1-2.7-3.1C71.5,256.1,71.5,256.1,71.6,256z"
					/>
				<path d="M181.5,256c1.4,1.2,2.8,2.4,4.3,3.7c-0.8,0.3-1.3,0.2-1.8-0.4c-0.8-1.1-1.8-2.1-2.6-3.1
					C181.3,256.1,181.4,256.1,181.5,256z"/>
				<path d="M62,259.7c1.5-1.3,2.8-2.4,4.1-3.5c0.1,0.1,0.1,0.1,0.2,0.2c-0.6,0.7-1.2,1.4-1.7,2.1c-0.2,0.3-0.5,0.5-0.7,0.9
					C63.4,259.9,62.8,259.9,62,259.7z"/>
				<path d="M278.8,159.1c1,0.9,2.1,1.7,3.1,2.7c0.2,0.2,0.1,0.8,0.2,1.2c-0.1,0-0.2,0.1-0.3,0.1c-1.1-1.3-2.2-2.5-3.2-3.8
					C278.6,159.3,278.7,159.2,278.8,159.1z"/>
				<path d="M281.9,16.8c-1.2-1.4-2.3-2.6-3.4-3.9c0.1-0.1,0.1-0.1,0.2-0.2c1,0.7,1.8,1.6,2.8,2.3C282.1,15.4,282.1,15.9,281.9,16.8
					z"/>
				<path d="M278.4,153.8c1.1-1.3,2.3-2.6,3.5-4c0.3,0.8,0.1,1.4-0.5,1.8c-1,0.8-1.9,1.6-2.8,2.4
					C278.5,153.9,278.5,153.8,278.4,153.8z"/>
				<path d="M281.9,113.2c0.2,0.6,0.1,1.1-0.4,1.6c-1,0.8-1.9,1.6-3,2.6C278.8,116.5,280.8,114.2,281.9,113.2z"/>
				<path d="M278.4-29.4c1.1-1.3,2.3-2.6,3.5-4.1c0.2,0.8,0.2,1.3-0.4,1.8c-1,0.8-1.9,1.6-2.9,2.5C278.5-29.2,278.5-29.3,278.4-29.4
					z"/>
				<path d="M278.8,85.9c1,0.8,1.9,1.7,2.9,2.5c0.5,0.4,0.4,0.9,0.3,1.7c-1.2-1.4-2.3-2.7-3.4-3.9C278.6,86,278.7,86,278.8,85.9z"/>
				<path d="M281.9,53.3c-1.2-1.3-2.2-2.6-3.3-3.9c0-0.1,0.1-0.1,0.1-0.2c0.2,0.1,0.4,0.2,0.6,0.4c0.7,0.6,1.4,1.2,2.2,1.8
					C282,52,282.2,52.5,281.9,53.3z"/>
				<path d="M278.4,227c1.1-1.3,2.2-2.6,3.5-4.1c0.1,0.7,0.3,1.2-0.2,1.6c-1,0.9-2.1,1.8-3.1,2.7C278.5,227.1,278.5,227.1,278.4,227
					z"/>
				<path d="M281.9-19.9c-1.2-1.4-2.3-2.6-3.3-3.9c0,0,0.1-0.1,0.1-0.2c0.2,0.1,0.4,0.2,0.6,0.3c0.7,0.6,1.4,1.3,2.2,1.8
					C282-21.3,282.2-20.8,281.9-19.9z"/>
				<path d="M278.8,195.8c1,0.9,2.1,1.7,3,2.6c0.3,0.3,0.2,0.8,0.4,1.4C281.2,199.2,279.1,196.8,278.8,195.8z"/>
				<path d="M281.9,76.5c0.3,0.8,0.1,1.4-0.5,1.8c-1,0.8-1.9,1.6-2.9,2.3C279.5,79.2,280.7,77.9,281.9,76.5z"/>
				<path d="M278.4,43.9c1.1-1.3,2.2-2.6,3.4-4c0.3,0.5,0.4,1,0,1.3c-1,1-2.2,1.9-3.2,2.8C278.5,44,278.5,44,278.4,43.9z"/>
				<path d="M281.9,236.5c-1.2-1.4-2.3-2.6-3.3-3.9c0.1-0.1,0.1-0.1,0.2-0.2c0.3,0.3,0.7,0.5,1,0.8c0.6,0.5,1.1,1,1.7,1.5
					C282,235.1,282.2,235.6,281.9,236.5z"/>
				<path d="M278.8,122.5c1,0.9,2.1,1.7,3,2.7c0.3,0.2,0.2,0.8,0.3,1.2c-0.1,0-0.2,0.1-0.3,0.1c-1.1-1.3-2.2-2.5-3.3-3.8
					C278.6,122.7,278.7,122.6,278.8,122.5z"/>
				<path d="M281.9,3.2c0.3,0.9,0.1,1.4-0.5,1.9c-1,0.8-1.9,1.6-2.8,2.4c-0.1-0.1-0.1-0.1-0.2-0.2C279.5,6,280.7,4.6,281.9,3.2z"/>
				<path d="M281.9,186.3c0.3,0.9,0.1,1.4-0.5,1.9c-1,0.8-1.9,1.6-2.8,2.4c-0.1-0.1-0.1-0.1-0.2-0.2
					C279.5,189.1,280.7,187.8,281.9,186.3z"/>
			</g>
		</g>
	</g>
</g>
</svg>
