<?xml version="1.0"?>
<svg xmlns="http://www.w3.org/2000/svg" viewBox="0 0 511.99999 511" width="512px" height="512px" class=""><g><path d="m335.535156 80.300781h-302.027344c-4.183593 0-7.578124 3.394531-7.578124 7.578125s3.394531 7.574219 7.578124 7.574219h302.027344c4.1875 0 7.578125-3.390625 7.578125-7.574219s-3.390625-7.578125-7.578125-7.578125zm0 0" data-original="#000000" class="active-path" data-old_color="##704C0" fill="#704C00"/><path d="m380.65625 87.878906c0 5.578125-4.523438 10.101563-10.101562 10.101563-5.578126 0-10.101563-4.523438-10.101563-10.101563s4.523437-10.101562 10.101563-10.101562c5.578124 0 10.101562 4.523437 10.101562 10.101562zm0 0" data-original="#000000" class="active-path" data-old_color="##704C0" fill="#704C00"/><path d="m482.867188 135.375c-56.511719-.007812-19.4375-.003906-68.707032-.003906v-72.75c0-6.957032-5.667968-12.625-12.628906-12.625h-252.078125l-5.828125-38.75c-.929688-6.230469-6.179688-10.746094-12.476562-10.746094h-111.777344c-6.304688 0-11.546875 4.515625-12.488282 10.746094-7.128906 47.457031-6.8085932 45.183594-6.8593745 45.8125-.0390625.585937-.01953125 166.5-.01953125 441.941406 0 6.96875 5.66796875 12.625 12.62890575 12.625h324.816407 145.417969c16.0625 0 29.132812-13.058594 29.132812-29.132812v-317.988282c0-16.058594-13.070312-29.128906-29.132812-29.128906zm-32.785157 15.152344v10.015625c0 .636719-.558593 1.191406-1.195312 1.191406h-77.460938c-.632812 0-1.191406-.554687-1.191406-1.191406v-10.015625zm-428.539062-134.875h107.425781l5.171875 34.34375h-117.761719zm-6.386719 49.496094h383.851562v46.476562h-383.851562zm296.738281 431.324218h-296.738281v-369.695312h383.851562v8.59375c-1.496093 0-60.0625 0-61.558593 0-16.070313 0-29.132813 13.074218-29.132813 29.132812v317.988282c0 5.074218 1.292969 9.832031 3.578125 13.980468zm184.953125-13.980468c0 7.71875-6.273437 13.980468-13.980468 13.980468-14.292969 0-130.996094 0-145.417969 0-7.707031 0-13.980469-6.261718-13.980469-13.980468v-317.988282c0-7.707031 6.273438-13.980468 13.980469-13.980468h17.632812v10.019531c0 9.011719 7.332031 16.34375 16.347657 16.34375h77.457031c9.015625 0 16.347656-7.332031 16.347656-16.34375v-10.019531h17.632813c7.707031 0 13.980468 6.273437 13.980468 13.980468zm0 0" data-original="#000000" class="active-path" data-old_color="##704C0" fill="#704C00"/><path d="m470.628906 186.363281h-5.203125c-4.183593 0-7.574219 3.394531-7.574219 7.578125s3.390626 7.574219 7.574219 7.574219h5.203125c1.4375 0 2.648438 1.214844 2.648438 2.648437v266.570313c0 1.4375-1.210938 2.648437-2.648438 2.648437h-120.941406c-1.4375 0-2.652344-1.210937-2.652344-2.648437v-266.566406c0-1.4375 1.214844-2.652344 2.652344-2.652344h85.433594c4.1875 0 7.578125-3.390625 7.578125-7.574219s-3.390625-7.578125-7.578125-7.578125h-85.433594c-9.816406 0-17.804688 7.988281-17.804688 17.804688v266.566406c0 9.816406 7.988282 17.804687 17.804688 17.804687h120.941406c9.816406 0 17.800782-7.988281 17.800782-17.804687v-266.566406c0-9.816407-7.984376-17.804688-17.800782-17.804688zm0 0" data-original="#000000" class="active-path" data-old_color="##704C0" fill="#704C00"/><path d="m40.246094 326.78125h242.429687c4.183594 0 7.578125-3.390625 7.578125-7.574219v-148.929687c0-4.183594-3.394531-7.574219-7.578125-7.574219h-179.230469c-4.183593 0-7.574218 3.390625-7.574218 7.574219s3.390625 7.578125 7.574218 7.578125h171.65625v77.199219h-41.503906c-1.851562-38.191407-33.496094-68.691407-72.136718-68.691407-38.636719 0-70.285157 30.5-72.132813 68.691407h-41.507813v-77.199219h25.320313c4.1875 0 7.578125-3.394531 7.578125-7.578125s-3.390625-7.574219-7.578125-7.574219h-32.894531c-4.183594 0-7.578125 3.390625-7.578125 7.574219v148.929687c0 4.183594 3.394531 7.574219 7.578125 7.574219zm121.214844-125.265625c30.28125 0 55.117187 23.710937 56.953124 53.539063h-113.90625c1.835938-29.828126 26.671876-53.539063 56.953126-53.539063zm-113.640626 68.6875h227.28125v41.425781h-227.28125zm0 0" data-original="#000000" class="active-path" data-old_color="##704C0" fill="#704C00"/><path d="m283.347656 354.054688h-242.433594c-4.183593 0-7.574218 3.390624-7.574218 7.578124 0 4.183594 3.390625 7.574219 7.574218 7.574219h242.433594c4.183594 0 7.574219-3.390625 7.574219-7.574219 0-4.1875-3.390625-7.578124-7.574219-7.578124zm0 0" data-original="#000000" class="active-path" data-old_color="##704C0" fill="#704C00"/><path d="m283.347656 400.519531h-242.433594c-4.183593 0-7.574218 3.394531-7.574218 7.578125s3.390625 7.574219 7.574218 7.574219h242.433594c4.183594 0 7.574219-3.390625 7.574219-7.574219s-3.390625-7.578125-7.574219-7.578125zm0 0" data-original="#000000" class="active-path" data-old_color="##704C0" fill="#704C00"/><path d="m283.347656 446.988281h-242.433594c-4.183593 0-7.574218 3.390625-7.574218 7.574219s3.390625 7.578125 7.574218 7.578125h242.433594c4.183594 0 7.574219-3.394531 7.574219-7.578125s-3.390625-7.574219-7.574219-7.574219zm0 0" data-original="#000000" class="active-path" data-old_color="##704C0" fill="#704C00"/><path d="m355.667969 216.898438v81.054687c0 4.183594 3.390625 7.578125 7.574219 7.578125h93.832031c4.183593 0 7.574219-3.394531 7.574219-7.578125v-81.054687c0-4.183594-3.390626-7.574219-7.574219-7.574219h-93.832031c-4.183594 0-7.574219 3.390625-7.574219 7.574219zm15.152343 7.574218h78.675782v41.820313h-4.742188c-2.796875-16.570313-17.242187-29.238281-34.59375-29.238281-17.355468 0-31.800781 12.667968-34.597656 29.238281h-4.742188zm58.398438 41.820313h-38.125c2.507812-8.144531 10.105469-14.085938 19.0625-14.085938 8.960938 0 16.554688 5.941407 19.0625 14.085938zm-58.398438 15.152343h78.675782v8.933594h-78.675782zm0 0" data-original="#000000" class="active-path" data-old_color="##704C0" fill="#704C00"/><path d="m457.070312 315.925781h-93.828124c-4.183594 0-7.574219 3.390625-7.574219 7.574219s3.390625 7.578125 7.574219 7.578125h93.832031c4.183593 0 7.574219-3.394531 7.574219-7.578125s-3.390626-7.574219-7.578126-7.574219zm0 0" data-original="#000000" class="active-path" data-old_color="##704C0" fill="#704C00"/><path d="m457.070312 346.636719h-93.828124c-4.183594 0-7.574219 3.394531-7.574219 7.578125s3.390625 7.574218 7.574219 7.574218h93.832031c4.183593 0 7.574219-3.390624 7.574219-7.574218s-3.390626-7.578125-7.578126-7.578125zm0 0" data-original="#000000" class="active-path" data-old_color="##704C0" fill="#704C00"/><path d="m457.070312 377.351562h-93.828124c-4.183594 0-7.574219 3.394532-7.574219 7.578126 0 4.183593 3.390625 7.574218 7.574219 7.574218h93.832031c4.183593 0 7.574219-3.390625 7.574219-7.574218 0-4.183594-3.390626-7.578126-7.578126-7.578126zm0 0" data-original="#000000" class="active-path" data-old_color="##704C0" fill="#704C00"/><path d="m457.070312 408.066406h-93.828124c-4.183594 0-7.574219 3.390625-7.574219 7.578125 0 4.183594 3.390625 7.574219 7.574219 7.574219h93.832031c4.183593 0 7.574219-3.390625 7.574219-7.574219 0-4.1875-3.390626-7.578125-7.578126-7.578125zm0 0" data-original="#000000" class="active-path" data-old_color="##704C0" fill="#704C00"/><path d="m457.070312 438.78125h-93.828124c-4.183594 0-7.574219 3.390625-7.574219 7.574219 0 4.183593 3.390625 7.578125 7.574219 7.578125h93.832031c4.183593 0 7.574219-3.394532 7.574219-7.578125 0-4.183594-3.390626-7.574219-7.578126-7.574219zm0 0" data-original="#000000" class="active-path" data-old_color="##704C0" fill="#704C00"/></g> </svg>
